<?xml version="1.0" encoding="utf-8"?>
<!-- Generator: Adobe Illustrator 25.0.1, SVG Export Plug-In . SVG Version: 6.00 Build 0)  -->
<svg version="1.1" xmlns="http://www.w3.org/2000/svg" xmlns:xlink="http://www.w3.org/1999/xlink" x="0px" y="0px"
	 viewBox="0 0 12000 8000" style="enable-background:new 0 0 12000 8000;" xml:space="preserve">
<style type="text/css">
	.st0{fill:#F0F2F3;}
	.st1{fill:#E3E5E9;}
	.st2{fill:#F1F3F4;stroke:#535353;stroke-width:4;stroke-miterlimit:10;}
	.st3{fill:none;stroke:#BABCBE;stroke-width:70;stroke-miterlimit:10;}
	.st4{display:none;}
	.st5{display:inline;fill:none;stroke:#2EFF63;stroke-miterlimit:10;}
	.st6{fill:none;stroke:#BABCBE;stroke-width:83;stroke-miterlimit:10;}
	.st7{fill:none;stroke:#FFFFFF;stroke-width:71;stroke-miterlimit:10;}
	.st8{fill:none;stroke:#FFFFFF;stroke-width:58;stroke-miterlimit:10;}
	.st9{fill:none;stroke:#00FF00;stroke-width:2;stroke-miterlimit:10;}
	.st10{fill:none;stroke:#EEA462;stroke-width:110;stroke-miterlimit:10;}
	.st11{fill:none;stroke:#F3CA5B;stroke-width:95;stroke-miterlimit:10;}
	.st12{fill:none;stroke:#00FF00;stroke-width:4;stroke-miterlimit:10;}
	.st13{fill:none;stroke:#EB926D;stroke-width:240;stroke-miterlimit:10;}
	.st14{fill:none;stroke:#F2B95B;stroke-width:202;stroke-miterlimit:10;}
	.st15{fill:#B2D8B8;}
</style>
<g id="背景色">
	<polyline class="st0" points="0,0 0,8000 12000,8000 12000,0 	"/>
</g>
<g id="城市">
	<path class="st1" d="M5801.45,5506.49l347.03,1373.76l299.02,302.07l132.08-16.82c28.55,123.48,59.88,247.5,94.14,372
		c0.71,2.57,1.87,8.22,4.28,15.5c22.32,67.5,84.16,103.04,98,111c77.87,44.77,158.73,27.85,179,23l203-42l122.13,355H9461.5
		l616-1306.03l111.5-46.51l159.63-404.96l-186.04-303l-624.3-307l-41.14-126.01l-874.73-370.99l-92.86-173.11L8458,4925l-624,123
		l-116.31,62l-129.19,11.6l-89.46-54.6l-745.94,101.75l-284.42,58.75l-329.14,115.25l12.52,77.75L5801.45,5506.49z"/>
</g>
<g id="建筑物">
	<polygon class="st2" points="6475.5,5307.5 6318.5,5389.5 6296.5,5394.5 6392.5,5796.5 6416.5,5793.5 6774.5,5699.5 6678.5,5303.5 
			"/>
	<polygon class="st2" points="6226.5,5771.5 6131.5,5420.5 5859.5,5488.5 5830.5,5539.5 5886.5,5761.5 5929.5,5751.5 5954.5,5844.5 
			"/>
	<polygon class="st2" points="6237.5,5794.5 6298.5,6020.5 6268,6066.32 6201.5,6084.5 6184.5,6114.5 6089.5,6140.5 6029.5,5917.5 
		6059.5,5866.5 6125.5,5848.5 6143.5,5817.5 	"/>
	<path class="st2" d="M6081.5,6110.5l8,30l95-26l17-30l62.51-17.09l1.49,7.09c0,0,11-6,14,5s3,12,3,12l11-3c0,0,8-3,10,3s9,28,9,28
		l7-2l15,47l-27,8l46,148l-7,9l-10,3l1,4l-121,38l-13-40l-45,14l-10-33l-114,35l-61-208l107.91-32.07"/>
	<polygon class="st2" points="6108.5,6410.5 6377.5,6324.5 6461.5,6581.5 6197.43,6667.89 6192.5,6669.5 	"/>
	<path class="st2" d="M6273.5,6953.5l-76.07-285.61l209.07-57.39l30,114l31-7l13,45l42-10l33,125l-9,1c0,0,6,19-9,22s-142,36-142,36
		l7,26l-46,14l-3-8l-26,6c0,0-7,5-9-2s-5-14-5-14l-11,3c0,0-7,3-9-2s-2-9-2-9l-18,4"/>
	<polygon class="st2" points="6389.5,6973.5 6396.5,6998.5 6379.5,7003.5 6398.5,7079.5 6415.5,7075.5 6422.5,7099.5 6595.5,7056.5 
		6564.5,6930.5 	"/>
	<polygon class="st2" points="6360.5,5876.5 6415.5,6081.5 6504.5,6059.5 6518.5,6030.5 6600.48,6009.91 6598.5,6001.5 
		6836.5,5938.5 6774.5,5699.5 6471.37,5779.09 6452.5,5809.5 6386.5,5829.5 	"/>
	<polygon class="st2" points="6596.5,6515.5 6913.5,6422.96 6913.5,6416.7 6957.5,6406.5 6836.5,5938.5 6598.5,6001.5 
		6602.5,6018.5 6543.5,6056.5 6522.5,6045.5 6515.5,6049.5 6506.24,6067.41 6447.5,6088.5 6521.5,6352.5 6559.5,6372.5 	"/>
	<polygon class="st2" points="6855.5,5269.5 6900.5,5486.5 6999.5,5465.5 7014.5,5536.5 7287.5,5480.5 7302.27,5550 7588.5,5487.5 
		7513.5,5135.5 7084.5,5227.5 7083.5,5222.5 	"/>
	<polygon class="st2" points="6913.5,5660.5 7445.5,5537.5 7486.5,5709.5 7467.5,5715.5 7486.5,5801.05 7050.5,5903.5 
		7046.5,5884.5 6968.5,5901.5 	"/>
	<path class="st2" d="M7751.5,5965.5"/>
	<polygon class="st2" points="7476.5,7420.5 7556.5,7735.5 8158.5,7585.5 8080.5,7269.5 	"/>
	<path class="st2" d="M7503.5,7212.5l466-118l-38-151l-30,8l-23-91l31-8l-90-361c0,0-124-4-186,8c-21.73,4.21-63.51,14.82-99,30
		c-65.79,28.13-128,66-128,66l-10,47l-58,14l43,176l33,27L7503.5,7212.5z"/>
	<path class="st2" d="M7051.5,6776.5l139,591l-43,10l20,81l-323,79l-206-850l179-42l1,7l90-20l13,56
		C6921.5,6688.5,7017.5,6666.5,7051.5,6776.5z"/>
	<polygon class="st2" points="7081.5,6388.5 7691.5,6248.5 7657.5,6092.5 7728.5,6077.5 7723.5,6052.5 7766.5,6043.5 
		7749.47,5965.5 7706.5,5973.5 7701.5,5950.5 7628.73,5965.5 7590.5,5799.5 6978.04,5938.5 	"/>
	<polygon class="st2" points="6847.5,5427.5 6886.6,5419.45 6900.5,5486.5 6999.5,5465.5 7014.5,5536.5 7151.78,5508.34 
		7170.85,5601 6913.5,5660.5 6896.5,5664.5 	"/>
	<polygon class="st2" points="8231.5,7243.5 8294.5,7574.5 8762.5,7484.5 8709.5,7201.5 8636.5,7165.5 	"/>
	<polygon class="st2" points="8794.5,6844.5 8643.43,7168.92 8709.5,7201.5 8723.5,7207.5 8718.96,7223.01 8873.5,7297.5 
		9057.5,6894.5 8839.5,6791.5 8812.48,6851.68 	"/>
	<path class="st2" d="M8269.91,7445.3l-41.41,7.2l-132-600.82c0,0-13.59-109.47,86.7-131.33s258.29-58.85,258.29-58.85
		l120.14,518.42l-330.14,63.58L8269.91,7445.3z"/>
	<path class="st2" d="M8681.5,6340.5c0,2-210,428-210,428l35,18l18-31l196,92l44-92l174-85l-48,99l197,44l183-375l-40-18l8-15
		l-309-146l-16,32l-202,65L8681.5,6340.5z"/>
	<polygon class="st2" points="7975.5,7816.5 8201.5,7774.5 8250.5,7806.5 8263.5,7875.5 8287.5,7891.5 8306.64,7979.35 
		8309.5,7992.5 8254.22,8000 8034.79,8000 8022.5,7933.5 7991.5,7912.5 	"/>
	<path class="st2" d="M8266.5,7788.5c1,6,21.36,104.65,21.36,104.65l18.78,86.2l86.86-18.85l8.29,39.5h121.04l133.66-30.5l7.95,30.5
		h140.42l131.62-29.5l-76-313L8266.5,7788.5z"/>
	<polygon class="st2" points="9165.5,7025.5 8976.5,7427.5 9194.5,7529.5 9222.5,7470.5 9239.5,7478.5 9393.5,7152.5 9312.5,7114.5 
		9319.5,7098.5 	"/>
	<path class="st2" d="M9444.5,6496.5c-1,1-195,413-195,413l219,102l28-61l19,9l158-338l-81-38l6-14L9444.5,6496.5z"/>
	<polygon class="st2" points="9534.5,7271.5 9349.5,7646.5 9579.5,7758.5 9765.47,7370 	"/>
	<polygon class="st2" points="9525.5,7263.5 9705.41,7344.38 9740.65,7263.5 9801.5,7287.5 9905.5,7052.5 9962.5,7076.5 
		10072.5,6835.5 9780.5,6707.5 	"/>
	<polygon class="st2" points="9437.5,6360.5 9711.5,6490.5 9830.5,6239.5 9695.5,6186.5 9683.5,6218.5 9641.5,6199.5 9630.5,6227.5 
		9520.5,6175.5 	"/>
	<polygon class="st2" points="9592.5,6202.5 8987.5,5922.5 9002.5,5885.5 8972.5,5870.5 9124.5,5526.5 9168.5,5513.5 9243.5,5528.5 
		9364.5,5581.5 9424.5,5637.5 9371.5,5754.5 9444.5,5813.5 9437.5,5827.29 9689.5,5935.5 9587.5,6164.5 9603.5,6173.5 	"/>
	<polygon class="st2" points="9734.62,5858 9699.5,5932.5 9709.5,5969.5 9681.5,6027.5 9695.5,6073.5 9882.5,6167.5 9951.5,6016.5 
		9930.5,5946.5 	"/>
	<polygon class="st2" points="9478.5,6156.5 9061.5,5968.5 9023.11,6157.5 9392.5,6334.5 	"/>
	<polygon class="st2" points="8147.5,6458.5 8168.5,6549.5 8260.5,6530.5 8286.5,6523.5 8278.5,6493.5 8293.27,6490.86 
		8276.5,6428.5 	"/>
	<polygon class="st2" points="8367.5,5841.5 8568.5,5932.5 8608.11,5841.5 8677.5,5872.5 8694.5,5835.5 8820.5,5890.5 
		9035.5,5404.5 8636.5,5242.5 	"/>
	<polygon class="st2" points="7846.5,5686.5 7902.5,5958.5 8171.5,5901.5 8174.5,5914.5 8266.5,5921.5 8293.5,6050.5 8376.5,6055.5 
		8503.5,6029.5 8575.5,5994.5 8558.69,5928.06 8367.5,5841.5 8486.54,5576.44 8482.5,5555.5 	"/>
	<polyline class="st2" points="7772.5,5285.5 7828.18,5555.5 8439.5,5410.5 8397.5,5231.5 8443.5,5221.5 8390.5,5021.5 
		8117.5,5080.5 8140.5,5201.5 7769.15,5288.5 	"/>
</g>
<g id="城市道路_1_">
	<g id="转盘路1路肩">
		<circle class="st3" cx="7672.25" cy="5168.75" r="58.75"/>
	</g>
	<g id="转盘路2路肩">
		<circle class="st3" cx="8857.25" cy="7550.75" r="58.75"/>
	</g>
	<g id="城市道路中心线" class="st4">
		<path class="st5" d="M6132.5,5372.5l104-27c0,0,6,2,35-14s40-22,40-22l70-33c0,0,51-20,59-22s23-8,33-10s21-4,21-4s28-5,42-6
			s41-3,41-3s22-2,41-4s64-10,64-10l17-3l76-17l54-12l61-12l42-9c9.81-1.41,25.13-3.72,44-7c18.6-3.23,22.07-4.18,39-7
			c5.75-0.96,12.07-1.97,47-7c22.33-3.22,33.5-4.83,42-6c22.01-3.04,31.84-4.18,62-8c30.12-3.82,22.83-3,85-11
			c39.1-5.03,51.82-6.62,63-8c27.27-3.36,41.28-5.08,60-7c19.67-2.02,37.48-3.85,57-5c21.85-1.29,52.13-2.1,89,0l20,7l23,14l17,12
			l18,10"/>
		<path class="st5" d="M7295.5,7511.5l-35,9l-162,39c-0.01,0-0.03,0.01-0.06,0.02c-1.15,0.32-17.11,4.76-21.94,5.98
			c-5.74,1.45-6.21,1.47-21,5c-14.4,3.44-14.87,3.63-21,5c-7.19,1.61-7.01,1.44-19,4c-11.77,2.51-12.57,2.8-23,5
			c-9.55,2.01-14.32,3.02-20,4c-9.35,1.6-16.48,2.46-21,3c-9.04,1.07-16.39,1.67-21,2c-3.77,0.27-11.33,0.76-21,1
			c-9.39,0.23-16.32,0.12-23,0c-11.42-0.2-17.14-0.3-23-1c-6.41-0.76-12.4-1.5-20-4c-8.98-2.95-15.25-6.71-19-9
			c-3.5-2.13-9.96-6.36-17-13c-4.82-4.54-7.88-8.36-14-16c-3.99-4.97-7.62-9.5-12-16c-6.53-9.68-10.81-17.92-15-26
			c-2.15-4.14-3.85-7.61-5-10l-12-39l-14-62l-90-365l-27-107l-21-85l-48-185l-15-54l-23-84l-55-190l-30-99l-31-95l-8-20c0,0-3-6-7-9
			s-8-8-8-8l-7-19l-23-77l-66-262l-47-198.98l-12-49.02l-46-167"/>
		<path class="st5" d="M8779.5,7555.5c-8.16-0.66-15.28-0.47-21,0c-11.6,0.95-20.23,3.23-23,4c-7.01,1.96-12.15,4.12-19,7
			c-4.5,1.89-10.99,4.64-19,9c-3.86,2.1-4.08,2.41-18,11c-6.77,4.18-11.65,7.19-18,11c-2.75,1.65-7.54,4.46-17,10
			c-15.35,9-16.78,9.8-19,11c-7.76,4.19-14.15,7.23-18,9c-5.06,2.33-9.79,4.2-19,8c-18.74,7.73-23.62,9.28-26,10
			c-2.58,0.79-8.38,2.19-20,5c-11.38,2.75-12.04,2.8-21,5c-13.76,3.38-13.32,3.55-20,5c-8.05,1.74-10.02,1.78-22,4
			c-11.11,2.06-11.38,2.46-20,4c-11.69,2.08-18.31,2.82-41,6c-10.08,1.41-15.12,2.12-21,3c-16.78,2.51-19.44,3.26-42,7
			c-17.5,2.9-39.29,6.33-50,9c-0.01,0-4.58,1.15-12,3c-3.42,0.85-7.97,1.99-8,2c-9.82,2.45-22.68,5.07-33.64,7.39
			c-11.33,2.39-21.57,4.59-34.36,7.61c-8.58,2.03-11.21,2.8-20,5c-33.37,8.36-56.53,12.59-121,25c-22.99,4.43-41,7.92-62,12
			c-50.91,9.88-60.34,11.79-83,16c-6.63,1.23-24.84,4.5-61,11c-50.71,9.11-76.06,13.66-78,14c-40.53,7.01-65.87,10.94-84,15
			c-2.07,0.46-9.69,2.19-20,4c-10.31,1.81-17.93,2.75-20,3c-8.13,0.98-14.08,1.45-22,2c-8.19,0.57-14.23,0.9-22,1
			c-4.73,0.06-6.21-0.09-21,0c-6.76,0.04-8,0.09-11,0c-7.98-0.23-11.92-0.92-22-2c-12.46-1.34-10.99-0.77-22-2
			c-11.47-1.28-19.9-2.65-22-3c-3.06-0.51-3.42-0.6-21-4c-16.21-3.13-17.08-3.28-20-4c-4.94-1.22-9.96-2.82-20-6
			c-10.12-3.21-15.19-4.82-21-7c-4.1-1.54-10.73-4.05-19-8c-9.28-4.44-17.01-8.13-26-15c-8.36-6.39-13.84-12.49-16-15
			c-5.48-6.36-8.87-11.87-12-17c-4.92-8.07-8.07-14.75-10-19c-7.14-15.68-11.82-29-16-41c-13.54-38.86-12.51-36.44-16-46
			c-9.37-25.65-10.66-26.25-15-40c-4.86-15.41-3.43-15.25-11-48c-4.4-19.03-9-36.91-17-68c-0.88-3.41-2.69-10.44-5-20
			c-2.86-11.86-4.63-19.93-6-26c-4.01-17.78-7.05-29.27-10-41c-8.71-34.63-21.5-90.81-25-106c-17.52-76.09-51-206.43-96-391
			c-47.85-196.23-78.07-328.04-89-370c-4.15-15.92-8.17-29.08-12-50c-1.22-6.66-3.15-18.09-7-34c-2.32-9.6-4.39-16.65-5-19
			c-9.84-37.76-16.76-66.52-20-80c-17.57-73.18-19.77-84.31-29-122c-8.76-35.75-11.33-44.32-26-101
			c-29.1-112.44-25.02-102.16-42-166c-22.08-83.05-31.23-108.94-49-181c-9.87-40.03-16-66-16-66c-9.92-42.04-13.87-61.03-19-81
			c-0.99-3.84-2.87-10.98-5-21c-1.92-9.01-1.97-10.62-4-20c-1.2-5.53-2.47-10.68-5-21c-1.1-4.46-1.39-5.6-5-20
			c-2.89-11.52-4.33-17.28-5-20c-1.59-6.45-3.59-14.6-6-25c-3.07-13.26-2.79-12.91-5-22c-2.38-9.81-2.86-10.86-5-20
			c-1.95-8.3-2.15-9.98-4-18c-1.55-6.7-3.21-13.36-5-20l-2-10l-4-18l-4-22l-3-19l-2-13l-5-20l-9-38l-27-123l-7-37l-8-41
			c-2.48-18.74-5.06-32.63-7-42c-1.19-5.75-2.53-11.7-4-21c-1.42-8.97-1.56-12.29-3-21c-1.57-9.51-3.16-16.27-4-20
			c-4.74-21.01-6.65-38.34-11-62c-2.41-13.11-6.27-29.08-14-61c-8.5-35.13-12.75-52.7-18-69c-5.26-16.35-12.62-36.45-23-59
			c-5.6-8.17-14.09-19.32-26-31c-16.72-16.4-31.55-25.39-51-37c-35.17-21-64.56-32.19-75-36c-19.44-7.1-36.95-13.49-62-17
			c-4.26-0.6-25.3-3.43-53-2c-16.95,0.88-29.97,3.02-42,5c-12.34,2.03-24.68,4.53-43,9c-19.52,4.76-46.03,11.8-78,22l-190,50
			c-95.51,25.87-165.04,45.64-178,50c-8.77,2.95-17,6-17,6c-5.81,2.1-11.82,4.42-18,7c-6.43,2.68-10.28,4.56-20,9
			c-9.26,4.23-12.65,5.69-20,9c-17.42,7.85-44.47,20.39-73,34c-21.7,10.35-24.62,11.96-36,17c-3.68,1.63-18.63,8.22-39,16
			c-23.35,8.92-33.54,11.65-39,13c-4.1,1.02-11.11,2.64-20,4c-7.48,1.15-12.72,1.95-20,2c-10.24,0.07-18.02-1.39-21-2
			c-8.61-1.77-15.21-4.35-19-6c-1.94-0.84-9.79-4.33-19-11c-6.21-4.5-10.31-8.46-15-13c-3.19-3.09-8.02-7.97-14-15
			c-14.44-16.98-24.46-33.45-26-36c-10.68-17.7-16.15-31.37-26-56c-6.86-17.14-10.31-25.78-14-39c-3.8-13.61-8.37-30.42-9-53
			c-0.43-15.33,1.1-28.62,3-39c2.88-15.75,6.99-26.77,12-40c5.37-14.19,12.48-32.69,26-55c15.71-25.92,31.07-42.09,38-49
			c17.51-17.46,27-21.49,31-23c13.4-5.06,25.36-4.52,37-4c3.71,0.17,10.1,0.6,40,7c28.68,6.14,27.57,6.76,41,9
			c8.08,1.34,19.05,2.56,41,5c15,1.67,25.94,2.79,28,3c25.86,2.69,37.01,5.85,82,14c41.75,7.57,55.82,9.22,63,10
			c26.48,2.88,43.38,3.03,62-3c16.26-5.26,25.08-12.4,27-14c5.04-4.19,14.1-12.92,23-34c8.2-19.43,11.09-37.07,13-58
			c2.04-22.32,4.4-48.28,1-84c-0.97-10.14-5.36-52.16-24-104c-2.41-6.71-13.28-29.81-35-76c-13.27-28.21-20.84-43.69-36-61
			c-5.23-5.97-15.14-17.51-31-28c-3.65-2.41-3.49-2.05-17-10c-19.51-11.48-29.27-17.22-34-21c-5.75-4.59-18.03-14.6-26-31
			c-5.24-10.78-6.23-20.34-8-39c-1.78-18.85-1.49-34.03-1-60c0.01-0.75,0.37-19.37-1-41c-0.24-3.78-0.74-10.95-3-20
			c-1.26-5.04-2.91-11.48-7-19c-3.27-6.01-6.6-9.96-10-14c-5.78-6.86-11.14-11.6-14-14c-13.39-11.22-26.39-16.66-37-21
			c-7.7-3.15-5.63-1.74-20-7c-18.34-6.72-23.29-9.61-38-15c-11.47-4.2-20.08-6.7-28-9c-23.18-6.72-33.61-7.48-80-16
			c-18.33-3.37-37.18-7.01-61-14c-21.49-6.31-29.69-10.25-37-17c-1.09-1-18.81-18.27-20-42c-0.27-5.29,0.24-11.96,1-22
			c0.36-4.75,0.84-10.99,2-19c1.43-9.88,3.13-17.25,4-21c2.98-12.77,7.92-33.98,20-59c7.7-15.95,12.54-25.96,23-37
			c7.55-7.97,16.64-18.02,32-23c11.23-3.64,21.64-3.31,26-3c4.55,0.33,10.09,1.56,21,4c8.54,1.91,17.58,4.09,21,5
			c23.99,6.42,57.04,24.5,76,35c31.66,17.52,47.48,26.29,54,30c31.61,18.02,52.82,30.92,73,44c7.76,5.03,12,7.79,18,12
			c24.14,16.96,40.56,32.09,48,39c39.6,36.77,65.68,63.74,94,90c0,0,25.53,24.72,64,55c3.4,2.67,9.17,7.09,17,12
			c6.12,3.84,11.63,6.82,18,10c16.13,8.06,26,12.99,39,17c15.31,4.73,26.83,5.68,44,7c12.48,0.96,34.1,1.9,61-1
			c4.97-0.54,28.91-3.23,60-12c17.59-4.96,36.32-10.25,59-22c20.69-10.72,36.34-18.32,51-35c5.67-6.45,20.47-22.62,24-43
			c0.63-3.66,1.58-11.36,2-20c0.36-7.41,0.21-13.17,0-21c-0.14-5.41-0.42-12.56-1-21c-1.32-6.99-2.65-13.99-4-21
			c-3.64-18.98-5.67-29.56-8-41c-5.05-24.81-5.28-23.12-9-42c-2.9-14.71-5.14-26.23-7-42c-2.49-21.11-2.21-32.18-1-42
			c1.51-12.23,3.97-18.55,5-21c2.74-6.55,7.23-14.23,16-23c18.98-18.97,44.61-29.62,53-33c29.78-12,51.63-12.85,84-24
			c5.09-1.75,11.89-4.25,20-8c9.6-4.44,15.65-8.13,24-13c13.55-7.9,27.37-15.52,36-20c4.36-2.26,8.54-4.32,38-17
			c3.31-1.42,25.25-10.86,62-26c13.25-5.46,23.86-9.78,39-14c5.54-1.54,12.27-3.55,21-5c10.29-1.71,18.15-1.95,21-2
			c7.07-0.13,12.25-0.23,19,1c10.74,1.96,18.42,6.01,24,9c7.67,4.11,12.85,8.18,19,13c7.44,5.84,12.67,10.79,15,13
			c22.82,21.73,28.25,29.99,45,45c8.07,7.24,14.21,11.94,26,21c16.6,12.75,20.07,14.21,36,26c22.79,16.87,34.19,25.3,45,38
			c6.42,7.54,15.25,18.08,22,34c2.97,7.01,4.69,13.07,11,60c2.93,21.82,4.4,32.74,5,40c1.22,14.79,0.8,18.38,2,55
			c0.75,22.83,1.14,34.4,2,42c2.95,25.96,9.18,44.61,11,50c4.3,12.74,9.26,22.66,19,42c10.02,19.89,18.95,35.83,30,55
			c12.69,22.01,19.36,33,33,56c30.01,50.6,45.16,76.22,52,92c2.24,5.17,12.89,30.01,23,64c7.55,25.37,6.02,26.32,11,41
			c10.38,30.6,25.24,50.66,44,76c20.77,28.05,39.6,46.8,55,62c24.66,24.35,43.08,38.52,49,43c28.23,21.36,45.78,29.33,52,32
			c13.22,5.67,28,10,28,10c4.93,1.33,11.78,3.11,20,5c0,0,9.66,2.22,19,4c27.07,5.17,67,5,67,5c9.96-0.04,49.05-0.2,82,4
			c43.88,5.6,76.42,18.88,111,33c28.14,11.49,49.21,19.27,74,36c4.57,3.08,14.38,10.39,34,25c38.5,28.67,38.73,29.8,50,37
			c10.32,6.59,28.72,18.2,55,28c23.16,8.64,41.83,11.92,54,14c27.68,4.73,49.14,4.93,62,5c58.81,0.3,108.71-1.46,124-2
			c91.64-3.21,113.38-3.15,127-3c30.53,0.33,61.29,2.04,81,3c29.78,1.45,44.67,2.18,64,4c30.09,2.83,53.93,5.07,84,12
			c20.23,4.66,53.62,12.56,92,32c21.56,10.92,37.37,21.95,69,44c27.27,19.02,41.92,31.23,70,46c15.36,8.08,28.46,13.62,37,17
			c13.33,4.17,32.11,9.27,55,13c32.79,5.34,57.97,5.23,84,5c41.05-0.36,59.71-5.58,86-6c2.74-0.04,10.69-0.12,21-2
			c2.32-0.42,9.64-1.83,19-5c2.44-0.83,11.33-3.84,19-8c4.86-2.64,13.23-7.9,30-28c14.53-17.42,23-31,23-31
			c18.04-28.93,28.43-54.78,38-77c15.84-36.77,26.73-62.05,45-93c13.78-23.35,26.73-44.96,50-69c22.02-22.74,42.22-36.23,48-40
			c30.61-19.95,57.05-28.12,89-38c23.86-7.38,38.99-12.05,61-14c36.73-3.25,58.44,1.79,66,4c6.08,1.78,11.05,3.85,21,8
			c37.47,15.62,44.81,24.25,75,36c14.04,5.46,24.23,9.34,39,11c10.61,1.19,22.53,1.11,40-2c9.06-1.61,35.35-6.85,77-27
			c14.66-7.1,41.12-20.82,72-43c22.16-15.91,41.54-29.83,62-53c8.94-10.12,21.29-29.08,46-67c6.18-9.48,26.26-40.44,52-65
			c7.31-6.98,17.1-15.36,31-18c6.73-1.28,14.05-1.15,22-1c7.84,0.14,13.61,0.28,21,2c5.44,1.26,9.96,3.18,19,7
			c5.52,2.34,11.54,4.9,19,9c0,0,7.75,4.26,16,10c12.29,8.55,38.72,27.32,65,59c15.61,18.81,15.46,23.11,44,69
			c6.49,10.44,23.66,36.29,58,88c50.05,75.36,41.74,62.07,58,87c35.93,55.1,39.96,63.99,59,88c22.71,28.63,35.59,44.6,59,61
			c32.88,23.03,64.81,31.69,80,35c7,1.53,18.4,3.65,42,5c28.26,1.61,58,1.19,128-6c43.93-4.51,68.45-7.03,104-13
			c34.95-5.87,58.04-9.74,89-19c10.39-3.11,14.43-4.66,79-29c45.24-17.06,68.08-25.63,79-28c20.39-4.42,51.41-8.25,92-2"/>
		<path class="st5" d="M7681.5,5243.5c1.36,9.27,2.69,18.61,4,28c1.66,11.89,2.18,16.16,3,22c0.69,4.92,2.51,17.41,7,41
			c4.16,21.86,12.53,63.38,24,117c10.33,47,20.67,94,31,141c1.67,6.33,3.33,12.67,5,19c3.33,15.18,8.45,38.49,15,68
			c0.52,2.32,1.71,7.68,2,9c14.18,63.76,55.13,257.95,84,382c7.99,34.34,16,68,16,68c6.36,26.72,11.39,47.52,19,79
			c9.88,40.84,13.41,55.18,21,87c4.8,20.12,5.63,24.12,9,38c8.29,34.17,14.92,59.11,17,67c18.79,71.24,42.02,175.18,67,277
			c8.05,32.79,14.89,59.72,17,68c4.79,18.8,8.38,32.6,9,35c14.43,55.61,45.69,191.28,68,284c31.06,129.09,75.93,304.39,80,320
			c0.46,1.76,2.49,9.49,5,20c2.7,11.28,4.49,19.62,5,22c5.36,24.74,12.63,49.33,23,93c4.3,18.09,7.58,32.93,14,62
			c1.75,7.91,2.8,12.72,9,41c0.28,1.29,4.54,20.68,9,41l7.36,33.39"/>
		<polyline class="st5" points="7253.29,7338.79 7586.5,7258.5 8080.5,7136.5 8112.5,7128.5 		"/>
		<path class="st5" d="M8040.5,7089.5"/>
		<polyline class="st5" points="6534.88,6603.86 6588.5,6589.5 6615.5,6582.5 6636.5,6576.5 6677.5,6565.5 6734.5,6550.5 
			6812.5,6530.5 6870.5,6516.5 6928.5,6501.5 6969.5,6491.5 7020.5,6479.5 7043.85,6474.39 7078.5,6465.5 7114.5,6457.5 
			7133.5,6452.5 7236.5,6428.5 7339.5,6404.5 7419.5,6385.5 7501.5,6366.5 7583.5,6347.5 7604.5,6342.5 7624.5,6337.5 
			7645.5,6332.5 7666.5,6327.5 7727.5,6313.5 7830.5,6289.5 7904.55,6271.38 7946.5,6261.5 7999.5,6248.5 8038.5,6239.5 
			8096.5,6225.5 8158.5,6210.5 8232.5,6192.5 8275.5,6182.5 8331.5,6169.5 8393.5,6155.5 8452.5,6141.5 8515.5,6127.5 
			8556.5,6117.5 8617.5,6103.5 8658.5,6093.5 8719.5,6078.5 8739.5,6075.5 8764.5,6070.5 8784.5,6066.5 8803.5,6062.5 
			8823.5,6060.5 8857.5,6059.5 8865.66,6059.5 8900.5,6060.5 		"/>
		<path class="st5" d="M7068.75,6576.49l64.75-15.99l95-22l57-14l40-9l40-9l20-5l20-4l21-4l19-5l20-4l21-5l21-5l21-4l21-5l20-5l19-4
			l20-4l22-5l20-5l20-4l19-5l64-14l21-4l20-5l20-5l21-5l22-5l40-10l32.59-8.41l35.41-8.59l19-5l20-5l41-9l39-9l20-4l20-6l22-4l20-5
			l21-5l21-5l21-5l21-5l21-5l21-5l19-4l22-5l20-5l20-5l21-5l21-4l24-7l30-6l34-8l33-9l20-5l70-16l20-5l20-5l20-4l20-4l25-4l21-2
			l21-2l21-2l22-5l20-6l20-8l19-9l21-10l36,25c8.51,7.59,19.88,17.05,34,27c14.07,9.92,25.44,16.5,35,22
			c14.76,8.49,26.21,14.18,40,21c19.96,9.87,35.2,16.74,38,18c62.41,28.16,143.96,69.71,249,117c19.18,8.64,38,17,38,17
			c42.24,18.77,59.63,26.06,82,36c9,4,12.22,5.51,95,45c59.07,28.18,76.52,36.52,107,51c35.65,16.93,53.48,25.4,57,27
			c41.91,19.04,86.04,37.32,120,55c11.72,6.1,19,10,19,10c23.64,12.65,27.81,15.69,37,20c15.78,7.4,28.69,10.27,41,13
			c14.26,3.17,29.72,4.66,57,6c23.31,1.15,50.98,2.51,84-3c19.8-3.3,55.78-9.65,94-33c34.27-20.93,53.28-45.1,76-74
			c14.75-18.76,37.28-47.85,55-92c16.75-41.73,20.88-76.16,23-95c3.48-30.88,5.68-83.08-10-144c-13.02-50.56-32.86-85.79-51-118
			c-10.26-18.22-19.71-34.83-36-55c-11.81-14.63-35.95-44.06-73-67c-19.68-12.18-58.69-32.23-66-36c-13.5-6.96-14.58-7.22-72-36
			c-21.38-10.72-26.17-13.14-38-19c-22.5-11.14-31.6-15.43-57-28c-20.85-10.32-23.63-11.87-38-19c-34.55-17.13-61.61-29.5-89-42
			c-36.94-16.85-32.12-13.99-76-34c0,0-34.92-15.92-74-35c0,0-16.03-7.82-39-20c-2.98-1.58-9.55-5.07-18-10
			c-10.15-5.91-15.35-8.97-22-14c-3.25-2.46-9.24-7.2-16-14c-4.61-4.64-8.63-8.66-13-15c-6.14-8.9-9.13-16.66-10-19
			c-0.86-2.31-1.28-3.77-5-20c-4.03-17.55-4.01-17.91-5-21c-1.9-5.91-4.66-12.97-9-21c-3.33-6.15-4.58-6.8-11-18
			c-5.47-9.54-6.23-11.82-10-17c-5.52-7.58-11.06-12.53-15-16c-5.5-4.85-9.99-7.91-16-12c-6.18-4.2-10.97-7.03-16-10
			c-1.97-1.16-8.61-5.06-18-10c-8.1-4.26-14.53-7.35-18-9c-31.86-15.13-76-34-76-34c-24.59-10.51-38.36-16.4-59-25
			c-29.5-12.3-52.41-21.55-61-25c-17.53-7.03-47.17-18.9-73.91-29.67c-20.82-8.38-39.89-16.1-50.09-20.33
			c-28.9-11.99-43.58-18.2-57-24c-17.94-7.75-20.63-9.13-39-17c-24.2-10.37-29.42-12.27-57-24c-17.63-7.5-31.62-13.58-51-22
			c-26.94-11.71-25.87-11.39-39-17c-19.05-8.14-36.81-15.74-58-24c-19.55-7.62-33.35-12.43-58-21c-20.37-7.08-47.88-16.42-81-27
			l-42-14"/>
		<path class="st5" d="M7864.5,6106.5c12.6-3.46,31.61-8.51,55-14c16.7-3.92,18.83-4.13,50-11c28.44-6.27,50.58-11.37,75-17
			c12.55-2.89,32.85-7.19,43-10c0.19-0.05,5.21-1.45,12-3c6.04-1.38,8.78-1.82,10-2c4.77-0.72,8.72-0.92,11-1
			c1.93-0.07,2.12-0.01,10,0c4.85,0.01,6.18-0.01,7,0c8.21,0.08,16,3.08,21,5c4.74,1.82,11.48,4.47,19,10
			c8.56,6.29,13.46,12.89,18,19c1.03,1.39,5.99,8.13,11,18c2.8,5.52,4.54,10.02,8,19c3.17,8.21,5.1,13.24,7,20
			c2.1,7.48,2.86,12.5,4,19c1.42,8.12,3.63,19.66,7,34"/>
		<polyline class="st5" points="7361.5,7312.71 7349.5,7258.5 7318.5,7132.5 7287.5,7008.5 7219.5,6742.5 7175.45,6550.79 
			7153.79,6447.77 		"/>
		<path class="st5" d="M7763.4,5647.44l55.1-12.94l384-76c69.61-14.68,122.32-25.97,145-31c7.1-1.58,12.17-2.74,22-5
			c23.23-5.34,34.97-8.05,41-10c10.93-3.54,24.2-7.94,39-18c6.54-4.44,11.1-8.44,14-11c6.74-5.95,17.44-15.53,27-31
			c5.61-9.07,12.76-20.93,15-38c1.23-9.39,0.31-17.93,0-21c-1.01-10.02-3.21-17.32-4-20c-5.48-18.53-12.8-43.3-15-65
			c-1.29-12.7-4.4-43.35,12-68c4.25-6.39,10.33-13.14,12-15c8.85-9.84,16.89-16.39,30-27c4.45-3.6,10.56-8.43,18-14l32-28
			c-2.63-23.17-7.04-42.09-11-56c-5.89-20.69-12.04-34.67-14-39c-3.99-8.84-7.67-15.6-9-18c-4.39-7.95-8.23-13.57-11-18
			c-12.28-19.64-18.42-29.46-25-37c-3.04-3.49-14.81-16.65-31-26c-9.31-5.38-16.3-7.32-19-8c-3.24-0.82-6.16-1.21-12-2
			c-6.99-0.94-13.44-1.82-22-2c-2.28-0.05-10.36-0.17-21,1c-6.14,0.67-6.06,1-19,3c-7.9,1.22-9.16,1.29-21,3
			c-4.18,0.6-8.72,1.27-20,3c-30.87,4.72-46.3,7.08-63,10c-2.64,0.46-10.06,1.77-22,4c-33.73,6.31-61.43,12.17-103,21
			c-68.58,14.57-61.9,13.22-80,17c-37.82,7.89-41.58,8.47-62,13c-34.03,7.56-36.87,8.91-62,14c-27.2,5.51-40.8,8.31-53,10
			c-10.21,1.42-23.7,2.98-42,8c-8.32,2.28-14.39,4.4-19,6c-25.62,8.88-44.05,18.52-62,28c-20.65,10.91-32.41,18.62-36,21
			c-7.07,4.69-12.85,8.88-17,12"/>
		<path class="st5" d="M8014.23,6721.73c13.55-3.42,32.48-8.07,55.27-13.23c18.26-4.14,31.97-7.02,51-11
			c27.44-5.75,43.09-9.02,64-13c42.28-8.04,53.22-8.89,84-16c4.52-1.04,16.79-2.39,32-8c6.21-2.29,11.75-4.79,18-8
			c5.8-2.98,22.03-11.58,57-38c8.26-6.24,20.08-15.37,34-27c9.7-8.1,16.46-14.4,30-27c8.87-8.26,12.96-12.32,17-19
			c1.88-3.1,3-5.54,9-19c3.49-7.83,5.26-11.73,8-18c1.64-3.75,3.52-8,16-35c16.77-36.29,15.85-33.99,18-39
			c9.7-22.59,5.59-16.26,15-39c1.86-4.49,4.58-10.93,6-20c0.84-5.39,0.91-9.66,1-16c0.11-7.37,0.2-13.8-1-21
			c-1.44-8.59-4.07-14.38-6-19c-3.6-8.62-8.17-21.4-12-39"/>
		<line class="st5" x1="8503.5" y1="6242.5" x2="8510.54" y2="6276.69"/>
		<path class="st5" d="M9122.5,5366.5c-12.3,29.21-9.16,23.2-16,40c-14.36,35.23-20.15,50.35-32,76c-6.35,13.74-15.18,32.14-18,38
			c-8.64,17.99-11.89,24.1-19,39c-6.55,13.72-10.94,23.42-18,39c-7.94,17.51-13.86,30.94-24,54c-16.58,37.73-15.88,36.65-25,57
			c-8.03,17.92-10.32,22.63-17,38c-4.12,9.48-8.08,18.99-16,38c-3.03,7.28-5.24,12.63-8,20c-2.06,5.51-3.74,10.42-7,20
			c-4.96,14.55-7.47,21.95-9,28c-1.25,4.95-2.17,9.63-4,19c-0.81,4.13-2.31,11.92-4,22c-1.62,9.7-2.43,14.55-3,20
			c-1.01,9.72-1,17.1-1,21c0.01,7.3-0.07,58.82,0,70c0.09,12.92-0.02,31.78-1,55l-4,86"/>
		<polyline class="st5" points="8888.5,7481.5 8952.5,7339.5 9010.5,7218.5 9082.5,7068.5 9128.5,6973.5 9194.5,6830.5 
			9265.5,6682.5 9331.5,6551.5 9383.5,6439.5 9397.84,6407.34 		"/>
		<path class="st5" d="M9507.5,7881.5l-266-136l-88-43c-2.38-1.21-5.83-2.94-10-5c-9.79-4.83-14.69-7.25-19-9
			c-3.87-1.57-8.91-3.05-19-6c-9.68-2.83-14.78-4.33-22-6c-8.94-2.07-8.98-1.51-21-4c-10.76-2.23-10.89-2.68-22-5
			c-9.62-2.01-11.45-2.07-21-4c-7.37-1.49-12.66-2.78-22-5c-9.58-2.28-14.38-3.42-20-5c-5.37-1.51-11.36-3.21-19-6
			c-6.15-2.25-11.83-4.31-19-8c-4.53-2.33-11.28-5.84-19-12c-4.45-3.55-10.22-8.76-16-16"/>
		<path class="st5" d="M10077.5,5939.5l-320.85,634.87c-133.3,282.56-194.13,411.99-224.15,476.13c-11.11,23.74-43.07,92.11-91,180
			c-20.42,37.45-29.43,54.14-37,66c-3,4.69-7.28,11.25-13,21c-12.65,21.56-20.43,38.44-23,44c-21.31,45.99-44.9,90.91-66,137
			c-18.47,40.34-45.58,98.47-82,173l-27.79,50.16"/>
	</g>
	<g id="城市道路路肩">
		<path class="st6" d="M6132.5,5372.5l104-27c0,0,6,2,35-14s40-22,40-22l70-33c0,0,51-20,59-22s23-8,33-10s21-4,21-4s28-5,42-6
			s41-3,41-3s22-2,41-4s64-10,64-10l17-3l76-17l54-12l61-12l42-9c9.81-1.41,25.13-3.72,44-7c18.6-3.23,22.07-4.18,39-7
			c5.75-0.96,12.07-1.97,47-7c22.33-3.22,33.5-4.83,42-6c22.01-3.04,31.84-4.18,62-8c30.12-3.82,22.83-3,85-11
			c39.1-5.03,51.82-6.62,63-8c27.27-3.36,41.28-5.08,60-7c19.67-2.02,37.48-3.85,57-5c21.85-1.29,52.13-2.1,89,0l20,7l23,14l17,12
			l18,10"/>
		<path class="st6" d="M7295.5,7511.5l-35,9l-162,39c-0.01,0-0.03,0.01-0.06,0.02c-1.15,0.32-17.11,4.76-21.94,5.98
			c-5.74,1.45-6.21,1.47-21,5c-14.4,3.44-14.87,3.63-21,5c-7.19,1.61-7.01,1.44-19,4c-11.77,2.51-12.57,2.8-23,5
			c-9.55,2.01-14.32,3.02-20,4c-9.35,1.6-16.48,2.46-21,3c-9.04,1.07-16.39,1.67-21,2c-3.77,0.27-11.33,0.76-21,1
			c-9.39,0.23-16.32,0.12-23,0c-11.42-0.2-17.14-0.3-23-1c-6.41-0.76-12.4-1.5-20-4c-8.98-2.95-15.25-6.71-19-9
			c-3.5-2.13-9.96-6.36-17-13c-4.82-4.54-7.88-8.36-14-16c-3.99-4.97-7.62-9.5-12-16c-6.53-9.68-10.81-17.92-15-26
			c-2.15-4.14-3.85-7.61-5-10l-12-39l-14-62l-90-365l-27-107l-21-85l-48-185l-15-54l-23-84l-55-190l-30-99l-31-95l-8-20c0,0-3-6-7-9
			s-8-8-8-8l-7-19l-23-77l-66-262l-47-198.98l-12-49.02l-46-167"/>
		<path class="st6" d="M8779.5,7555.5c-8.16-0.66-15.28-0.47-21,0c-11.6,0.95-20.23,3.23-23,4c-7.01,1.96-12.15,4.12-19,7
			c-4.5,1.89-10.99,4.64-19,9c-3.86,2.1-4.08,2.41-18,11c-6.77,4.18-11.65,7.19-18,11c-2.75,1.65-7.54,4.46-17,10
			c-15.35,9-16.78,9.8-19,11c-7.76,4.19-14.15,7.23-18,9c-5.06,2.33-9.79,4.2-19,8c-18.74,7.73-23.62,9.28-26,10
			c-2.58,0.79-8.38,2.19-20,5c-11.38,2.75-12.04,2.8-21,5c-13.76,3.38-13.32,3.55-20,5c-8.05,1.74-10.02,1.78-22,4
			c-11.11,2.06-11.38,2.46-20,4c-11.69,2.08-18.31,2.82-41,6c-10.08,1.41-15.12,2.12-21,3c-16.78,2.51-19.44,3.26-42,7
			c-17.5,2.9-39.29,6.33-50,9c-0.01,0-4.58,1.15-12,3c-3.42,0.85-7.97,1.99-8,2c-9.82,2.45-22.68,5.07-33.64,7.39
			c-11.33,2.39-21.57,4.59-34.36,7.61c-8.58,2.03-11.21,2.8-20,5c-33.37,8.36-56.53,12.59-121,25c-22.99,4.43-41,7.92-62,12
			c-50.91,9.88-60.34,11.79-83,16c-6.63,1.23-24.84,4.5-61,11c-50.71,9.11-76.06,13.66-78,14c-40.53,7.01-65.87,10.94-84,15
			c-2.07,0.46-9.69,2.19-20,4c-10.31,1.81-17.93,2.75-20,3c-8.13,0.98-14.08,1.45-22,2c-8.19,0.57-14.23,0.9-22,1
			c-4.73,0.06-6.21-0.09-21,0c-6.76,0.04-8,0.09-11,0c-7.98-0.23-11.92-0.92-22-2c-12.46-1.34-10.99-0.77-22-2
			c-11.47-1.28-19.9-2.65-22-3c-3.06-0.51-3.42-0.6-21-4c-16.21-3.13-17.08-3.28-20-4c-4.94-1.22-9.96-2.82-20-6
			c-10.12-3.21-15.19-4.82-21-7c-4.1-1.54-10.73-4.05-19-8c-9.28-4.44-17.01-8.13-26-15c-8.36-6.39-13.84-12.49-16-15
			c-5.48-6.36-8.87-11.87-12-17c-4.92-8.07-8.07-14.75-10-19c-7.14-15.68-11.82-29-16-41c-13.54-38.86-12.51-36.44-16-46
			c-9.37-25.65-10.66-26.25-15-40c-4.86-15.41-3.43-15.25-11-48c-4.4-19.03-9-36.91-17-68c-0.88-3.41-2.69-10.44-5-20
			c-2.86-11.86-4.63-19.93-6-26c-4.01-17.78-7.05-29.27-10-41c-8.71-34.63-21.5-90.81-25-106c-17.52-76.09-51-206.43-96-391
			c-47.85-196.23-78.07-328.04-89-370c-4.15-15.92-8.17-29.08-12-50c-1.22-6.66-3.15-18.09-7-34c-2.32-9.6-4.39-16.65-5-19
			c-9.84-37.76-16.76-66.52-20-80c-17.57-73.18-19.77-84.31-29-122c-8.76-35.75-11.33-44.32-26-101
			c-29.1-112.44-25.02-102.16-42-166c-22.08-83.05-31.23-108.94-49-181c-9.87-40.03-16-66-16-66c-9.92-42.04-13.87-61.03-19-81
			c-0.99-3.84-2.87-10.98-5-21c-1.92-9.01-1.97-10.62-4-20c-1.2-5.53-2.47-10.68-5-21c-1.1-4.46-1.39-5.6-5-20
			c-2.89-11.52-4.33-17.28-5-20c-1.59-6.45-3.59-14.6-6-25c-3.07-13.26-2.79-12.91-5-22c-2.38-9.81-2.86-10.86-5-20
			c-1.95-8.3-2.15-9.98-4-18c-1.55-6.7-3.21-13.36-5-20l-2-10l-4-18l-4-22l-3-19l-2-13l-5-20l-9-38l-27-123l-7-37l-8-41
			c-2.48-18.74-5.06-32.63-7-42c-1.19-5.75-2.53-11.7-4-21c-1.42-8.97-1.56-12.29-3-21c-1.57-9.51-3.16-16.27-4-20
			c-4.74-21.01-6.65-38.34-11-62c-2.41-13.11-6.27-29.08-14-61c-8.5-35.13-12.75-52.7-18-69c-5.26-16.35-12.62-36.45-23-59
			c-5.6-8.17-14.09-19.32-26-31c-16.72-16.4-31.55-25.39-51-37c-35.17-21-64.56-32.19-75-36c-19.44-7.1-36.95-13.49-62-17
			c-4.26-0.6-25.3-3.43-53-2c-16.95,0.88-29.97,3.02-42,5c-12.34,2.03-24.68,4.53-43,9c-19.52,4.76-46.03,11.8-78,22l-190,50
			c-95.51,25.87-165.04,45.64-178,50c-8.77,2.95-17,6-17,6c-5.81,2.1-11.82,4.42-18,7c-6.43,2.68-10.28,4.56-20,9
			c-9.26,4.23-12.65,5.69-20,9c-17.42,7.85-44.47,20.39-73,34c-21.7,10.35-24.62,11.96-36,17c-3.68,1.63-18.63,8.22-39,16
			c-23.35,8.92-33.54,11.65-39,13c-4.1,1.02-11.11,2.64-20,4c-7.48,1.15-12.72,1.95-20,2c-10.24,0.07-18.02-1.39-21-2
			c-8.61-1.77-15.21-4.35-19-6c-1.94-0.84-9.79-4.33-19-11c-6.21-4.5-10.31-8.46-15-13c-3.19-3.09-8.02-7.97-14-15
			c-14.44-16.98-24.46-33.45-26-36c-10.68-17.7-16.15-31.37-26-56c-6.86-17.14-10.31-25.78-14-39c-3.8-13.61-8.37-30.42-9-53
			c-0.43-15.33,1.1-28.62,3-39c2.88-15.75,6.99-26.77,12-40c5.37-14.19,12.48-32.69,26-55c15.71-25.92,31.07-42.09,38-49
			c17.51-17.46,27-21.49,31-23c13.4-5.06,25.36-4.52,37-4c3.71,0.17,10.1,0.6,40,7c28.68,6.14,27.57,6.76,41,9
			c8.08,1.34,19.05,2.56,41,5c15,1.67,25.94,2.79,28,3c25.86,2.69,37.01,5.85,82,14c41.75,7.57,55.82,9.22,63,10
			c26.48,2.88,43.38,3.03,62-3c16.26-5.26,25.08-12.4,27-14c5.04-4.19,14.1-12.92,23-34c8.2-19.43,11.09-37.07,13-58
			c2.04-22.32,4.4-48.28,1-84c-0.97-10.14-5.36-52.16-24-104c-2.41-6.71-13.28-29.81-35-76c-13.27-28.21-20.84-43.69-36-61
			c-5.23-5.97-15.14-17.51-31-28c-3.65-2.41-3.49-2.05-17-10c-19.51-11.48-29.27-17.22-34-21c-5.75-4.59-18.03-14.6-26-31
			c-5.24-10.78-6.23-20.34-8-39c-1.78-18.85-1.49-34.03-1-60c0.01-0.75,0.37-19.37-1-41c-0.24-3.78-0.74-10.95-3-20
			c-1.26-5.04-2.91-11.48-7-19c-3.27-6.01-6.6-9.96-10-14c-5.78-6.86-11.14-11.6-14-14c-13.39-11.22-26.39-16.66-37-21
			c-7.7-3.15-5.63-1.74-20-7c-18.34-6.72-23.29-9.61-38-15c-11.47-4.2-20.08-6.7-28-9c-23.18-6.72-33.61-7.48-80-16
			c-18.33-3.37-37.18-7.01-61-14c-21.49-6.31-29.69-10.25-37-17c-1.09-1-18.81-18.27-20-42c-0.27-5.29,0.24-11.96,1-22
			c0.36-4.75,0.84-10.99,2-19c1.43-9.88,3.13-17.25,4-21c2.98-12.77,7.92-33.98,20-59c7.7-15.95,12.54-25.96,23-37
			c7.55-7.97,16.64-18.02,32-23c11.23-3.64,21.64-3.31,26-3c4.55,0.33,10.09,1.56,21,4c8.54,1.91,17.58,4.09,21,5
			c23.99,6.42,57.04,24.5,76,35c31.66,17.52,47.48,26.29,54,30c31.61,18.02,52.82,30.92,73,44c7.76,5.03,12,7.79,18,12
			c24.14,16.96,40.56,32.09,48,39c39.6,36.77,65.68,63.74,94,90c0,0,25.53,24.72,64,55c3.4,2.67,9.17,7.09,17,12
			c6.12,3.84,11.63,6.82,18,10c16.13,8.06,26,12.99,39,17c15.31,4.73,26.83,5.68,44,7c12.48,0.96,34.1,1.9,61-1
			c4.97-0.54,28.91-3.23,60-12c17.59-4.96,36.32-10.25,59-22c20.69-10.72,36.34-18.32,51-35c5.67-6.45,20.47-22.62,24-43
			c0.63-3.66,1.58-11.36,2-20c0.36-7.41,0.21-13.17,0-21c-0.14-5.41-0.42-12.56-1-21c-1.32-6.99-2.65-13.99-4-21
			c-3.64-18.98-5.67-29.56-8-41c-5.05-24.81-5.28-23.12-9-42c-2.9-14.71-5.14-26.23-7-42c-2.49-21.11-2.21-32.18-1-42
			c1.51-12.23,3.97-18.55,5-21c2.74-6.55,7.23-14.23,16-23c18.98-18.97,44.61-29.62,53-33c29.78-12,51.63-12.85,84-24
			c5.09-1.75,11.89-4.25,20-8c9.6-4.44,15.65-8.13,24-13c13.55-7.9,27.37-15.52,36-20c4.36-2.26,8.54-4.32,38-17
			c3.31-1.42,25.25-10.86,62-26c13.25-5.46,23.86-9.78,39-14c5.54-1.54,12.27-3.55,21-5c10.29-1.71,18.15-1.95,21-2
			c7.07-0.13,12.25-0.23,19,1c10.74,1.96,18.42,6.01,24,9c7.67,4.11,12.85,8.18,19,13c7.44,5.84,12.67,10.79,15,13
			c22.82,21.73,28.25,29.99,45,45c8.07,7.24,14.21,11.94,26,21c16.6,12.75,20.07,14.21,36,26c22.79,16.87,34.19,25.3,45,38
			c6.42,7.54,15.25,18.08,22,34c2.97,7.01,4.69,13.07,11,60c2.93,21.82,4.4,32.74,5,40c1.22,14.79,0.8,18.38,2,55
			c0.75,22.83,1.14,34.4,2,42c2.95,25.96,9.18,44.61,11,50c4.3,12.74,9.26,22.66,19,42c10.02,19.89,18.95,35.83,30,55
			c12.69,22.01,19.36,33,33,56c30.01,50.6,45.16,76.22,52,92c2.24,5.17,12.89,30.01,23,64c7.55,25.37,6.02,26.32,11,41
			c10.38,30.6,25.24,50.66,44,76c20.77,28.05,39.6,46.8,55,62c24.66,24.35,43.08,38.52,49,43c28.23,21.36,45.78,29.33,52,32
			c13.22,5.67,28,10,28,10c4.93,1.33,11.78,3.11,20,5c0,0,9.66,2.22,19,4c27.07,5.17,67,5,67,5c9.96-0.04,49.05-0.2,82,4
			c43.88,5.6,76.42,18.88,111,33c28.14,11.49,49.21,19.27,74,36c4.57,3.08,14.38,10.39,34,25c38.5,28.67,38.73,29.8,50,37
			c10.32,6.59,28.72,18.2,55,28c23.16,8.64,41.83,11.92,54,14c27.68,4.73,49.14,4.93,62,5c58.81,0.3,108.71-1.46,124-2
			c91.64-3.21,113.38-3.15,127-3c30.53,0.33,61.29,2.04,81,3c29.78,1.45,44.67,2.18,64,4c30.09,2.83,53.93,5.07,84,12
			c20.23,4.66,53.62,12.56,92,32c21.56,10.92,37.37,21.95,69,44c27.27,19.02,41.92,31.23,70,46c15.36,8.08,28.46,13.62,37,17
			c13.33,4.17,32.11,9.27,55,13c32.79,5.34,57.97,5.23,84,5c41.05-0.36,59.71-5.58,86-6c2.74-0.04,10.69-0.12,21-2
			c2.32-0.42,9.64-1.83,19-5c2.44-0.83,11.33-3.84,19-8c4.86-2.64,13.23-7.9,30-28c14.53-17.42,23-31,23-31
			c18.04-28.93,28.43-54.78,38-77c15.84-36.77,26.73-62.05,45-93c13.78-23.35,26.73-44.96,50-69c22.02-22.74,42.22-36.23,48-40
			c30.61-19.95,57.05-28.12,89-38c23.86-7.38,38.99-12.05,61-14c36.73-3.25,58.44,1.79,66,4c6.08,1.78,11.05,3.85,21,8
			c37.47,15.62,44.81,24.25,75,36c14.04,5.46,24.23,9.34,39,11c10.61,1.19,22.53,1.11,40-2c9.06-1.61,35.35-6.85,77-27
			c14.66-7.1,41.12-20.82,72-43c22.16-15.91,41.54-29.83,62-53c8.94-10.12,21.29-29.08,46-67c6.18-9.48,26.26-40.44,52-65
			c7.31-6.98,17.1-15.36,31-18c6.73-1.28,14.05-1.15,22-1c7.84,0.14,13.61,0.28,21,2c5.44,1.26,9.96,3.18,19,7
			c5.52,2.34,11.54,4.9,19,9c0,0,7.75,4.26,16,10c12.29,8.55,38.72,27.32,65,59c15.61,18.81,15.46,23.11,44,69
			c6.49,10.44,23.66,36.29,58,88c50.05,75.36,41.74,62.07,58,87c35.93,55.1,39.96,63.99,59,88c22.71,28.63,35.59,44.6,59,61
			c32.88,23.03,64.81,31.69,80,35c7,1.53,18.4,3.65,42,5c28.26,1.61,58,1.19,128-6c43.93-4.51,68.45-7.03,104-13
			c34.95-5.87,58.04-9.74,89-19c10.39-3.11,14.43-4.66,79-29c45.24-17.06,68.08-25.63,79-28c20.39-4.42,51.41-8.25,92-2"/>
		<path class="st6" d="M7681.5,5243.5c1.36,9.27,2.69,18.61,4,28c1.66,11.89,2.18,16.16,3,22c0.69,4.92,2.51,17.41,7,41
			c4.16,21.86,12.53,63.38,24,117c10.33,47,20.67,94,31,141c1.67,6.33,3.33,12.67,5,19c3.33,15.18,8.45,38.49,15,68
			c0.52,2.32,1.71,7.68,2,9c14.18,63.76,55.13,257.95,84,382c7.99,34.34,16,68,16,68c6.36,26.72,11.39,47.52,19,79
			c9.88,40.84,13.41,55.18,21,87c4.8,20.12,5.63,24.12,9,38c8.29,34.17,14.92,59.11,17,67c18.79,71.24,42.02,175.18,67,277
			c8.05,32.79,14.89,59.72,17,68c4.79,18.8,8.38,32.6,9,35c14.43,55.61,45.69,191.28,68,284c31.06,129.09,75.93,304.39,80,320
			c0.46,1.76,2.49,9.49,5,20c2.7,11.28,4.49,19.62,5,22c5.36,24.74,12.63,49.33,23,93c4.3,18.09,7.58,32.93,14,62
			c1.75,7.91,2.8,12.72,9,41c0.28,1.29,4.54,20.68,9,41l7.36,33.39"/>
		<polyline class="st6" points="7253.29,7338.79 7586.5,7258.5 8080.5,7136.5 8112.5,7128.5 		"/>
		<path class="st6" d="M8040.5,7089.5"/>
		<polyline class="st6" points="6534.88,6603.86 6588.5,6589.5 6615.5,6582.5 6636.5,6576.5 6677.5,6565.5 6734.5,6550.5 
			6812.5,6530.5 6870.5,6516.5 6928.5,6501.5 6969.5,6491.5 7020.5,6479.5 7043.85,6474.39 7078.5,6465.5 7114.5,6457.5 
			7133.5,6452.5 7236.5,6428.5 7339.5,6404.5 7419.5,6385.5 7501.5,6366.5 7583.5,6347.5 7604.5,6342.5 7624.5,6337.5 
			7645.5,6332.5 7666.5,6327.5 7727.5,6313.5 7830.5,6289.5 7904.55,6271.38 7946.5,6261.5 7999.5,6248.5 8038.5,6239.5 
			8096.5,6225.5 8158.5,6210.5 8232.5,6192.5 8275.5,6182.5 8331.5,6169.5 8393.5,6155.5 8452.5,6141.5 8515.5,6127.5 
			8556.5,6117.5 8617.5,6103.5 8658.5,6093.5 8719.5,6078.5 8739.5,6075.5 8764.5,6070.5 8784.5,6066.5 8803.5,6062.5 
			8823.5,6060.5 8857.5,6059.5 8865.66,6059.5 8900.5,6060.5 		"/>
		<path class="st6" d="M7068.75,6576.49l64.75-15.99l95-22l57-14l40-9l40-9l20-5l20-4l21-4l19-5l20-4l21-5l21-5l21-4l21-5l20-5l19-4
			l20-4l22-5l20-5l20-4l19-5l64-14l21-4l20-5l20-5l21-5l22-5l40-10l32.59-8.41l35.41-8.59l19-5l20-5l41-9l39-9l20-4l20-6l22-4l20-5
			l21-5l21-5l21-5l21-5l21-5l21-5l19-4l22-5l20-5l20-5l21-5l21-4l24-7l30-6l34-8l33-9l20-5l70-16l20-5l20-5l20-4l20-4l25-4l21-2
			l21-2l21-2l22-5l20-6l20-8l19-9l21-10l36,25c8.51,7.59,19.88,17.05,34,27c14.07,9.92,25.44,16.5,35,22
			c14.76,8.49,26.21,14.18,40,21c19.96,9.87,35.2,16.74,38,18c62.41,28.16,143.96,69.71,249,117c19.18,8.64,38,17,38,17
			c42.24,18.77,59.63,26.06,82,36c9,4,12.22,5.51,95,45c59.07,28.18,76.52,36.52,107,51c35.65,16.93,53.48,25.4,57,27
			c41.91,19.04,86.04,37.32,120,55c11.72,6.1,19,10,19,10c23.64,12.65,27.81,15.69,37,20c15.78,7.4,28.69,10.27,41,13
			c14.26,3.17,29.72,4.66,57,6c23.31,1.15,50.98,2.51,84-3c19.8-3.3,55.78-9.65,94-33c34.27-20.93,53.28-45.1,76-74
			c14.75-18.76,37.28-47.85,55-92c16.75-41.73,20.88-76.16,23-95c3.48-30.88,5.68-83.08-10-144c-13.02-50.56-32.86-85.79-51-118
			c-10.26-18.22-19.71-34.83-36-55c-11.81-14.63-35.95-44.06-73-67c-19.68-12.18-58.69-32.23-66-36c-13.5-6.96-14.58-7.22-72-36
			c-21.38-10.72-26.17-13.14-38-19c-22.5-11.14-31.6-15.43-57-28c-20.85-10.32-23.63-11.87-38-19c-34.55-17.13-61.61-29.5-89-42
			c-36.94-16.85-32.12-13.99-76-34c0,0-34.92-15.92-74-35c0,0-16.03-7.82-39-20c-2.98-1.58-9.55-5.07-18-10
			c-10.15-5.91-15.35-8.97-22-14c-3.25-2.46-9.24-7.2-16-14c-4.61-4.64-8.63-8.66-13-15c-6.14-8.9-9.13-16.66-10-19
			c-0.86-2.31-1.28-3.77-5-20c-4.03-17.55-4.01-17.91-5-21c-1.9-5.91-4.66-12.97-9-21c-3.33-6.15-4.58-6.8-11-18
			c-5.47-9.54-6.23-11.82-10-17c-5.52-7.58-11.06-12.53-15-16c-5.5-4.85-9.99-7.91-16-12c-6.18-4.2-10.97-7.03-16-10
			c-1.97-1.16-8.61-5.06-18-10c-8.1-4.26-14.53-7.35-18-9c-31.86-15.13-76-34-76-34c-24.59-10.51-38.36-16.4-59-25
			c-29.5-12.3-52.41-21.55-61-25c-17.53-7.03-47.17-18.9-73.91-29.67c-20.82-8.38-39.89-16.1-50.09-20.33
			c-28.9-11.99-43.58-18.2-57-24c-17.94-7.75-20.63-9.13-39-17c-24.2-10.37-29.42-12.27-57-24c-17.63-7.5-31.62-13.58-51-22
			c-26.94-11.71-25.87-11.39-39-17c-19.05-8.14-36.81-15.74-58-24c-19.55-7.62-33.35-12.43-58-21c-20.37-7.08-47.88-16.42-81-27
			l-42-14"/>
		<path class="st6" d="M7864.5,6106.5c12.6-3.46,31.61-8.51,55-14c16.7-3.92,18.83-4.13,50-11c28.44-6.27,50.58-11.37,75-17
			c12.55-2.89,32.85-7.19,43-10c0.19-0.05,5.21-1.45,12-3c6.04-1.38,8.78-1.82,10-2c4.77-0.72,8.72-0.92,11-1
			c1.93-0.07,2.12-0.01,10,0c4.85,0.01,6.18-0.01,7,0c8.21,0.08,16,3.08,21,5c4.74,1.82,11.48,4.47,19,10
			c8.56,6.29,13.46,12.89,18,19c1.03,1.39,5.99,8.13,11,18c2.8,5.52,4.54,10.02,8,19c3.17,8.21,5.1,13.24,7,20
			c2.1,7.48,2.86,12.5,4,19c1.42,8.12,3.63,19.66,7,34"/>
		<polyline class="st6" points="7361.5,7312.71 7349.5,7258.5 7318.5,7132.5 7287.5,7008.5 7219.5,6742.5 7175.45,6550.79 
			7153.79,6447.77 		"/>
		<path class="st6" d="M7763.4,5647.44l55.1-12.94l384-76c69.61-14.68,122.32-25.97,145-31c7.1-1.58,12.17-2.74,22-5
			c23.23-5.34,34.97-8.05,41-10c10.93-3.54,24.2-7.94,39-18c6.54-4.44,11.1-8.44,14-11c6.74-5.95,17.44-15.53,27-31
			c5.61-9.07,12.76-20.93,15-38c1.23-9.39,0.31-17.93,0-21c-1.01-10.02-3.21-17.32-4-20c-5.48-18.53-12.8-43.3-15-65
			c-1.29-12.7-4.4-43.35,12-68c4.25-6.39,10.33-13.14,12-15c8.85-9.84,16.89-16.39,30-27c4.45-3.6,10.56-8.43,18-14l32-28
			c-2.63-23.17-7.04-42.09-11-56c-5.89-20.69-12.04-34.67-14-39c-3.99-8.84-7.67-15.6-9-18c-4.39-7.95-8.23-13.57-11-18
			c-12.28-19.64-18.42-29.46-25-37c-3.04-3.49-14.81-16.65-31-26c-9.31-5.38-16.3-7.32-19-8c-3.24-0.82-6.16-1.21-12-2
			c-6.99-0.94-13.44-1.82-22-2c-2.28-0.05-10.36-0.17-21,1c-6.14,0.67-6.06,1-19,3c-7.9,1.22-9.16,1.29-21,3
			c-4.18,0.6-8.72,1.27-20,3c-30.87,4.72-46.3,7.08-63,10c-2.64,0.46-10.06,1.77-22,4c-33.73,6.31-61.43,12.17-103,21
			c-68.58,14.57-61.9,13.22-80,17c-37.82,7.89-41.58,8.47-62,13c-34.03,7.56-36.87,8.91-62,14c-27.2,5.51-40.8,8.31-53,10
			c-10.21,1.42-23.7,2.98-42,8c-8.32,2.28-14.39,4.4-19,6c-25.62,8.88-44.05,18.52-62,28c-20.65,10.91-32.41,18.62-36,21
			c-7.07,4.69-12.85,8.88-17,12"/>
		<path class="st6" d="M8014.23,6721.73c13.55-3.42,32.48-8.07,55.27-13.23c18.26-4.14,31.97-7.02,51-11
			c27.44-5.75,43.09-9.02,64-13c42.28-8.04,53.22-8.89,84-16c4.52-1.04,16.79-2.39,32-8c6.21-2.29,11.75-4.79,18-8
			c5.8-2.98,22.03-11.58,57-38c8.26-6.24,20.08-15.37,34-27c9.7-8.1,16.46-14.4,30-27c8.87-8.26,12.96-12.32,17-19
			c1.88-3.1,3-5.54,9-19c3.49-7.83,5.26-11.73,8-18c1.64-3.75,3.52-8,16-35c16.77-36.29,15.85-33.99,18-39
			c9.7-22.59,5.59-16.26,15-39c1.86-4.49,4.58-10.93,6-20c0.84-5.39,0.91-9.66,1-16c0.11-7.37,0.2-13.8-1-21
			c-1.44-8.59-4.07-14.38-6-19c-3.6-8.62-8.17-21.4-12-39"/>
		<line class="st6" x1="8503.5" y1="6242.5" x2="8510.54" y2="6276.69"/>
		<path class="st6" d="M9122.5,5366.5c-12.3,29.21-9.16,23.2-16,40c-14.36,35.23-20.15,50.35-32,76c-6.35,13.74-15.18,32.14-18,38
			c-8.64,17.99-11.89,24.1-19,39c-6.55,13.72-10.94,23.42-18,39c-7.94,17.51-13.86,30.94-24,54c-16.58,37.73-15.88,36.65-25,57
			c-8.03,17.92-10.32,22.63-17,38c-4.12,9.48-8.08,18.99-16,38c-3.03,7.28-5.24,12.63-8,20c-2.06,5.51-3.74,10.42-7,20
			c-4.96,14.55-7.47,21.95-9,28c-1.25,4.95-2.17,9.63-4,19c-0.81,4.13-2.31,11.92-4,22c-1.62,9.7-2.43,14.55-3,20
			c-1.01,9.72-1,17.1-1,21c0.01,7.3-0.07,58.82,0,70c0.09,12.92-0.02,31.78-1,55l-4,86"/>
		<polyline class="st6" points="8888.5,7481.5 8952.5,7339.5 9010.5,7218.5 9082.5,7068.5 9128.5,6973.5 9194.5,6830.5 
			9265.5,6682.5 9331.5,6551.5 9383.5,6439.5 9397.84,6407.34 		"/>
		<path class="st6" d="M9507.5,7881.5l-266-136l-88-43c-2.38-1.21-5.83-2.94-10-5c-9.79-4.83-14.69-7.25-19-9
			c-3.87-1.57-8.91-3.05-19-6c-9.68-2.83-14.78-4.33-22-6c-8.94-2.07-8.98-1.51-21-4c-10.76-2.23-10.89-2.68-22-5
			c-9.62-2.01-11.45-2.07-21-4c-7.37-1.49-12.66-2.78-22-5c-9.58-2.28-14.38-3.42-20-5c-5.37-1.51-11.36-3.21-19-6
			c-6.15-2.25-11.83-4.31-19-8c-4.53-2.33-11.28-5.84-19-12c-4.45-3.55-10.22-8.76-16-16"/>
		<path class="st6" d="M10077.5,5939.5l-320.85,634.87c-133.3,282.56-194.13,411.99-224.15,476.13c-11.11,23.74-43.07,92.11-91,180
			c-20.42,37.45-29.43,54.14-37,66c-3,4.69-7.28,11.25-13,21c-12.65,21.56-20.43,38.44-23,44c-21.31,45.99-44.9,90.91-66,137
			c-18.47,40.34-45.58,98.47-82,173l-27.79,50.16"/>
	</g>
	<g id="城市道路路面">
		<path class="st7" d="M6132.5,5372.5l104-27c0,0,6,2,35-14s40-22,40-22l70-33c0,0,51-20,59-22s23-8,33-10s21-4,21-4s28-5,42-6
			s41-3,41-3s22-2,41-4s64-10,64-10l17-3l76-17l54-12l61-12l42-9c9.81-1.41,25.13-3.72,44-7c18.6-3.23,22.07-4.18,39-7
			c5.75-0.96,12.07-1.97,47-7c22.33-3.22,33.5-4.83,42-6c22.01-3.04,31.84-4.18,62-8c30.12-3.82,22.83-3,85-11
			c39.1-5.03,51.82-6.62,63-8c27.27-3.36,41.28-5.08,60-7c19.67-2.02,37.48-3.85,57-5c21.85-1.29,52.13-2.1,89,0l20,7l23,14l17,12
			l18,10"/>
		<path class="st7" d="M7295.5,7511.5l-35,9l-162,39c-0.01,0-0.03,0.01-0.06,0.02c-1.15,0.32-17.11,4.76-21.94,5.98
			c-5.74,1.45-6.21,1.47-21,5c-14.4,3.44-14.87,3.63-21,5c-7.19,1.61-7.01,1.44-19,4c-11.77,2.51-12.57,2.8-23,5
			c-9.55,2.01-14.32,3.02-20,4c-9.35,1.6-16.48,2.46-21,3c-9.04,1.07-16.39,1.67-21,2c-3.77,0.27-11.33,0.76-21,1
			c-9.39,0.23-16.32,0.12-23,0c-11.42-0.2-17.14-0.3-23-1c-6.41-0.76-12.4-1.5-20-4c-8.98-2.95-15.25-6.71-19-9
			c-3.5-2.13-9.96-6.36-17-13c-4.82-4.54-7.88-8.36-14-16c-3.99-4.97-7.62-9.5-12-16c-6.53-9.68-10.81-17.92-15-26
			c-2.15-4.14-3.85-7.61-5-10l-12-39l-14-62l-90-365l-27-107l-21-85l-48-185l-15-54l-23-84l-55-190l-30-99l-31-95l-8-20c0,0-3-6-7-9
			s-8-8-8-8l-7-19l-23-77l-66-262l-47-198.98l-12-49.02l-46-167"/>
		<path class="st7" d="M8779.5,7555.5c-8.16-0.66-15.28-0.47-21,0c-11.6,0.95-20.23,3.23-23,4c-7.01,1.96-12.15,4.12-19,7
			c-4.5,1.89-10.99,4.64-19,9c-3.86,2.1-4.08,2.41-18,11c-6.77,4.18-11.65,7.19-18,11c-2.75,1.65-7.54,4.46-17,10
			c-15.35,9-16.78,9.8-19,11c-7.76,4.19-14.15,7.23-18,9c-5.06,2.33-9.79,4.2-19,8c-18.74,7.73-23.62,9.28-26,10
			c-2.58,0.79-8.38,2.19-20,5c-11.38,2.75-12.04,2.8-21,5c-13.76,3.38-13.32,3.55-20,5c-8.05,1.74-10.02,1.78-22,4
			c-11.11,2.06-11.38,2.46-20,4c-11.69,2.08-18.31,2.82-41,6c-10.08,1.41-15.12,2.12-21,3c-16.78,2.51-19.44,3.26-42,7
			c-17.5,2.9-39.29,6.33-50,9c-0.01,0-4.58,1.15-12,3c-3.42,0.85-7.97,1.99-8,2c-9.82,2.45-22.68,5.07-33.64,7.39
			c-11.33,2.39-21.57,4.59-34.36,7.61c-8.58,2.03-11.21,2.8-20,5c-33.37,8.36-56.53,12.59-121,25c-22.99,4.43-41,7.92-62,12
			c-50.91,9.88-60.34,11.79-83,16c-6.63,1.23-24.84,4.5-61,11c-50.71,9.11-76.06,13.66-78,14c-40.53,7.01-65.87,10.94-84,15
			c-2.07,0.46-9.69,2.19-20,4c-10.31,1.81-17.93,2.75-20,3c-8.13,0.98-14.08,1.45-22,2c-8.19,0.57-14.23,0.9-22,1
			c-4.73,0.06-6.21-0.09-21,0c-6.76,0.04-8,0.09-11,0c-7.98-0.23-11.92-0.92-22-2c-12.46-1.34-10.99-0.77-22-2
			c-11.47-1.28-19.9-2.65-22-3c-3.06-0.51-3.42-0.6-21-4c-16.21-3.13-17.08-3.28-20-4c-4.94-1.22-9.96-2.82-20-6
			c-10.12-3.21-15.19-4.82-21-7c-4.1-1.54-10.73-4.05-19-8c-9.28-4.44-17.01-8.13-26-15c-8.36-6.39-13.84-12.49-16-15
			c-5.48-6.36-8.87-11.87-12-17c-4.92-8.07-8.07-14.75-10-19c-7.14-15.68-11.82-29-16-41c-13.54-38.86-12.51-36.44-16-46
			c-9.37-25.65-10.66-26.25-15-40c-4.86-15.41-3.43-15.25-11-48c-4.4-19.03-9-36.91-17-68c-0.88-3.41-2.69-10.44-5-20
			c-2.86-11.86-4.63-19.93-6-26c-4.01-17.78-7.05-29.27-10-41c-8.71-34.63-21.5-90.81-25-106c-17.52-76.09-51-206.43-96-391
			c-47.85-196.23-78.07-328.04-89-370c-4.15-15.92-8.17-29.08-12-50c-1.22-6.66-3.15-18.09-7-34c-2.32-9.6-4.39-16.65-5-19
			c-9.84-37.76-16.76-66.52-20-80c-17.57-73.18-19.77-84.31-29-122c-8.76-35.75-11.33-44.32-26-101
			c-29.1-112.44-25.02-102.16-42-166c-22.08-83.05-31.23-108.94-49-181c-9.87-40.03-16-66-16-66c-9.92-42.04-13.87-61.03-19-81
			c-0.99-3.84-2.87-10.98-5-21c-1.92-9.01-1.97-10.62-4-20c-1.2-5.53-2.47-10.68-5-21c-1.1-4.46-1.39-5.6-5-20
			c-2.89-11.52-4.33-17.28-5-20c-1.59-6.45-3.59-14.6-6-25c-3.07-13.26-2.79-12.91-5-22c-2.38-9.81-2.86-10.86-5-20
			c-1.95-8.3-2.15-9.98-4-18c-1.55-6.7-3.21-13.36-5-20l-2-10l-4-18l-4-22l-3-19l-2-13l-5-20l-9-38l-27-123l-7-37l-8-41
			c-2.48-18.74-5.06-32.63-7-42c-1.19-5.75-2.53-11.7-4-21c-1.42-8.97-1.56-12.29-3-21c-1.57-9.51-3.16-16.27-4-20
			c-4.74-21.01-6.65-38.34-11-62c-2.41-13.11-6.27-29.08-14-61c-8.5-35.13-12.75-52.7-18-69c-5.26-16.35-12.62-36.45-23-59
			c-5.6-8.17-14.09-19.32-26-31c-16.72-16.4-31.55-25.39-51-37c-35.17-21-64.56-32.19-75-36c-19.44-7.1-36.95-13.49-62-17
			c-4.26-0.6-25.3-3.43-53-2c-16.95,0.88-29.97,3.02-42,5c-12.34,2.03-24.68,4.53-43,9c-19.52,4.76-46.03,11.8-78,22l-190,50
			c-95.51,25.87-165.04,45.64-178,50c-8.77,2.95-17,6-17,6c-5.81,2.1-11.82,4.42-18,7c-6.43,2.68-10.28,4.56-20,9
			c-9.26,4.23-12.65,5.69-20,9c-17.42,7.85-44.47,20.39-73,34c-21.7,10.35-24.62,11.96-36,17c-3.68,1.63-18.63,8.22-39,16
			c-23.35,8.92-33.54,11.65-39,13c-4.1,1.02-11.11,2.64-20,4c-7.48,1.15-12.72,1.95-20,2c-10.24,0.07-18.02-1.39-21-2
			c-8.61-1.77-15.21-4.35-19-6c-1.94-0.84-9.79-4.33-19-11c-6.21-4.5-10.31-8.46-15-13c-3.19-3.09-8.02-7.97-14-15
			c-14.44-16.98-24.46-33.45-26-36c-10.68-17.7-16.15-31.37-26-56c-6.86-17.14-10.31-25.78-14-39c-3.8-13.61-8.37-30.42-9-53
			c-0.43-15.33,1.1-28.62,3-39c2.88-15.75,6.99-26.77,12-40c5.37-14.19,12.48-32.69,26-55c15.71-25.92,31.07-42.09,38-49
			c17.51-17.46,27-21.49,31-23c13.4-5.06,25.36-4.52,37-4c3.71,0.17,10.1,0.6,40,7c28.68,6.14,27.57,6.76,41,9
			c8.08,1.34,19.05,2.56,41,5c15,1.67,25.94,2.79,28,3c25.86,2.69,37.01,5.85,82,14c41.75,7.57,55.82,9.22,63,10
			c26.48,2.88,43.38,3.03,62-3c16.26-5.26,25.08-12.4,27-14c5.04-4.19,14.1-12.92,23-34c8.2-19.43,11.09-37.07,13-58
			c2.04-22.32,4.4-48.28,1-84c-0.97-10.14-5.36-52.16-24-104c-2.41-6.71-13.28-29.81-35-76c-13.27-28.21-20.84-43.69-36-61
			c-5.23-5.97-15.14-17.51-31-28c-3.65-2.41-3.49-2.05-17-10c-19.51-11.48-29.27-17.22-34-21c-5.75-4.59-18.03-14.6-26-31
			c-5.24-10.78-6.23-20.34-8-39c-1.78-18.85-1.49-34.03-1-60c0.01-0.75,0.37-19.37-1-41c-0.24-3.78-0.74-10.95-3-20
			c-1.26-5.04-2.91-11.48-7-19c-3.27-6.01-6.6-9.96-10-14c-5.78-6.86-11.14-11.6-14-14c-13.39-11.22-26.39-16.66-37-21
			c-7.7-3.15-5.63-1.74-20-7c-18.34-6.72-23.29-9.61-38-15c-11.47-4.2-20.08-6.7-28-9c-23.18-6.72-33.61-7.48-80-16
			c-18.33-3.37-37.18-7.01-61-14c-21.49-6.31-29.69-10.25-37-17c-1.09-1-18.81-18.27-20-42c-0.27-5.29,0.24-11.96,1-22
			c0.36-4.75,0.84-10.99,2-19c1.43-9.88,3.13-17.25,4-21c2.98-12.77,7.92-33.98,20-59c7.7-15.95,12.54-25.96,23-37
			c7.55-7.97,16.64-18.02,32-23c11.23-3.64,21.64-3.31,26-3c4.55,0.33,10.09,1.56,21,4c8.54,1.91,17.58,4.09,21,5
			c23.99,6.42,57.04,24.5,76,35c31.66,17.52,47.48,26.29,54,30c31.61,18.02,52.82,30.92,73,44c7.76,5.03,12,7.79,18,12
			c24.14,16.96,40.56,32.09,48,39c39.6,36.77,65.68,63.74,94,90c0,0,25.53,24.72,64,55c3.4,2.67,9.17,7.09,17,12
			c6.12,3.84,11.63,6.82,18,10c16.13,8.06,26,12.99,39,17c15.31,4.73,26.83,5.68,44,7c12.48,0.96,34.1,1.9,61-1
			c4.97-0.54,28.91-3.23,60-12c17.59-4.96,36.32-10.25,59-22c20.69-10.72,36.34-18.32,51-35c5.67-6.45,20.47-22.62,24-43
			c0.63-3.66,1.58-11.36,2-20c0.36-7.41,0.21-13.17,0-21c-0.14-5.41-0.42-12.56-1-21c-1.32-6.99-2.65-13.99-4-21
			c-3.64-18.98-5.67-29.56-8-41c-5.05-24.81-5.28-23.12-9-42c-2.9-14.71-5.14-26.23-7-42c-2.49-21.11-2.21-32.18-1-42
			c1.51-12.23,3.97-18.55,5-21c2.74-6.55,7.23-14.23,16-23c18.98-18.97,44.61-29.62,53-33c29.78-12,51.63-12.85,84-24
			c5.09-1.75,11.89-4.25,20-8c9.6-4.44,15.65-8.13,24-13c13.55-7.9,27.37-15.52,36-20c4.36-2.26,8.54-4.32,38-17
			c3.31-1.42,25.25-10.86,62-26c13.25-5.46,23.86-9.78,39-14c5.54-1.54,12.27-3.55,21-5c10.29-1.71,18.15-1.95,21-2
			c7.07-0.13,12.25-0.23,19,1c10.74,1.96,18.42,6.01,24,9c7.67,4.11,12.85,8.18,19,13c7.44,5.84,12.67,10.79,15,13
			c22.82,21.73,28.25,29.99,45,45c8.07,7.24,14.21,11.94,26,21c16.6,12.75,20.07,14.21,36,26c22.79,16.87,34.19,25.3,45,38
			c6.42,7.54,15.25,18.08,22,34c2.97,7.01,4.69,13.07,11,60c2.93,21.82,4.4,32.74,5,40c1.22,14.79,0.8,18.38,2,55
			c0.75,22.83,1.14,34.4,2,42c2.95,25.96,9.18,44.61,11,50c4.3,12.74,9.26,22.66,19,42c10.02,19.89,18.95,35.83,30,55
			c12.69,22.01,19.36,33,33,56c30.01,50.6,45.16,76.22,52,92c2.24,5.17,12.89,30.01,23,64c7.55,25.37,6.02,26.32,11,41
			c10.38,30.6,25.24,50.66,44,76c20.77,28.05,39.6,46.8,55,62c24.66,24.35,43.08,38.52,49,43c28.23,21.36,45.78,29.33,52,32
			c13.22,5.67,28,10,28,10c4.93,1.33,11.78,3.11,20,5c0,0,9.66,2.22,19,4c27.07,5.17,67,5,67,5c9.96-0.04,49.05-0.2,82,4
			c43.88,5.6,76.42,18.88,111,33c28.14,11.49,49.21,19.27,74,36c4.57,3.08,14.38,10.39,34,25c38.5,28.67,38.73,29.8,50,37
			c10.32,6.59,28.72,18.2,55,28c23.16,8.64,41.83,11.92,54,14c27.68,4.73,49.14,4.93,62,5c58.81,0.3,108.71-1.46,124-2
			c91.64-3.21,113.38-3.15,127-3c30.53,0.33,61.29,2.04,81,3c29.78,1.45,44.67,2.18,64,4c30.09,2.83,53.93,5.07,84,12
			c20.23,4.66,53.62,12.56,92,32c21.56,10.92,37.37,21.95,69,44c27.27,19.02,41.92,31.23,70,46c15.36,8.08,28.46,13.62,37,17
			c13.33,4.17,32.11,9.27,55,13c32.79,5.34,57.97,5.23,84,5c41.05-0.36,59.71-5.58,86-6c2.74-0.04,10.69-0.12,21-2
			c2.32-0.42,9.64-1.83,19-5c2.44-0.83,11.33-3.84,19-8c4.86-2.64,13.23-7.9,30-28c14.53-17.42,23-31,23-31
			c18.04-28.93,28.43-54.78,38-77c15.84-36.77,26.73-62.05,45-93c13.78-23.35,26.73-44.96,50-69c22.02-22.74,42.22-36.23,48-40
			c30.61-19.95,57.05-28.12,89-38c23.86-7.38,38.99-12.05,61-14c36.73-3.25,58.44,1.79,66,4c6.08,1.78,11.05,3.85,21,8
			c37.47,15.62,44.81,24.25,75,36c14.04,5.46,24.23,9.34,39,11c10.61,1.19,22.53,1.11,40-2c9.06-1.61,35.35-6.85,77-27
			c14.66-7.1,41.12-20.82,72-43c22.16-15.91,41.54-29.83,62-53c8.94-10.12,21.29-29.08,46-67c6.18-9.48,26.26-40.44,52-65
			c7.31-6.98,17.1-15.36,31-18c6.73-1.28,14.05-1.15,22-1c7.84,0.14,13.61,0.28,21,2c5.44,1.26,9.96,3.18,19,7
			c5.52,2.34,11.54,4.9,19,9c0,0,7.75,4.26,16,10c12.29,8.55,38.72,27.32,65,59c15.61,18.81,15.46,23.11,44,69
			c6.49,10.44,23.66,36.29,58,88c50.05,75.36,41.74,62.07,58,87c35.93,55.1,39.96,63.99,59,88c22.71,28.63,35.59,44.6,59,61
			c32.88,23.03,64.81,31.69,80,35c7,1.53,18.4,3.65,42,5c28.26,1.61,58,1.19,128-6c43.93-4.51,68.45-7.03,104-13
			c34.95-5.87,58.04-9.74,89-19c10.39-3.11,14.43-4.66,79-29c45.24-17.06,68.08-25.63,79-28c20.39-4.42,51.41-8.25,92-2"/>
		<path class="st7" d="M7681.5,5243.5c1.36,9.27,2.69,18.61,4,28c1.66,11.89,2.18,16.16,3,22c0.69,4.92,2.51,17.41,7,41
			c4.16,21.86,12.53,63.38,24,117c10.33,47,20.67,94,31,141c1.67,6.33,3.33,12.67,5,19c3.33,15.18,8.45,38.49,15,68
			c0.52,2.32,1.71,7.68,2,9c14.18,63.76,55.13,257.95,84,382c7.99,34.34,16,68,16,68c6.36,26.72,11.39,47.52,19,79
			c9.88,40.84,13.41,55.18,21,87c4.8,20.12,5.63,24.12,9,38c8.29,34.17,14.92,59.11,17,67c18.79,71.24,42.02,175.18,67,277
			c8.05,32.79,14.89,59.72,17,68c4.79,18.8,8.38,32.6,9,35c14.43,55.61,45.69,191.28,68,284c31.06,129.09,75.93,304.39,80,320
			c0.46,1.76,2.49,9.49,5,20c2.7,11.28,4.49,19.62,5,22c5.36,24.74,12.63,49.33,23,93c4.3,18.09,7.58,32.93,14,62
			c1.75,7.91,2.8,12.72,9,41c0.28,1.29,4.54,20.68,9,41l7.36,33.39"/>
		<polyline class="st7" points="7253.29,7338.79 7586.5,7258.5 8080.5,7136.5 8112.5,7128.5 		"/>
		<path class="st7" d="M8040.5,7089.5"/>
		<polyline class="st7" points="6534.88,6603.86 6588.5,6589.5 6615.5,6582.5 6636.5,6576.5 6677.5,6565.5 6734.5,6550.5 
			6812.5,6530.5 6870.5,6516.5 6928.5,6501.5 6969.5,6491.5 7020.5,6479.5 7043.85,6474.39 7078.5,6465.5 7114.5,6457.5 
			7133.5,6452.5 7236.5,6428.5 7339.5,6404.5 7419.5,6385.5 7501.5,6366.5 7583.5,6347.5 7604.5,6342.5 7624.5,6337.5 
			7645.5,6332.5 7666.5,6327.5 7727.5,6313.5 7830.5,6289.5 7904.55,6271.38 7946.5,6261.5 7999.5,6248.5 8038.5,6239.5 
			8096.5,6225.5 8158.5,6210.5 8232.5,6192.5 8275.5,6182.5 8331.5,6169.5 8393.5,6155.5 8452.5,6141.5 8515.5,6127.5 
			8556.5,6117.5 8617.5,6103.5 8658.5,6093.5 8719.5,6078.5 8739.5,6075.5 8764.5,6070.5 8784.5,6066.5 8803.5,6062.5 
			8823.5,6060.5 8857.5,6059.5 8865.66,6059.5 8900.5,6060.5 		"/>
		<path class="st7" d="M7068.75,6576.49l64.75-15.99l95-22l57-14l40-9l40-9l20-5l20-4l21-4l19-5l20-4l21-5l21-5l21-4l21-5l20-5l19-4
			l20-4l22-5l20-5l20-4l19-5l64-14l21-4l20-5l20-5l21-5l22-5l40-10l32.59-8.41l35.41-8.59l19-5l20-5l41-9l39-9l20-4l20-6l22-4l20-5
			l21-5l21-5l21-5l21-5l21-5l21-5l19-4l22-5l20-5l20-5l21-5l21-4l24-7l30-6l34-8l33-9l20-5l70-16l20-5l20-5l20-4l20-4l25-4l21-2
			l21-2l21-2l22-5l20-6l20-8l19-9l21-10l36,25c8.51,7.59,19.88,17.05,34,27c14.07,9.92,25.44,16.5,35,22
			c14.76,8.49,26.21,14.18,40,21c19.96,9.87,35.2,16.74,38,18c62.41,28.16,143.96,69.71,249,117c19.18,8.64,38,17,38,17
			c42.24,18.77,59.63,26.06,82,36c9,4,12.22,5.51,95,45c59.07,28.18,76.52,36.52,107,51c35.65,16.93,53.48,25.4,57,27
			c41.91,19.04,86.04,37.32,120,55c11.72,6.1,19,10,19,10c23.64,12.65,27.81,15.69,37,20c15.78,7.4,28.69,10.27,41,13
			c14.26,3.17,29.72,4.66,57,6c23.31,1.15,50.98,2.51,84-3c19.8-3.3,55.78-9.65,94-33c34.27-20.93,53.28-45.1,76-74
			c14.75-18.76,37.28-47.85,55-92c16.75-41.73,20.88-76.16,23-95c3.48-30.88,5.68-83.08-10-144c-13.02-50.56-32.86-85.79-51-118
			c-10.26-18.22-19.71-34.83-36-55c-11.81-14.63-35.95-44.06-73-67c-19.68-12.18-58.69-32.23-66-36c-13.5-6.96-14.58-7.22-72-36
			c-21.38-10.72-26.17-13.14-38-19c-22.5-11.14-31.6-15.43-57-28c-20.85-10.32-23.63-11.87-38-19c-34.55-17.13-61.61-29.5-89-42
			c-36.94-16.85-32.12-13.99-76-34c0,0-34.92-15.92-74-35c0,0-16.03-7.82-39-20c-2.98-1.58-9.55-5.07-18-10
			c-10.15-5.91-15.35-8.97-22-14c-3.25-2.46-9.24-7.2-16-14c-4.61-4.64-8.63-8.66-13-15c-6.14-8.9-9.13-16.66-10-19
			c-0.86-2.31-1.28-3.77-5-20c-4.03-17.55-4.01-17.91-5-21c-1.9-5.91-4.66-12.97-9-21c-3.33-6.15-4.58-6.8-11-18
			c-5.47-9.54-6.23-11.82-10-17c-5.52-7.58-11.06-12.53-15-16c-5.5-4.85-9.99-7.91-16-12c-6.18-4.2-10.97-7.03-16-10
			c-1.97-1.16-8.61-5.06-18-10c-8.1-4.26-14.53-7.35-18-9c-31.86-15.13-76-34-76-34c-24.59-10.51-38.36-16.4-59-25
			c-29.5-12.3-52.41-21.55-61-25c-17.53-7.03-47.17-18.9-73.91-29.67c-20.82-8.38-39.89-16.1-50.09-20.33
			c-28.9-11.99-43.58-18.2-57-24c-17.94-7.75-20.63-9.13-39-17c-24.2-10.37-29.42-12.27-57-24c-17.63-7.5-31.62-13.58-51-22
			c-26.94-11.71-25.87-11.39-39-17c-19.05-8.14-36.81-15.74-58-24c-19.55-7.62-33.35-12.43-58-21c-20.37-7.08-47.88-16.42-81-27
			l-42-14"/>
		<path class="st7" d="M7864.5,6106.5c12.6-3.46,31.61-8.51,55-14c16.7-3.92,18.83-4.13,50-11c28.44-6.27,50.58-11.37,75-17
			c12.55-2.89,32.85-7.19,43-10c0.19-0.05,5.21-1.45,12-3c6.04-1.38,8.78-1.82,10-2c4.77-0.72,8.72-0.92,11-1
			c1.93-0.07,2.12-0.01,10,0c4.85,0.01,6.18-0.01,7,0c8.21,0.08,16,3.08,21,5c4.74,1.82,11.48,4.47,19,10
			c8.56,6.29,13.46,12.89,18,19c1.03,1.39,5.99,8.13,11,18c2.8,5.52,4.54,10.02,8,19c3.17,8.21,5.1,13.24,7,20
			c2.1,7.48,2.86,12.5,4,19c1.42,8.12,3.63,19.66,7,34"/>
		<polyline class="st7" points="7361.5,7312.71 7349.5,7258.5 7318.5,7132.5 7287.5,7008.5 7219.5,6742.5 7175.45,6550.79 
			7153.79,6447.77 		"/>
		<path class="st7" d="M7763.4,5647.44l55.1-12.94l384-76c69.61-14.68,122.32-25.97,145-31c7.1-1.58,12.17-2.74,22-5
			c23.23-5.34,34.97-8.05,41-10c10.93-3.54,24.2-7.94,39-18c6.54-4.44,11.1-8.44,14-11c6.74-5.95,17.44-15.53,27-31
			c5.61-9.07,12.76-20.93,15-38c1.23-9.39,0.31-17.93,0-21c-1.01-10.02-3.21-17.32-4-20c-5.48-18.53-12.8-43.3-15-65
			c-1.29-12.7-4.4-43.35,12-68c4.25-6.39,10.33-13.14,12-15c8.85-9.84,16.89-16.39,30-27c4.45-3.6,10.56-8.43,18-14l32-28
			c-2.63-23.17-7.04-42.09-11-56c-5.89-20.69-12.04-34.67-14-39c-3.99-8.84-7.67-15.6-9-18c-4.39-7.95-8.23-13.57-11-18
			c-12.28-19.64-18.42-29.46-25-37c-3.04-3.49-14.81-16.65-31-26c-9.31-5.38-16.3-7.32-19-8c-3.24-0.82-6.16-1.21-12-2
			c-6.99-0.94-13.44-1.82-22-2c-2.28-0.05-10.36-0.17-21,1c-6.14,0.67-6.06,1-19,3c-7.9,1.22-9.16,1.29-21,3
			c-4.18,0.6-8.72,1.27-20,3c-30.87,4.72-46.3,7.08-63,10c-2.64,0.46-10.06,1.77-22,4c-33.73,6.31-61.43,12.17-103,21
			c-68.58,14.57-61.9,13.22-80,17c-37.82,7.89-41.58,8.47-62,13c-34.03,7.56-36.87,8.91-62,14c-27.2,5.51-40.8,8.31-53,10
			c-10.21,1.42-23.7,2.98-42,8c-8.32,2.28-14.39,4.4-19,6c-25.62,8.88-44.05,18.52-62,28c-20.65,10.91-32.41,18.62-36,21
			c-7.07,4.69-12.85,8.88-17,12"/>
		<path class="st7" d="M8014.23,6721.73c13.55-3.42,32.48-8.07,55.27-13.23c18.26-4.14,31.97-7.02,51-11
			c27.44-5.75,43.09-9.02,64-13c42.28-8.04,53.22-8.89,84-16c4.52-1.04,16.79-2.39,32-8c6.21-2.29,11.75-4.79,18-8
			c5.8-2.98,22.03-11.58,57-38c8.26-6.24,20.08-15.37,34-27c9.7-8.1,16.46-14.4,30-27c8.87-8.26,12.96-12.32,17-19
			c1.88-3.1,3-5.54,9-19c3.49-7.83,5.26-11.73,8-18c1.64-3.75,3.52-8,16-35c16.77-36.29,15.85-33.99,18-39
			c9.7-22.59,5.59-16.26,15-39c1.86-4.49,4.58-10.93,6-20c0.84-5.39,0.91-9.66,1-16c0.11-7.37,0.2-13.8-1-21
			c-1.44-8.59-4.07-14.38-6-19c-3.6-8.62-8.17-21.4-12-39"/>
		<line class="st7" x1="8503.5" y1="6242.5" x2="8510.54" y2="6276.69"/>
		<path class="st7" d="M9122.5,5366.5c-12.3,29.21-9.16,23.2-16,40c-14.36,35.23-20.15,50.35-32,76c-6.35,13.74-15.18,32.14-18,38
			c-8.64,17.99-11.89,24.1-19,39c-6.55,13.72-10.94,23.42-18,39c-7.94,17.51-13.86,30.94-24,54c-16.58,37.73-15.88,36.65-25,57
			c-8.03,17.92-10.32,22.63-17,38c-4.12,9.48-8.08,18.99-16,38c-3.03,7.28-5.24,12.63-8,20c-2.06,5.51-3.74,10.42-7,20
			c-4.96,14.55-7.47,21.95-9,28c-1.25,4.95-2.17,9.63-4,19c-0.81,4.13-2.31,11.92-4,22c-1.62,9.7-2.43,14.55-3,20
			c-1.01,9.72-1,17.1-1,21c0.01,7.3-0.07,58.82,0,70c0.09,12.92-0.02,31.78-1,55l-4,86"/>
		<polyline class="st7" points="8888.5,7481.5 8952.5,7339.5 9010.5,7218.5 9082.5,7068.5 9128.5,6973.5 9194.5,6830.5 
			9265.5,6682.5 9331.5,6551.5 9383.5,6439.5 9397.84,6407.34 		"/>
		<path class="st7" d="M9507.5,7881.5l-266-136l-88-43c-2.38-1.21-5.83-2.94-10-5c-9.79-4.83-14.69-7.25-19-9
			c-3.87-1.57-8.91-3.05-19-6c-9.68-2.83-14.78-4.33-22-6c-8.94-2.07-8.98-1.51-21-4c-10.76-2.23-10.89-2.68-22-5
			c-9.62-2.01-11.45-2.07-21-4c-7.37-1.49-12.66-2.78-22-5c-9.58-2.28-14.38-3.42-20-5c-5.37-1.51-11.36-3.21-19-6
			c-6.15-2.25-11.83-4.31-19-8c-4.53-2.33-11.28-5.84-19-12c-4.45-3.55-10.22-8.76-16-16"/>
		<path class="st7" d="M10077.5,5939.5l-320.85,634.87c-133.3,282.56-194.13,411.99-224.15,476.13c-11.11,23.74-43.07,92.11-91,180
			c-20.42,37.45-29.43,54.14-37,66c-3,4.69-7.28,11.25-13,21c-12.65,21.56-20.43,38.44-23,44c-21.31,45.99-44.9,90.91-66,137
			c-18.47,40.34-45.58,98.47-82,173l-27.79,50.16"/>
	</g>
	<g id="转盘路1路面">
		<circle class="st8" cx="7672.25" cy="5168.75" r="58.75"/>
	</g>
	<g id="转盘路2路面">
		<circle class="st8" cx="8857.25" cy="7550.75" r="58.75"/>
	</g>
</g>
<g id="山路_1_">
	<g id="山路中心线">
		<path class="st9" d="M1560,2534l-3,107v92.52l8,47.48l20,47l24,44c7.96,12.14,17.59,26.01,29,41c17.56,23.07,36.9,48.19,67,75
			c16.59,14.77,31.15,25.33,39,31c13.73,9.91,26.07,17.82,43,28c34.4,20.69,58.22,32.89,88,49c56.36,30.49,45.48,26.46,88,49
			c38.44,20.38,56.42,28.49,87,48c21.41,13.66,42,29,42,29s10.86,8,21,16c16.05,12.66,36.65,30.33,68,61
			c33.12,32.4,32.09,34.16,76,79c4.76,4.86,18.38,18.74,35,38c4.2,4.86,9.07,10.52,15,18c10.5,13.23,19.85,25.02,29,41
			c11.91,20.79,17.79,38.76,20,46c6.01,19.73,7.69,35.3,9,48c0.44,4.26,2.36,23.84,1,50c-1.15,22.14-4.12,38.69-6,49
			c-3.59,19.65-7.7,34.05-12,49c-5.98,20.82-11.51,36.28-15,46c-6.6,18.4-12.17,31.92-18,46c-3.36,8.11-10.15,24.32-20,46
			c-13.02,28.66-24.88,54.93-43,88c-9.93,18.13-18.74,32.84-25,43c-27.23,44.18-50.56,74.09-56,81c-14.63,18.6-26.67,32.16-31,37
			c-14.76,16.47-38.6,41.52-71,69c-21.93,18.6-44.03,37.33-77,57c-16.15,9.63-46.14,26.1-86,40c-13.06,4.56-33.04,9.7-73,20
			c-41.36,10.66-57.88,13.84-71,16c-16.72,2.75-30.99,5.93-50,6c-5.11,0.02-16.66-0.74-30-2c-12.69-1.2-16.62-1.76-18-2
			c-13.34-2.34-23.11-6.46-29-9c-78.9-34.02-108-51-108-51c-11.05-6.44-42.71-25.28-82-55c-29.49-22.31-62.06-46.95-96-84
			c-52.98-57.84-85.74-120.25-97-142c-10.81-20.89-24.21-42.93-51-87c-5.33-8.76-14.32-23.35-30-39c-7.55-7.54-20.02-19.78-40-30
			c-21.08-10.78-39.36-13.6-49-15c-5.25-0.76-24.29-3.28-49,0c-22.08,2.93-38.02,9.08-48,13c-8.75,3.44-25.45,10.11-44,23
			c-11.42,7.93-44.08,31.22-64,75c-9.3,20.42-12.25,37.47-14,48c-6.58,39.56-0.3,71.91,5,98c2.58,12.68,6.05,24.45,13,48
			c8.99,30.47,16.64,52.8,31,94c28.46,81.69,27,76.05,32,92c4.98,15.88,15.7,51,25,95c3.24,15.31,6.04,30.46,8,49
			c1.68,15.93,3.11,30.05,2,49c-1.33,22.78-5.62,40.34-8,49c-5.64,20.52-12.68,35.11-18,46c-2.5,5.11-7.33,14.65-25,43
			c-11.72,18.8-17.29,26.95-27,42c-25.83,40.03-39,60.58-51,87c-10.88,23.95-15.37,39.87-17,46c-6.62,24.84-7.78,43.95-8,48
			c-1.39,25.43,2,44.69,3,50c2.56,13.6,6.74,25.25,15,48c8.65,23.82,16.12,41.55,18,46c19.46,45.99,37.79,81.01,42,89
			c11.33,21.49,26.78,50.62,51,87c27.78,41.73,52.46,71.03,61,81c21.19,24.73,37.46,40.48,70,72c54.04,52.33,96.99,88.36,111,100
			c25.59,21.26,46.76,38.84,78,61c33.98,24.1,61.47,40.57,84,54c23.57,14.05,50.96,30.3,89,49c46.85,23.04,83.46,36.82,92,40
			c36.38,13.56,63.04,20.91,96,30c20.13,5.55,33.03,8.64,49,11c18.84,2.79,33.98,3.4,50,4c12.28,0.46,29.4,0.77,52,0
			c17.68-0.6,24.52-1.39,99-8c20.22-1.79,32.54-2.88,50-4c20.56-1.32,33.29-2.12,50-2c5.24,0.04,24.84,0.27,50,3
			c40.78,4.43,71.75,12.79,98,20c31.14,8.55,52.43,16.36,95,32c58.22,21.38,76.67,31.24,91,40c11.93,7.29,21.78,14.63,41,29
			c41.37,30.93,56.92,45.6,78,62c25.57,19.9,69.07,53.21,131,75c42.57,14.98,78.13,18.99,97,21c24.05,2.57,50.29,3.47,101,0
			c72.43-4.96,128.09-14.27,150-18c103.28-17.59,188.91-35.79,248-49c83.46-18.65,150.62-35.5,195-47
			c61.39-15.91,117.96-30.57,194-54c31.83-9.81,84.89-28.21,191-65c45.59-15.81,88.32-30.81,139-57c23.93-12.37,52.86-28.9,84-55
			c7.88-6.6,21.56-18.57,37-35c23.69-25.22,40.28-48.99,59-79c22.01-35.29,22.66-40.21,73-130c14.25-25.42,30.43-53.9,57-83
			c12.35-13.52,24.47-24.48,37-34c9.56-7.27,22.68-17.12,42-26c17.62-8.1,31.76-11.42,47-15c1.68-0.4,25.64-5.91,51-8
			c69.59-5.74,150,10,150,10c68.65,13.44,126.95,29.13,194,49c71.65,21.23,125.27,38.92,192,61c92.04,30.45,97.83,33.65,190,64
			c129.23,42.56,169.3,53.22,192,59c72.89,18.55,112.54,26.48,147,31c9.36,1.23,48.79,6.26,102,8c65.33,2.14,114.51-1.89,151-5
			c29.65-2.52,103.87-9.68,198-29c52.25-10.73-29.7,4.17,148-33c41.54-8.69,75.7-14.96,98-19"/>
		<path class="st9" d="M11261.94,2401.85c-3.19,39.61-6.31,73.82-8.94,101.15c-4.34,44.99-5.84,55.61-9,92
			c-3.22,37.09-5.54,63.83-7,100c-1.78,44.12-1.33,78.45-1,101c0.67,45.74,2.2,48.42,3,100c0.56,35.68,0.3,64.96,0,84
			c-0.38,24.27-1.26,47.51-3,93c-2.22,58.01-2.56,58.47-4,100c-1.5,43.32-2.09,70.72-2,101c0.06,18.45,0.35,33.78,1,50
			c0.28,7.01,1.08,25.55,3,50c1.85,23.55,2.77,35.32,5,50c2.45,16.18,5.08,27.62,10,49c2.42,10.53,6.18,26.98,12,48
			c2.18,7.87,5.7,20.17,14,46c13.58,42.23,17.69,51.4,31,93c8.1,25.31,11.17,36.3,14,48c3.03,12.56,6.64,27.69,9,48
			c1.59,13.71,3.35,28.83,2,49c-0.77,11.51-2.03,28.57-9,49c-3.64,10.65-9.81,21.91-22,44c-14.79,26.78-16.4,27.01-25,44
			c-9.4,18.57-15.26,33.67-20,46c-8.66,22.5-13.83,39.8-16,47c-15.15,50.24-15.17,43.12-47,144c-18.22,57.75-24.98,81.51-29,96
			c-2.93,10.57-7.84,27.01-13,49c-3.28,13.99-6.92,29.62-10,50c-0.96,6.37-3.53,24.18-5,49c-2.46,41.65,1.19,52.02,0,100
			c-0.68,27.56-1.02,41.33-3,51c-7.59,37.09-26.11,61.8-45,87c-27.3,36.41-55.58,59.25-70,70c-15.09,11.25-43.69,32.2-87,47
			c-42.08,14.38-77.33,15.5-96,16c-12.03,0.32-24.68-0.45-50-2c-25.46-1.56-41.41-3.3-98-9c-31.28-3.15-46.92-4.73-50-5
			c-14.48-1.29-38-3.15-147-6c-124.72-3.26-47.8,0.36-99-1c-9.3-0.25-26.43-0.75-49,2c-14.71,1.79-30.17,3.78-49,11
			c-11.95,4.58-26.88,10.47-42,24c-8.73,7.81-22.16,19.84-28,40c-5.96,20.59-0.69,38.23,3,50c6.83,21.81,17.88,34.63,38,58
			c14.79,17.17,31.15,35.88,58,53c12.83,8.18,23.55,12.79,45,22c45.15,19.4,57.7,18.96,94,36c11.47,5.39,26.71,12.54,44,24
			c31.06,20.59,50.1,44.01,71,69c14.83,17.73,23.54,30.49,29,39c11.93,18.58,18.54,28.89,23,45c1.45,5.23,6.33,24.33,3,49
			c-2.83,20.95-10.19,35.65-16,47c-9.24,18.06-18.91,29.84-29,42c-38.88,46.83-58.31,70.24-64,76c-20.8,21.08-38.87,36.05-75,66
			c-8.69,7.2-23.39,19.23-39,32c-10.43,8.53-29.39,24.04-38,31c-19.68,15.9-39.85,30.51-80,60c-17.21,12.64-25.95,18.95-40,30
			c-14.38,11.32-24.4,19.23-37,31c-8.99,8.39-21.23,19.92-35,37c-5.06,6.28-16.25,20.69-28,41c-7.08,12.25-12.15,23.33-22,45
			c-9.72,21.39-13.12,30.26-20,46c-6.66,15.25,0.44,4.92-13,31"/>
	</g>
	<g id="山路路肩">
		<path class="st10" d="M1560,2534l-3,107v92.52l8,47.48l20,47l24,44c7.96,12.14,17.59,26.01,29,41c17.56,23.07,36.9,48.19,67,75
			c16.59,14.77,31.15,25.33,39,31c13.73,9.91,26.07,17.82,43,28c34.4,20.69,58.22,32.89,88,49c56.36,30.49,45.48,26.46,88,49
			c38.44,20.38,56.42,28.49,87,48c21.41,13.66,42,29,42,29s10.86,8,21,16c16.05,12.66,36.65,30.33,68,61
			c33.12,32.4,32.09,34.16,76,79c4.76,4.86,18.38,18.74,35,38c4.2,4.86,9.07,10.52,15,18c10.5,13.23,19.85,25.02,29,41
			c11.91,20.79,17.79,38.76,20,46c6.01,19.73,7.69,35.3,9,48c0.44,4.26,2.36,23.84,1,50c-1.15,22.14-4.12,38.69-6,49
			c-3.59,19.65-7.7,34.05-12,49c-5.98,20.82-11.51,36.28-15,46c-6.6,18.4-12.17,31.92-18,46c-3.36,8.11-10.15,24.32-20,46
			c-13.02,28.66-24.88,54.93-43,88c-9.93,18.13-18.74,32.84-25,43c-27.23,44.18-50.56,74.09-56,81c-14.63,18.6-26.67,32.16-31,37
			c-14.76,16.47-38.6,41.52-71,69c-21.93,18.6-44.03,37.33-77,57c-16.15,9.63-46.14,26.1-86,40c-13.06,4.56-33.04,9.7-73,20
			c-41.36,10.66-57.88,13.84-71,16c-16.72,2.75-30.99,5.93-50,6c-5.11,0.02-16.66-0.74-30-2c-12.69-1.2-16.62-1.76-18-2
			c-13.34-2.34-23.11-6.46-29-9c-78.9-34.02-108-51-108-51c-11.05-6.44-42.71-25.28-82-55c-29.49-22.31-62.06-46.95-96-84
			c-52.98-57.84-85.74-120.25-97-142c-10.81-20.89-24.21-42.93-51-87c-5.33-8.76-14.32-23.35-30-39c-7.55-7.54-20.02-19.78-40-30
			c-21.08-10.78-39.36-13.6-49-15c-5.25-0.76-24.29-3.28-49,0c-22.08,2.93-38.02,9.08-48,13c-8.75,3.44-25.45,10.11-44,23
			c-11.42,7.93-44.08,31.22-64,75c-9.3,20.42-12.25,37.47-14,48c-6.58,39.56-0.3,71.91,5,98c2.58,12.68,6.05,24.45,13,48
			c8.99,30.47,16.64,52.8,31,94c28.46,81.69,27,76.05,32,92c4.98,15.88,15.7,51,25,95c3.24,15.31,6.04,30.46,8,49
			c1.68,15.93,3.11,30.05,2,49c-1.33,22.78-5.62,40.34-8,49c-5.64,20.52-12.68,35.11-18,46c-2.5,5.11-7.33,14.65-25,43
			c-11.72,18.8-17.29,26.95-27,42c-25.83,40.03-39,60.58-51,87c-10.88,23.95-15.37,39.87-17,46c-6.62,24.84-7.78,43.95-8,48
			c-1.39,25.43,2,44.69,3,50c2.56,13.6,6.74,25.25,15,48c8.65,23.82,16.12,41.55,18,46c19.46,45.99,37.79,81.01,42,89
			c11.33,21.49,26.78,50.62,51,87c27.78,41.73,52.46,71.03,61,81c21.19,24.73,37.46,40.48,70,72c54.04,52.33,96.99,88.36,111,100
			c25.59,21.26,46.76,38.84,78,61c33.98,24.1,61.47,40.57,84,54c23.57,14.05,50.96,30.3,89,49c46.85,23.04,83.46,36.82,92,40
			c36.38,13.56,63.04,20.91,96,30c20.13,5.55,33.03,8.64,49,11c18.84,2.79,33.98,3.4,50,4c12.28,0.46,29.4,0.77,52,0
			c17.68-0.6,24.52-1.39,99-8c20.22-1.79,32.54-2.88,50-4c20.56-1.32,33.29-2.12,50-2c5.24,0.04,24.84,0.27,50,3
			c40.78,4.43,71.75,12.79,98,20c31.14,8.55,52.43,16.36,95,32c58.22,21.38,76.67,31.24,91,40c11.93,7.29,21.78,14.63,41,29
			c41.37,30.93,56.92,45.6,78,62c25.57,19.9,69.07,53.21,131,75c42.57,14.98,78.13,18.99,97,21c24.05,2.57,50.29,3.47,101,0
			c72.43-4.96,128.09-14.27,150-18c103.28-17.59,188.91-35.79,248-49c83.46-18.65,150.62-35.5,195-47
			c61.39-15.91,117.96-30.57,194-54c31.83-9.81,84.89-28.21,191-65c45.59-15.81,88.32-30.81,139-57c23.93-12.37,52.86-28.9,84-55
			c7.88-6.6,21.56-18.57,37-35c23.69-25.22,40.28-48.99,59-79c22.01-35.29,22.66-40.21,73-130c14.25-25.42,30.43-53.9,57-83
			c12.35-13.52,24.47-24.48,37-34c9.56-7.27,22.68-17.12,42-26c17.62-8.1,31.76-11.42,47-15c1.68-0.4,25.64-5.91,51-8
			c69.59-5.74,150,10,150,10c68.65,13.44,126.95,29.13,194,49c71.65,21.23,125.27,38.92,192,61c92.04,30.45,97.83,33.65,190,64
			c129.23,42.56,169.3,53.22,192,59c72.89,18.55,112.54,26.48,147,31c9.36,1.23,48.79,6.26,102,8c65.33,2.14,114.51-1.89,151-5
			c29.65-2.52,103.87-9.68,198-29c52.25-10.73-29.7,4.17,148-33c41.54-8.69,75.7-14.96,98-19"/>
		<path class="st10" d="M11261.94,2401.85c-3.19,39.61-6.31,73.82-8.94,101.15c-4.34,44.99-5.84,55.61-9,92
			c-3.22,37.09-5.54,63.83-7,100c-1.78,44.12-1.33,78.45-1,101c0.67,45.74,2.2,48.42,3,100c0.56,35.68,0.3,64.96,0,84
			c-0.38,24.27-1.26,47.51-3,93c-2.22,58.01-2.56,58.47-4,100c-1.5,43.32-2.09,70.72-2,101c0.06,18.45,0.35,33.78,1,50
			c0.28,7.01,1.08,25.55,3,50c1.85,23.55,2.77,35.32,5,50c2.45,16.18,5.08,27.62,10,49c2.42,10.53,6.18,26.98,12,48
			c2.18,7.87,5.7,20.17,14,46c13.58,42.23,17.69,51.4,31,93c8.1,25.31,11.17,36.3,14,48c3.03,12.56,6.64,27.69,9,48
			c1.59,13.71,3.35,28.83,2,49c-0.77,11.51-2.03,28.57-9,49c-3.64,10.65-9.81,21.91-22,44c-14.79,26.78-16.4,27.01-25,44
			c-9.4,18.57-15.26,33.67-20,46c-8.66,22.5-13.83,39.8-16,47c-15.15,50.24-15.17,43.12-47,144c-18.22,57.75-24.98,81.51-29,96
			c-2.93,10.57-7.84,27.01-13,49c-3.28,13.99-6.92,29.62-10,50c-0.96,6.37-3.53,24.18-5,49c-2.46,41.65,1.19,52.02,0,100
			c-0.68,27.56-1.02,41.33-3,51c-7.59,37.09-26.11,61.8-45,87c-27.3,36.41-55.58,59.25-70,70c-15.09,11.25-43.69,32.2-87,47
			c-42.08,14.38-77.33,15.5-96,16c-12.03,0.32-24.68-0.45-50-2c-25.46-1.56-41.41-3.3-98-9c-31.28-3.15-46.92-4.73-50-5
			c-14.48-1.29-38-3.15-147-6c-124.72-3.26-47.8,0.36-99-1c-9.3-0.25-26.43-0.75-49,2c-14.71,1.79-30.17,3.78-49,11
			c-11.95,4.58-26.88,10.47-42,24c-8.73,7.81-22.16,19.84-28,40c-5.96,20.59-0.69,38.23,3,50c6.83,21.81,17.88,34.63,38,58
			c14.79,17.17,31.15,35.88,58,53c12.83,8.18,23.55,12.79,45,22c45.15,19.4,57.7,18.96,94,36c11.47,5.39,26.71,12.54,44,24
			c31.06,20.59,50.1,44.01,71,69c14.83,17.73,23.54,30.49,29,39c11.93,18.58,18.54,28.89,23,45c1.45,5.23,6.33,24.33,3,49
			c-2.83,20.95-10.19,35.65-16,47c-9.24,18.06-18.91,29.84-29,42c-38.88,46.83-58.31,70.24-64,76c-20.8,21.08-38.87,36.05-75,66
			c-8.69,7.2-23.39,19.23-39,32c-10.43,8.53-29.39,24.04-38,31c-19.68,15.9-39.85,30.51-80,60c-17.21,12.64-25.95,18.95-40,30
			c-14.38,11.32-24.4,19.23-37,31c-8.99,8.39-21.23,19.92-35,37c-5.06,6.28-16.25,20.69-28,41c-7.08,12.25-12.15,23.33-22,45
			c-9.72,21.39-13.12,30.26-20,46c-6.66,15.25,0.44,4.92-13,31"/>
	</g>
	<g id="山路路面">
		<path class="st11" d="M1560,2534l-3,107v92.52l8,47.48l20,47l24,44c7.96,12.14,17.59,26.01,29,41c17.56,23.07,36.9,48.19,67,75
			c16.59,14.77,31.15,25.33,39,31c13.73,9.91,26.07,17.82,43,28c34.4,20.69,58.22,32.89,88,49c56.36,30.49,45.48,26.46,88,49
			c38.44,20.38,56.42,28.49,87,48c21.41,13.66,42,29,42,29s10.86,8,21,16c16.05,12.66,36.65,30.33,68,61
			c33.12,32.4,32.09,34.16,76,79c4.76,4.86,18.38,18.74,35,38c4.2,4.86,9.07,10.52,15,18c10.5,13.23,19.85,25.02,29,41
			c11.91,20.79,17.79,38.76,20,46c6.01,19.73,7.69,35.3,9,48c0.44,4.26,2.36,23.84,1,50c-1.15,22.14-4.12,38.69-6,49
			c-3.59,19.65-7.7,34.05-12,49c-5.98,20.82-11.51,36.28-15,46c-6.6,18.4-12.17,31.92-18,46c-3.36,8.11-10.15,24.32-20,46
			c-13.02,28.66-24.88,54.93-43,88c-9.93,18.13-18.74,32.84-25,43c-27.23,44.18-50.56,74.09-56,81c-14.63,18.6-26.67,32.16-31,37
			c-14.76,16.47-38.6,41.52-71,69c-21.93,18.6-44.03,37.33-77,57c-16.15,9.63-46.14,26.1-86,40c-13.06,4.56-33.04,9.7-73,20
			c-41.36,10.66-57.88,13.84-71,16c-16.72,2.75-30.99,5.93-50,6c-5.11,0.02-16.66-0.74-30-2c-12.69-1.2-16.62-1.76-18-2
			c-13.34-2.34-23.11-6.46-29-9c-78.9-34.02-108-51-108-51c-11.05-6.44-42.71-25.28-82-55c-29.49-22.31-62.06-46.95-96-84
			c-52.98-57.84-85.74-120.25-97-142c-10.81-20.89-24.21-42.93-51-87c-5.33-8.76-14.32-23.35-30-39c-7.55-7.54-20.02-19.78-40-30
			c-21.08-10.78-39.36-13.6-49-15c-5.25-0.76-24.29-3.28-49,0c-22.08,2.93-38.02,9.08-48,13c-8.75,3.44-25.45,10.11-44,23
			c-11.42,7.93-44.08,31.22-64,75c-9.3,20.42-12.25,37.47-14,48c-6.58,39.56-0.3,71.91,5,98c2.58,12.68,6.05,24.45,13,48
			c8.99,30.47,16.64,52.8,31,94c28.46,81.69,27,76.05,32,92c4.98,15.88,15.7,51,25,95c3.24,15.31,6.04,30.46,8,49
			c1.68,15.93,3.11,30.05,2,49c-1.33,22.78-5.62,40.34-8,49c-5.64,20.52-12.68,35.11-18,46c-2.5,5.11-7.33,14.65-25,43
			c-11.72,18.8-17.29,26.95-27,42c-25.83,40.03-39,60.58-51,87c-10.88,23.95-15.37,39.87-17,46c-6.62,24.84-7.78,43.95-8,48
			c-1.39,25.43,2,44.69,3,50c2.56,13.6,6.74,25.25,15,48c8.65,23.82,16.12,41.55,18,46c19.46,45.99,37.79,81.01,42,89
			c11.33,21.49,26.78,50.62,51,87c27.78,41.73,52.46,71.03,61,81c21.19,24.73,37.46,40.48,70,72c54.04,52.33,96.99,88.36,111,100
			c25.59,21.26,46.76,38.84,78,61c33.98,24.1,61.47,40.57,84,54c23.57,14.05,50.96,30.3,89,49c46.85,23.04,83.46,36.82,92,40
			c36.38,13.56,63.04,20.91,96,30c20.13,5.55,33.03,8.64,49,11c18.84,2.79,33.98,3.4,50,4c12.28,0.46,29.4,0.77,52,0
			c17.68-0.6,24.52-1.39,99-8c20.22-1.79,32.54-2.88,50-4c20.56-1.32,33.29-2.12,50-2c5.24,0.04,24.84,0.27,50,3
			c40.78,4.43,71.75,12.79,98,20c31.14,8.55,52.43,16.36,95,32c58.22,21.38,76.67,31.24,91,40c11.93,7.29,21.78,14.63,41,29
			c41.37,30.93,56.92,45.6,78,62c25.57,19.9,69.07,53.21,131,75c42.57,14.98,78.13,18.99,97,21c24.05,2.57,50.29,3.47,101,0
			c72.43-4.96,128.09-14.27,150-18c103.28-17.59,188.91-35.79,248-49c83.46-18.65,150.62-35.5,195-47
			c61.39-15.91,117.96-30.57,194-54c31.83-9.81,84.89-28.21,191-65c45.59-15.81,88.32-30.81,139-57c23.93-12.37,52.86-28.9,84-55
			c7.88-6.6,21.56-18.57,37-35c23.69-25.22,40.28-48.99,59-79c22.01-35.29,22.66-40.21,73-130c14.25-25.42,30.43-53.9,57-83
			c12.35-13.52,24.47-24.48,37-34c9.56-7.27,22.68-17.12,42-26c17.62-8.1,31.76-11.42,47-15c1.68-0.4,25.64-5.91,51-8
			c69.59-5.74,150,10,150,10c68.65,13.44,126.95,29.13,194,49c71.65,21.23,125.27,38.92,192,61c92.04,30.45,97.83,33.65,190,64
			c129.23,42.56,169.3,53.22,192,59c72.89,18.55,112.54,26.48,147,31c9.36,1.23,48.79,6.26,102,8c65.33,2.14,114.51-1.89,151-5
			c29.65-2.52,103.87-9.68,198-29c52.25-10.73-29.7,4.17,148-33c41.54-8.69,75.7-14.96,98-19"/>
		<path class="st11" d="M11261.94,2401.85c-3.19,39.61-6.31,73.82-8.94,101.15c-4.34,44.99-5.84,55.61-9,92
			c-3.22,37.09-5.54,63.83-7,100c-1.78,44.12-1.33,78.45-1,101c0.67,45.74,2.2,48.42,3,100c0.56,35.68,0.3,64.96,0,84
			c-0.38,24.27-1.26,47.51-3,93c-2.22,58.01-2.56,58.47-4,100c-1.5,43.32-2.09,70.72-2,101c0.06,18.45,0.35,33.78,1,50
			c0.28,7.01,1.08,25.55,3,50c1.85,23.55,2.77,35.32,5,50c2.45,16.18,5.08,27.62,10,49c2.42,10.53,6.18,26.98,12,48
			c2.18,7.87,5.7,20.17,14,46c13.58,42.23,17.69,51.4,31,93c8.1,25.31,11.17,36.3,14,48c3.03,12.56,6.64,27.69,9,48
			c1.59,13.71,3.35,28.83,2,49c-0.77,11.51-2.03,28.57-9,49c-3.64,10.65-9.81,21.91-22,44c-14.79,26.78-16.4,27.01-25,44
			c-9.4,18.57-15.26,33.67-20,46c-8.66,22.5-13.83,39.8-16,47c-15.15,50.24-15.17,43.12-47,144c-18.22,57.75-24.98,81.51-29,96
			c-2.93,10.57-7.84,27.01-13,49c-3.28,13.99-6.92,29.62-10,50c-0.96,6.37-3.53,24.18-5,49c-2.46,41.65,1.19,52.02,0,100
			c-0.68,27.56-1.02,41.33-3,51c-7.59,37.09-26.11,61.8-45,87c-27.3,36.41-55.58,59.25-70,70c-15.09,11.25-43.69,32.2-87,47
			c-42.08,14.38-77.33,15.5-96,16c-12.03,0.32-24.68-0.45-50-2c-25.46-1.56-41.41-3.3-98-9c-31.28-3.15-46.92-4.73-50-5
			c-14.48-1.29-38-3.15-147-6c-124.72-3.26-47.8,0.36-99-1c-9.3-0.25-26.43-0.75-49,2c-14.71,1.79-30.17,3.78-49,11
			c-11.95,4.58-26.88,10.47-42,24c-8.73,7.81-22.16,19.84-28,40c-5.96,20.59-0.69,38.23,3,50c6.83,21.81,17.88,34.63,38,58
			c14.79,17.17,31.15,35.88,58,53c12.83,8.18,23.55,12.79,45,22c45.15,19.4,57.7,18.96,94,36c11.47,5.39,26.71,12.54,44,24
			c31.06,20.59,50.1,44.01,71,69c14.83,17.73,23.54,30.49,29,39c11.93,18.58,18.54,28.89,23,45c1.45,5.23,6.33,24.33,3,49
			c-2.83,20.95-10.19,35.65-16,47c-9.24,18.06-18.91,29.84-29,42c-38.88,46.83-58.31,70.24-64,76c-20.8,21.08-38.87,36.05-75,66
			c-8.69,7.2-23.39,19.23-39,32c-10.43,8.53-29.39,24.04-38,31c-19.68,15.9-39.85,30.51-80,60c-17.21,12.64-25.95,18.95-40,30
			c-14.38,11.32-24.4,19.23-37,31c-8.99,8.39-21.23,19.92-35,37c-5.06,6.28-16.25,20.69-28,41c-7.08,12.25-12.15,23.33-22,45
			c-9.72,21.39-13.12,30.26-20,46c-6.66,15.25-0.06,4.42-13.5,30.5"/>
	</g>
</g>
<g id="大路_1_">
	<g id="大路中心线">
		<path class="st12" d="M11884.5,2409.5c-6,1-513-3-513-3l-212-9l-185-13l-238-20l-154-15l-182-15l-111-11l-99-13l-96-15l-75-16
			l-101-22l-163-38l-127-28l-123-24l-97-18l-93-16l-60-11l-83-14l-79-13l-122-20l-135-21l-74-12l-121-19l-88-14l-158-23l-96-15
			l-115-15l-165-21l-112-14l-90-12l-154-21l-93-11l-101-12l-139-11l-119-5l-73-1l-128,4l-92,8l-102,11l-115,15l-130,18l-229,31
			l-139,14l-122,7h-88l-101-6l-107-12l-121-19l-99-18l-249-52l-102-20l-66-9l-76-12l-88-14l-141-22l-102-8l-123,2l-108,10l-142,20
			l-216,39l-165,32l-222,42l-109,18l-98,12l-167,11l-82,8l-91,17l-141,45l-135,52l-289,124l-188,73l-183,71l-190,73l-161,58l-130,41
			l-103,22l-49,4l-104-9l-104-3L1187,2506"/>
	</g>
	<g id="大路露肩">
		<path class="st13" d="M11884.5,2409.5c-6,1-513-3-513-3l-212-9l-185-13l-238-20l-154-15l-182-15l-111-11l-99-13l-96-15l-75-16
			l-101-22l-163-38l-127-28l-123-24l-97-18l-93-16l-60-11l-83-14l-79-13l-122-20l-135-21l-74-12l-121-19l-88-14l-158-23l-96-15
			l-115-15l-165-21l-112-14l-90-12l-154-21l-93-11l-101-12l-139-11l-119-5l-73-1l-128,4l-92,8l-102,11l-115,15l-130,18l-229,31
			l-139,14l-122,7h-88l-101-6l-107-12l-121-19l-99-18l-249-52l-102-20l-66-9l-76-12l-88-14l-141-22l-102-8l-123,2l-108,10l-142,20
			l-216,39l-165,32l-222,42l-109,18l-98,12l-167,11l-82,8l-91,17l-141,45l-135,52l-289,124l-188,73l-183,71l-190,73l-161,58l-130,41
			l-103,22l-49,4l-104-9l-104-3L1187,2506"/>
	</g>
	<g id="大路路面">
		<path class="st14" d="M11884.5,2409.5c-6,1-513-3-513-3l-212-9l-185-13l-238-20l-154-15l-182-15l-111-11l-99-13l-96-15l-75-16
			l-101-22l-163-38l-127-28l-123-24l-97-18l-93-16l-60-11l-83-14l-79-13l-122-20l-135-21l-74-12l-121-19l-88-14l-158-23l-96-15
			l-115-15l-165-21l-112-14l-90-12l-154-21l-93-11l-101-12l-139-11l-119-5l-73-1l-128,4l-92,8l-102,11l-115,15l-130,18l-229,31
			l-139,14l-122,7h-88l-101-6l-107-12l-121-19l-99-18l-249-52l-102-20l-66-9l-76-12l-88-14l-141-22l-102-8l-123,2l-108,10l-142,20
			l-216,39l-165,32l-222,42l-109,18l-98,12l-167,11l-82,8l-91,17l-141,45l-135,52l-289,124l-188,73l-183,71l-190,73l-161,58l-130,41
			l-103,22l-49,4l-104-9l-104-3L1187,2506"/>
	</g>
</g>
<g id="草坪">
	<path class="st15" d="M1762,2753c-0.13,1.49-0.26,3.03-0.37,4.62c-1.91,27.05-0.26,67.88,22.37,106.38
		c25.11,42.73,63.2,60.72,100,79c204.97,101.81,192.19,124.24,293,150c83.69,21.39,146.18,37.36,183,4
		c30.99-28.08,16.58-66.44,39-219c16.13-109.75,29.57-130.59,47-143c35.66-25.38,65.53,0.55,150,0c16.58-0.11,136.93-2.28,240-71
		c70.23-46.83,64.95-79.55,128-104c19.36-7.51,95.33-33.69,161,0c35.36,18.14,56.01,47.63,122,222c44.82,118.44,67.23,177.66,72,204
		c24.72,136.63-18.32,170.31,7,315c14.1,80.58,24.68,141.07,75,182c77.42,62.98,218.7,55.09,286-14c21.86-22.44,37.15-52.61,36-337
		c-0.61-151.21-0.92-226.81-7-268c-22.85-154.76-65.62-208.38-40-315c7.76-32.3,22.36-93.08,72-139c74.97-69.36,153.81-34.5,354-57
		c89.94-10.11,227.82-26.79,372-101c118.7-61.1,103.88-90.27,179-114c156.02-49.28,233.1,72.42,476,118
		c228.92,42.96,240.37-50.14,497,0c45.87,8.96,3.09,3.65,365,125c143.26,48.04,204.99,67.32,254,132c37.29,49.22,28.6,73.76,86,176
		c57.53,102.48,86.3,153.71,129,161c95.65,16.32,152.45-186.99,254-179c100.95,7.94,107.25,213.78,239,243
		c76.14,16.88,168.63-30.88,208-96c51.47-85.12-20.64-145.63,14-287c5.23-21.34,40.3-156.31,154-221c69.81-39.72,140.18-36.4,222-29
		c221.9,20.06,332.84,30.09,458,72c272.8,91.35,293.38,23.83,1227,182c676.87,114.67,487.56,119.93,851,168
		c359.91,47.61,506.73,37.32,619,165c135.17,153.72,142.02,418.44,147,611c3.68,142.23-12.08,252.23,43,415
		c5.47,16.18,83.2,241.28,157,233c45.82-5.14,70.42-98.05,90-172c46.26-174.72,31.37-321.72,25-375c-31.54-263.95-93-230.79-104-423
		c-9.89-172.92,32.94-320.67-36-468c-10.23-21.86-27.21-52.88-60-79c-60.06-47.85-127.57-37.28-215-39
		c-122.4-2.41-91.57-23.81-347-57c-55.56-7.22-139.23-16.89-243-24l-508-100l-1053-181l-636-86l-564-95l-320-4l-554,32l-647,67
		l-622.46-99L4680,1929l-945,134l-444,70l-546,197l-396,175l-592,214L1762,2753z"/>
	<path class="st15" d="M1617,3040c55.01,4.59,94.8,47.03,115,73l166,96c45.7,29.38,111.38,74.63,185,137
		c109.63,92.88,164.82,140.68,183,207c23.06,84.12-9.32,160.52-57,273c-36.69,86.56-81.35,147.43-110,186
		c-34.47,46.4-54.63,73.13-91,102c-65.48,51.98-131.81,69.86-171,80c-35.98,9.31-82.94,21.03-145,16c-24.42-1.98-89.95-7.95-151-45
		c-65.37-39.67-60.38-75.41-147-194c-44.43-60.83-90.36-112.51-169-201c-78.96-88.85-96.29-101.58-102-137
		c-6.62-41.05,8.6-73.87,102-209c123.86-179.19,174.58-233.57,209-268C1547.54,3042.43,1591.77,3037.89,1617,3040z"/>
	<path class="st15" d="M1093,3880c76.73,18.65,75.71,132.05,156,266c24.59,41.02,93.83,156.53,223,217
		c86.2,40.35,163.14,39.37,271,38c153.13-1.95,256.88-39.85,281-49c100.99-38.31,151.49-57.47,180-110
		c25.17-46.37,21.12-96.21,73-158c26.33-31.37,40.02-33.59,48-32c23.44,4.66,35.6,49.71,35,83c-0.25,13.56-2.91,41.88-35,91
		c-22.41,34.31-40.22,49.74-134,134c-61.02,54.83-65.94,59.49-81,65c-41.89,15.33-56.37-1.5-131,11c-75.21,12.59-91.45,34.86-97,45
		c-8.83,16.14-2.63,23.59-8,38c-15.94,42.77-95.88,44.97-223,61c-31.73,4-111.18,14.02-201,30c-113.39,20.17-142.58,31.93-190,16
		c-65.41-21.97-100.88-74.9-108-86c-33.12-51.65-33.77-104.31-35-204c-1.23-99.36,13.32-120.33-8-169
		c-14.77-33.71-26.21-33.83-56-94c-15.76-31.84-29.26-65.55-35-107c-4.48-32.4-7.76-58.69,8-75
		C1046.92,3869.34,1088.28,3878.85,1093,3880z"/>
	<path class="st15" d="M761,3961c40.4,39.32-1.74,92.23,29,214c15.6,61.81,28.03,54.4,40,113c18.86,92.37-0.16,168.85-8,199
		c-9.94,38.2-21.8,83.81-56,131c-18.98,26.19-35.66,40.21-56,78c-11.39,21.16-24.28,45.13-30,78c-7.05,40.57,0.85,71.59,16,131
		c8.56,33.56,14.77,57.93,30,89c19.8,40.38,31,43.48,51,86c17.8,37.85,14.24,46.69,29,80c19.15,43.2,43.87,70.6,65,94
		c47.11,52.19,65.59,49.2,142,121c28.59,26.86,28.43,29.56,53,51c12.32,10.75,45.84,39.29,102,75c65.94,41.93,71.57,35.56,132,75
		c49.67,32.42,51.91,40.67,86,59c40.47,21.77,69.15,26.4,120,40c76.98,20.58,146.6,44.52,161,51c84.04,37.84,86.19,65.6,180,105
		c39.83,16.73,71.87,25.34,97,32c121.67,32.23,148.35,10.84,215,46c35.53,18.74,33.77,27.89,96,64c29.01,16.83,55.75,32.35,91,46
		c67.43,26.11,127.29,29.08,247,35c9.46,0.47,25.35,1.14,46,0c38.63-2.13,66.96-9.12,75-11c59.12-13.85,106.61-6.28,180-14
		c99.25-10.44,78.73-31.27,217-56c24.94-4.46,100.95-17.26,180-29c16.4-2.44,35.63-5.23,62-11c43.78-9.59,76.98-20.77,110-32
		c48.08-16.35,46.78-18.4,91-33c52.12-17.21,48.42-12.54,86-26c45.25-16.21,53.65-24.06,104-41c38.48-12.94,33.68-8.4,51-16
		c38.63-16.96,50.8-34.46,94-51c10.96-4.2,7.27-1.96,32-10c55.42-18.03,83.13-27.04,110-46c18.78-13.25,31.2-26.64,51-48
		c14.89-16.06,15.98-19.3,41-49c31.33-37.19,34.61-38.02,53-61c23.84-29.78,20.9-31.57,46-65c41.96-55.87,46.47-45.92,67-80
		c24.13-40.06,23.86-63.73,51-78c6.12-3.22,16.74-5.81,38-11c15.35-3.75,35.86-8.68,61-11c19.98-1.85,37.5-1.55,59,0
		c101.9,7.33,188,35,188,35c13.16,4.23,3.77,1.61,75,27c36.31,12.95,59.98,21.38,91,32c36.74,12.57,70.42,24.1,116,38
		c36.85,11.24,66.12,19.34,83,24c31.69,8.75,33.27,8.72,83,22c62.87,16.79,68.17,18.94,97,26c36.85,9.03,53.38,11.7,88,19
		c114.1,24.06,105.06,30.94,156,38c72.42,10.04,143.29,3.43,180,0c62.41-5.82,84.54-13.96,112,2c27.08,15.73,38.37,42.7,59,92
		c9.93,23.71,25.03,60.61,30,112c5.02,51.93-3.07,90.13-13,137c-10.77,50.84-16.16,76.27-35,105c-5.71,8.7-31.52,46.58-81,72
		c-13.54,6.96-24.83,10.91-126,27c-100.95,16.06-112.48,15.74-126,14c-29.69-3.83-40.43-10.86-89-17c-31.55-3.99-31.95-1.64-67-5
		c-63.79-6.12-77.41-15.35-136-21c-40.5-3.91-30.47,0.86-78-3c-52.03-4.23-94.45-7.68-143-27c-28.48-11.34-30.34-16.7-56-24
		c-39.15-11.13-70.67-8.84-88-8c-65.08,3.17-54.91-7.94-164-11c-79.94-2.24-127.93-3.59-191,8c-32.46,5.96-39.36,9.93-128,35
		c-128.53,36.36-127.33,39.75-148,40c-59.65,0.71-64.31-22.41-172-40c-36.57-5.97-30.55-2.41-99-11
		c-128.94-16.17-124.15-25.53-156-21c-49.72,7.07-48.13,27.98-166,88c-53,26.99-48.86,20.46-105,49c-98.57,50.1-96.41,62.7-158,88
		c-68.43,28.11-76.5,14.77-145,46c-58.48,26.66-51.97,36.09-107,59c-15.16,6.31-71.71,28.93-150,37c-31.27,3.22-22.39-0.37-92,3
		c-79.63,3.85-88.27,8.41-139,8c-56.59-0.46-93.33-6.52-102-8c-43.89-7.5-40.02-12.31-78-19c-70.31-12.4-88.95,3.15-156-13
		c-21.64-5.21-38.31-11.31-51-16c-40.5-14.96-54.32-25.63-107-48c-23.14-9.83-34.71-14.74-48-19c-40.77-13.06-59.44-11.49-102-22
		c-30.22-7.46-26.61-9.68-65-21c-97.96-28.88-120.27-14.05-161-43c-10.26-7.29-24.45-19.32-51-35c-8.71-5.14-22.83-13.08-40-21
		c-44.38-20.46-62.95-19.45-104-35c-23.67-8.97-15.65-8.6-67-33c-45.73-21.73-53.51-22.69-121-53c-33.28-14.95-57.78-26.57-65-30
		c-36.61-17.41-65.08-31.84-91-45c-20.88-10.6-35.3-18.09-64-33c-64.65-33.58-57.09-30.23-86-45c-74.93-38.27-80.76-37.84-115-59
		c-13.44-8.31-19.85-12.89-33-19c-27.54-12.79-46.22-14.41-80-21c0,0-37.65-7.34-89-22c-17.9-5.11-47.21-13.48-80-27
		c-41.19-16.99-88.66-36.57-132-78c-31.16-29.79-21.36-33.76-69-85c-29.71-31.95-49.17-52.54-81-70c-13.09-7.18-13.03-5.47-86-30
		c-67.07-22.55-68.84-24.57-96-32c-48.44-13.25-50.81-9-81-19c-14.9-4.93-55.91-19.74-99-53c-40.17-31.01-85.13-65.71-86-113
		c-0.35-18.83,6.34-37.22,19-72c5.92-16.28,9.63-23.41,21-49c12.72-28.65,24.38-54.89,35-83c15.75-41.7,25.82-68.35,30-105
		c2.61-22.89,1.71-39.04,0-67c-6.04-99-24.05-109.04-19-161c1.96-20.15,6.64-68.33,40-110c31.24-39.02,63.86-42.62,81-86
		c5.34-13.52,2.61-14.27,8-61c6.35-55,10.62-58.21,21-129c6.01-40.98,13.66-101.91,13-102c-0.41-0.06-5.21,22.89-2,24
		c5.5,1.9,13.64-67.62,59-102c28.39-21.52,46.29-10.27,177-24c69.07-7.26,85.69-12.67,99-27c29.05-31.26,8.23-68.24,35-94
		C658.1,3926.99,727.1,3928,761,3961z"/>
	<path class="st15" d="M1818,1747c109.48,33.4,172.39,104.48,241,182c0,0,95.68,108.11,110,215c1.24,9.26,2.62,24.67-5,40
		c-17.65,35.52-66.37,35.94-121,49c-127.81,30.56-139.86,94.94-225,86c-13.73-1.44-63.75-6.7-91-43c-15.87-21.14-11.9-36.67-25-100
		c-10.52-50.87-15.78-76.31-29-104c-26.67-55.87-49.85-48.17-81-105c-22.44-40.94-10.33-44.81-40-121c-25.46-65.4-40.14-77.33-32-94
		c14.48-29.68,78.15-27.01,150-24C1730.45,1730.53,1769.36,1732.16,1818,1747z"/>
	<path class="st15" d="M10957,907c22.96,28.65,60.65,76.36,86,142c11,28.47,15.44,49.35,29,164c18.59,157.15,18.34,186.35,32,284
		c11.58,82.78,14.28,79.8,22,145c10.14,85.61,17.04,143.86,13,218c-5.4,99.27-9.52,174.85-64,241c-39.33,47.75-86.79,68.61-115,81
		c-64.21,28.21-121.68,28.19-234,27c-138.39-1.47-208.63-2.98-260-41c-37.55-27.79-37.93-47.57-97-91
		c-43.76-32.17-81.4-49.15-121-67c-44.23-19.94-96.91-43.7-169-56c-9.19-1.57-40.13-4.71-102-11c-61.46-6.24-107.36-10.56-112-11
		c-221.74-20.82-204.01-18.26-226-21c-112.65-14.04-205.59-34.76-241-43c-60.62-14.1-85.65-22.54-161-38
		c-48.95-10.04-86.62-16.37-132-24c-89.57-15.06-157.57-24.17-179-27c-50.75-6.69-87.65-10.71-167-19
		c-200.7-20.97-211.49-21.07-311-32c-131.81-14.48-198.8-21.93-252-32c-73.75-13.96-91.78-21.62-150-27c-52.2-4.82-81.69-2.73-196,0
		c-27.46,0.66-98.48,2.35-167,3c-59.93,0.57-155.2,1.36-276-3c-118.47-4.27-119.95-8.55-199-11c-119.93-3.72-144.25,5.37-332,14
		c-293.14,13.47-296.8-5.8-400,21c-79.38,20.61-113.77,41.5-218,59c-89.53,15.03-164.4,16.45-206,16c-60.86-0.66-107.41-5.96-142-10
		c-75.54-8.81-122.28-19.64-175-30c-96-18.86-78.95-10.06-273-40c-241.87-37.32-277.45-52.4-301-64c-18.72-9.22-51.85-27.09-102-41
		c-58.23-16.15-104.29-17.22-134-18c-247.01-6.5-221.1-15.65-322-11c-91.9,4.24-57.23,9.24-258,27c-54.25,4.8-101.26,8.37-166,24
		c-65.05,15.71-62.6,22.97-121,37c-75,18.02-136.18,19.77-214,22c-79.31,2.27-88.05-2.83-148,2c-65.47,5.28-113.33,16.12-140,22
		c-288.48,63.65-345.04,52.97-501,110c-63.21,23.11-48.34,22.83-212,97c-227.03,102.89-291.76,76.07-373,158
		c-29.6,29.85-59.35,70.18-94,64c-29.93-5.34-56.88-44.2-56-80c1.2-48.7,53.67-83.22,155-148c57.72-36.9,103.82-60.74,116-67
		c74.79-38.44,155.4-79.87,268-121c141.09-51.54,179.53-46.77,284-96c5.76-2.71,41.69-19.71,91-40c90.26-37.13,124.62-43.82,137-46
		c49-8.61,84.81-4.61,110-3c122.28,7.81,166.33-29.75,357-59c102.39-15.71,92.12-5.25,228-21c168.88-19.58,269.75-45.59,341-59
		c283.84-53.41,547.35,8.6,770,61c163.68,38.52,237.98,73.17,438,102c0,0,138.14,19.91,281,25c399.9,14.25,897.4-97.7,953-110
		c183.21-40.52,761.47,1.32,1918,85c255.89,18.51,519.55-13,768,51c96.58,24.88,259.76,75.42,453,25
		c74.23-19.37,127.49-48.91,234-108c232.83-129.16,363.93-201.89,391-330c22.39-105.98-47.82-148.56-5-236
		c46.23-94.4,182.12-155.18,266-118C10899.55,835.33,10918.7,859.22,10957,907z"/>
	<path class="st15" d="M11432,2839c9.18,22.32-38.38,52.79-65,89c-56.87,77.35-30.14,197.09-21,198c6.12,0.61,16.44-50.87,16-51
		c-0.54-0.16-37.95,72.52-40,161c-1.52,65.72,17.95,76.03,35,209c5.09,39.73,7.64,59.59,10,89c2.76,34.43,2.37,45.76,6,70
		c5.69,37.99,11.96,45.6,19,78c12.77,58.76,8.29,107.94,5,144c-1.84,20.21-5.59,49.5-14,84c-7.92,32.5-13.12,53.83-26,80
		c-18.08,36.71-29.75,39.21-54,86c-7.06,13.63-15,29.12-22,51c-11.31,35.36-22.37,69.93-5,94c10.03,13.89,28.85,23.35,46,21
		c12.22-1.68,20.37-8.92,40-32c28.94-34.02,44.7-52.55,64-86c15.47-26.81,24.67-48.38,30-61c8.93-21.13,19.63-46.81,27-81
		c5.12-23.76,3.92-29.75,8-59c6.84-48.95,13.79-57.82,21-97c8.87-48.21,7.72-85.79,6-142c-1.1-35.9-2.66-27.9-6-91
		c-4.67-88.31-2.25-116.03,0-134c5-39.92,7.5-59.87,19-81c14.73-27.06,29.89-34.08,86-88c26.52-25.49,39.78-38.23,46-46
		c35.61-44.5,46.24-90.63,61-158c10.84-49.49,16.15-74.88,11-107c-6.44-40.13-23.79-68.23-35-86c-28.51-45.17-62.26-69.5-97-94
		c-58.85-41.52-90.94-64.15-126-54c-37.42,10.84-67.91,56.06-59,78C11421.48,2831.57,11428.77,2831.14,11432,2839z"/>
	<path class="st15" d="M1056,4750c-13.78,8.7-25.52,34.14-49,85c-15.43,33.42-23.14,50.13-26,67c-7.04,41.48,4.54,75.53,16,108
		c6.29,17.81,11.31,27.64,51,99c32.19,57.89,48.38,86.98,53,94c26.02,39.59,50.15,76.29,92,110c30.49,24.55,34.15,18.34,96,59
		c52.76,34.69,48.66,38.27,86,62c43.15,27.42,81.36,42.65,156,72c43.37,17.05,72.68,28.57,110,40c104.14,31.89,159.62,48.89,230,41
		c64.49-7.23,80.43-28.5,143-22c31.81,3.3,46.1,10.71,94,22c76.83,18.1,91.38,11.29,131,21c93.9,23,86.96,76.09,231,153
		c51.7,27.6,93.14,42.42,121,51c30.57,9.42,69,21.25,115,24c71.44,4.27,102.8-16.87,188-35c71.82-15.28,71.8-5,177-18
		c101.07-12.49,112.09-23.34,346-73c121.34-25.76,124.82-24.21,169-37c22.96-6.65,117.98-34.85,233-94
		c45.08-23.18,67.62-34.78,86-51c43.05-38.01,46.97-67.2,100-172c56.79-112.22,91.28-155.78,102-169c50.63-62.43,86.47-83.58,96-89
		c50.12-28.52,96.72-34.04,124-37c64-6.94,113.81,3.86,153,13c129.48,30.2,231.45,62.89,279,78c73.55,23.37-13.69-5.04,263,81
		c193.24,60.09,202.03,63.44,236,72c111.29,28.03,204.12,36.61,308,48c86.76,9.51,130.14,14.27,175,14
		c109.6-0.66,190.83-19.52,292-43c81.95-19.02,142.78-33.14,223-65c112.33-44.61,120.66-67.6,190-75c76.72-8.19,137.83,12.35,159-21
		c8.41-13.25,7.13-29.66,5-57c-1.8-23.08-4.32-55.47-24-75c-23.2-23.02-60.99-18.98-89-16c-44.27,4.71-124.15,2.1-209,22
		c-114.97,26.96-201.15,40.6-330,61c-109.11,17.27-163.67,25.91-223,27c-105.59,1.94-147.45-14.47-351-51
		c-263.91-47.36-249.11-29.74-346-59c-141.9-42.85-140.53-70.63-312-129c-121.42-41.33-203.99-69.44-319-72
		c-159.23-3.55-281.03,44.08-338,67c-130.28,52.42-134.82,88.14-250,142c-133.14,62.26-243.71,69.08-437,81
		c-236.13,14.56-226.25-20.25-499-8c-209.8,9.43-243.6,31.28-338,0c-65.1-21.57-95.12-47.24-290-145
		c-56.44-28.31-84.22-51.11-137-67c-77.79-23.43-124.85-14.47-212-14c-252.26,1.37-283.96-71.34-397-24
		c-80.97,33.91-123.44,95.8-166,75c-28.3-13.83-23.44-48-75-99c-12.27-12.14-34.19-31.61-65-48
		C1176.89,4760.11,1102.58,4720.59,1056,4750z"/>
	<polygon class="st15" points="6638.5,4623.41 6702.5,4739.38 6774.5,5135.5 7525,5037 7598.5,5079.56 7731,5055.41 7795.98,5021.5 
		8471.5,4899.78 8443.5,4862.22 7917,4782 7501,4806 7338.5,4757.57 7190.5,4781.72 6914.5,4669.02 6733.5,4669.02 	"/>
	<polygon class="st15" points="8568,4943 8569.42,4946.03 8646,5109 9526,5480 9586,5618 10043,5851 10128,5675 10491.96,5366.5 
		10540,5304 10538,5226 10477,5179 10401,5131 10312,5115 10275,5153 10158,5102 10047,4975 9923,4964 9878,4955 9816.5,4852.16 
		9686,4856 9582,4974 9503,5180 9456,5224 9192.71,5029.92 8854,4970 	"/>
	<polygon class="st15" points="11056,4577 10993,4657 10919,4699 10864,4725 10781,4695 10301,4631 10294,4594 10329,4517 
		10487,4540 10882,4601 10961,4570 	"/>
	<polygon class="st15" points="10340,4838 10841,4860 10872,4964 10988,4990 10972,5059 10707,5067 10597,4959 10432,4907 
		10334,4843 	"/>
	<path class="st15" d="M10790,5253c-2,7-63,196-63,196l-157,176l-144,22l-145,97l-92,151l45,61l54-65l12-52l209-138l190-12l218-251
		l45-91L10790,5253z"/>
	<path class="st15" d="M10124,6029c14.63,14.08,33.71,34.33,53,61c18.92,26.17,49.77,69.35,66,133c23.02,90.26,3.35,162.85-1,178
		c-3.22,11.21-17.07,57.07-53,106c-20.32,27.67-41.96,57.14-82,76c-24.84,11.7-45.83,14.05-70,17c-21.33,2.6-63.86,7.35-115-8
		c-19.43-5.83-49.32-17.33-81-41l263-531L10124,6029z"/>
	<path class="st15" d="M7372.27,1019.83"/>
</g>
</svg>
