<svg xmlns="http://www.w3.org/2000/svg" viewBox="0 0 12000 8002"><defs><style>.cls-1{fill:#f0f2f3;}.cls-2{fill:#e3e5e9;}.cls-3{fill:#f1f3f4;stroke:#535353;}.cls-10,.cls-11,.cls-12,.cls-13,.cls-14,.cls-15,.cls-16,.cls-3,.cls-4,.cls-5,.cls-6,.cls-7,.cls-8,.cls-9{stroke-miterlimit:10;}.cls-12,.cls-3{stroke-width:4px;}.cls-10,.cls-11,.cls-12,.cls-13,.cls-14,.cls-15,.cls-16,.cls-4,.cls-5,.cls-6,.cls-7,.cls-8,.cls-9{fill:none;}.cls-13,.cls-4,.cls-5{stroke:#babcbe;}.cls-4{stroke-width:70px;}.cls-5{stroke-width:83px;}.cls-14,.cls-6,.cls-7{stroke:#fff;}.cls-6{stroke-width:71px;}.cls-7{stroke-width:58px;}.cls-12,.cls-8{stroke:lime;}.cls-8{stroke-width:16px;}.cls-9{stroke:#fbb03b;}.cls-11,.cls-13,.cls-9{stroke-width:110px;}.cls-10{stroke:#f3ca5b;}.cls-10,.cls-14{stroke-width:95px;}.cls-11{stroke:#eea462;}.cls-15{stroke:#eb926d;stroke-width:240px;}.cls-16{stroke:#f2b95b;stroke-width:202px;}.cls-17{fill:#b2d8b8;}</style></defs><g id="背景色"><polyline class="cls-1" points="0 0 0 8000 12000 8000 12000 0"/></g><g id="城市"><path class="cls-2" d="M5801.45,5506.49l347,1373.75,299,302.08,132.08-16.82q42.83,185.22,94.14,372c.71,2.57,1.87,8.22,4.28,15.5,22.32,67.5,84.16,103,98,111,77.87,44.77,158.73,27.85,179,23l203-42,122.13,355H9461.5l616-1306,111.5-46.51,159.63-405-186-303-624.3-307-41.14-126-874.73-371-92.86-173.11L8458,4925l-624,123-116.31,62-129.19,11.6L7499,5067,6753.1,5168.75l-284.42,58.75-329.15,115.25,12.53,77.75Z" transform="translate(0 0)"/></g><g id="建筑物"><polygon class="cls-3" points="6475.5 5307.5 6318.5 5389.5 6296.5 5394.5 6392.5 5796.5 6416.5 5793.5 6774.5 5699.5 6678.5 5303.5 6475.5 5307.5"/><polygon class="cls-3" points="6226.5 5771.5 6131.5 5420.5 5859.5 5488.5 5830.5 5539.5 5886.5 5761.5 5929.5 5751.5 5954.5 5844.5 6226.5 5771.5"/><polygon class="cls-3" points="6237.5 5794.5 6298.5 6020.5 6268 6066.32 6201.5 6084.5 6184.5 6114.5 6089.5 6140.5 6029.5 5917.5 6059.5 5866.5 6125.5 5848.5 6143.5 5817.5 6237.5 5794.5"/><path class="cls-3" d="M6081.5,6110.5l8,30,95-26,17-30,62.51-17.09,1.49,7.09s11-6,14,5,3,12,3,12l11-3s8-3,10,3,9,28,9,28l7-2,15,47-27,8,46,148-7,9-10,3,1,4-121,38-13-40-45,14-10-33-114,35-61-208,107.91-32.07" transform="translate(0 0)"/><polygon class="cls-3" points="6108.5 6410.5 6377.5 6324.5 6461.5 6581.5 6197.43 6667.89 6192.5 6669.5 6108.5 6410.5"/><path class="cls-3" d="M6273.5,6953.5l-76.07-285.61,209.07-57.39,30,114,31-7,13,45,42-10,33,125-9,1s6,19-9,22-142,36-142,36l7,26-46,14-3-8-26,6s-7,5-9-2a135.55,135.55,0,0,0-5-14l-11,3s-7,3-9-2a26.79,26.79,0,0,1-2-9l-18,4" transform="translate(0 0)"/><polygon class="cls-3" points="6389.5 6973.5 6396.5 6998.5 6379.5 7003.5 6398.5 7079.5 6415.5 7075.5 6422.5 7099.5 6595.5 7056.5 6564.5 6930.5 6389.5 6973.5"/><polygon class="cls-3" points="6360.5 5876.5 6415.5 6081.5 6504.5 6059.5 6518.5 6030.5 6600.48 6009.91 6598.5 6001.5 6836.5 5938.5 6774.5 5699.5 6471.37 5779.09 6452.5 5809.5 6386.5 5829.5 6360.5 5876.5"/><polygon class="cls-3" points="6596.5 6515.5 6913.5 6422.96 6913.5 6416.7 6957.5 6406.5 6836.5 5938.5 6598.5 6001.5 6602.5 6018.5 6543.5 6056.5 6522.5 6045.5 6515.5 6049.5 6506.24 6067.41 6447.5 6088.5 6521.5 6352.5 6559.5 6372.5 6596.5 6515.5"/><polygon class="cls-3" points="6855.5 5269.5 6900.5 5486.5 6999.5 5465.5 7014.5 5536.5 7287.5 5480.5 7302.27 5550 7588.5 5487.5 7513.5 5135.5 7084.5 5227.5 7083.5 5222.5 6855.5 5269.5"/><polygon class="cls-3" points="6913.5 5660.5 7445.5 5537.5 7486.5 5709.5 7467.5 5715.5 7486.5 5801.05 7050.5 5903.5 7046.5 5884.5 6968.5 5901.5 6913.5 5660.5"/><path class="cls-3" d="M7751.5,5965.5" transform="translate(0 0)"/><polygon class="cls-3" points="7476.5 7420.5 7556.5 7735.5 8158.5 7585.5 8080.5 7269.5 7476.5 7420.5"/><path class="cls-3" d="M7503.5,7212.5l466-118-38-151-30,8-23-91,31-8-90-361s-124-4-186,8c-21.73,4.21-63.51,14.82-99,30-65.79,28.13-128,66-128,66l-10,47-58,14,43,176,33,27Z" transform="translate(0 0)"/><path class="cls-3" d="M7051.5,6776.5l139,591-43,10,20,81-323,79-206-850,179-42,1,7,90-20,13,56S7017.5,6666.5,7051.5,6776.5Z" transform="translate(0 0)"/><polygon class="cls-3" points="7081.5 6388.5 7691.5 6248.5 7657.5 6092.5 7728.5 6077.5 7723.5 6052.5 7766.5 6043.5 7749.47 5965.5 7706.5 5973.5 7701.5 5950.5 7628.73 5965.5 7590.5 5799.5 6978.04 5938.5 7081.5 6388.5"/><polygon class="cls-3" points="6847.5 5427.5 6886.6 5419.45 6900.5 5486.5 6999.5 5465.5 7014.5 5536.5 7151.78 5508.34 7170.85 5601 6913.5 5660.5 6896.5 5664.5 6847.5 5427.5"/><polygon class="cls-3" points="8231.5 7243.5 8294.5 7574.5 8762.5 7484.5 8709.5 7201.5 8636.5 7165.5 8231.5 7243.5"/><polygon class="cls-3" points="8794.5 6844.5 8643.43 7168.92 8709.5 7201.5 8723.5 7207.5 8718.96 7223.01 8873.5 7297.5 9057.5 6894.5 8839.5 6791.5 8812.48 6851.68 8794.5 6844.5"/><path class="cls-3" d="M8269.91,7445.3l-41.41,7.2-132-600.82s-13.59-109.47,86.71-131.33,258.29-58.85,258.29-58.85l120.14,518.42L8231.5,7243.5Z" transform="translate(0 0)"/><path class="cls-3" d="M8681.5,6340.5c0,2-210,428-210,428l35,18,18-31,196,92,44-92,174-85-48,99,197,44,183-375-40-18,8-15-309-146-16,32-202,65Z" transform="translate(0 0)"/><polygon class="cls-3" points="7975.5 7816.5 8201.5 7774.5 8250.5 7806.5 8263.5 7875.5 8287.5 7891.5 8306.64 7979.35 8309.5 7992.5 8254.22 8000 8034.79 8000 8022.5 7933.5 7991.5 7912.5 7975.5 7816.5"/><path class="cls-3" d="M8266.5,7788.5c1,6,21.36,104.65,21.36,104.65l18.78,86.2,86.86-18.85,8.3,39.5h121l133.66-30.5,8,30.5h140.43l131.62-29.5-76-313Z" transform="translate(0 0)"/><polygon class="cls-3" points="9165.5 7025.5 8976.5 7427.5 9194.5 7529.5 9222.5 7470.5 9239.5 7478.5 9393.5 7152.5 9312.5 7114.5 9319.5 7098.5 9165.5 7025.5"/><path class="cls-3" d="M9444.5,6496.5c-1,1-195,413-195,413l219,102,28-61,19,9,158-338-81-38,6-14Z" transform="translate(0 0)"/><polygon class="cls-3" points="9534.5 7271.5 9349.5 7646.5 9579.5 7758.5 9765.47 7370 9534.5 7271.5"/><polygon class="cls-3" points="9525.5 7263.5 9705.41 7344.39 9740.65 7263.5 9801.5 7287.5 9905.5 7052.5 9962.5 7076.5 10072.5 6835.5 9780.5 6707.5 9525.5 7263.5"/><polygon class="cls-3" points="9437.5 6360.5 9711.5 6490.5 9830.5 6239.5 9695.5 6186.5 9683.5 6218.5 9641.5 6199.5 9630.5 6227.5 9520.5 6175.5 9437.5 6360.5"/><polygon class="cls-3" points="9592.5 6202.5 8987.5 5922.5 9002.5 5885.5 8972.5 5870.5 9124.5 5526.5 9168.5 5513.5 9243.5 5528.5 9364.5 5581.5 9424.5 5637.5 9371.5 5754.5 9444.5 5813.5 9437.5 5827.29 9689.5 5935.5 9587.5 6164.5 9603.5 6173.5 9592.5 6202.5"/><polygon class="cls-3" points="9734.61 5858 9699.5 5932.5 9709.5 5969.5 9681.5 6027.5 9695.5 6073.5 9882.5 6167.5 9951.5 6016.5 9930.5 5946.5 9734.61 5858"/><polygon class="cls-3" points="9478.5 6156.5 9061.5 5968.5 9023.11 6157.5 9392.5 6334.5 9478.5 6156.5"/><polygon class="cls-3" points="8147.5 6458.5 8168.5 6549.5 8260.5 6530.5 8286.5 6523.5 8278.5 6493.5 8293.27 6490.86 8276.5 6428.5 8147.5 6458.5"/><polygon class="cls-3" points="8367.5 5841.5 8568.5 5932.5 8608.11 5841.5 8677.5 5872.5 8694.5 5835.5 8820.5 5890.5 9035.5 5404.5 8636.5 5242.5 8367.5 5841.5"/><polygon class="cls-3" points="7846.5 5686.5 7902.5 5958.5 8171.5 5901.5 8174.5 5914.5 8266.5 5921.5 8293.5 6050.5 8376.5 6055.5 8503.5 6029.5 8575.5 5994.5 8558.68 5928.06 8367.5 5841.5 8486.54 5576.44 8482.5 5555.5 7846.5 5686.5"/><polyline class="cls-3" points="7772.5 5285.5 7828.18 5555.5 8439.5 5410.5 8397.5 5231.5 8443.5 5221.5 8390.5 5021.5 8117.5 5080.5 8140.5 5201.5 7769.15 5288.5"/></g><g id="城市道路"><g id="转盘路1路肩"><circle class="cls-4" cx="7672.25" cy="5168.75" r="58.75"/></g><g id="转盘路2路肩"><circle class="cls-4" cx="8857.25" cy="7550.75" r="58.75"/></g><g id="城市道路路肩"><path class="cls-5" d="M6132.5,5372.5l104-27s6,2,35-14,40-22,40-22l70-33s51-20,59-22,23-8,33-10,21-4,21-4,28-5,42-6,41-3,41-3,22-2,41-4,64-10,64-10l17-3,76-17,54-12,61-12,42-9c9.81-1.41,25.13-3.72,44-7,18.6-3.23,22.07-4.18,39-7,5.75-1,12.07-2,47-7,22.33-3.22,33.5-4.83,42-6,22-3,31.84-4.18,62-8s22.83-3,85-11c39.1-5,51.82-6.62,63-8,27.27-3.36,41.28-5.08,60-7,19.67-2,37.48-3.85,57-5a767,767,0,0,1,89,0l20,7,23,14,17,12,18,10" transform="translate(0 0)"/><path class="cls-5" d="M7295.5,7511.5l-35,9-162,39-.06,0c-1.15.32-17.11,4.76-21.94,6-5.74,1.45-6.21,1.47-21,5-14.4,3.44-14.87,3.63-21,5-7.19,1.61-7,1.44-19,4-11.77,2.51-12.57,2.8-23,5-9.55,2-14.32,3-20,4-9.35,1.6-16.48,2.46-21,3-9,1.07-16.39,1.67-21,2-3.77.27-11.33.76-21,1-9.39.23-16.32.12-23,0-11.42-.2-17.14-.3-23-1a94.14,94.14,0,0,1-20-4,87.17,87.17,0,0,1-19-9,102.85,102.85,0,0,1-17-13c-4.82-4.54-7.88-8.36-14-16-4-5-7.62-9.5-12-16a243.94,243.94,0,0,1-15-26c-2.15-4.14-3.85-7.61-5-10l-12-39-14-62-90-365-27-107-21-85-48-185-15-54-23-84-55-190-30-99-31-95-8-20s-3-6-7-9a54,54,0,0,1-8-8l-7-19-23-77-66-262-47-199-12-49-46-167" transform="translate(0 0)"/><path class="cls-5" d="M8779.5,7555.5a129.32,129.32,0,0,0-21,0,125.61,125.61,0,0,0-23,4,149,149,0,0,0-19,7,197.47,197.47,0,0,0-19,9c-3.86,2.1-4.08,2.41-18,11-6.77,4.18-11.65,7.19-18,11-2.75,1.65-7.54,4.46-17,10-15.35,9-16.78,9.8-19,11-7.76,4.19-14.15,7.23-18,9-5.06,2.33-9.79,4.2-19,8-18.74,7.73-23.62,9.28-26,10-2.58.79-8.38,2.19-20,5-11.38,2.75-12,2.8-21,5-13.76,3.38-13.32,3.55-20,5-8,1.74-10,1.78-22,4-11.11,2.06-11.38,2.46-20,4-11.69,2.08-18.31,2.82-41,6-10.08,1.41-15.12,2.12-21,3-16.78,2.51-19.44,3.26-42,7-17.5,2.9-39.29,6.33-50,9l-12,3-8,2c-9.82,2.45-22.68,5.07-33.64,7.39-11.34,2.39-21.57,4.58-34.36,7.61-8.58,2-11.21,2.8-20,5-33.37,8.36-56.53,12.59-121,25-23,4.43-41,7.92-62,12-50.91,9.88-60.34,11.79-83,16-6.63,1.23-24.84,4.5-61,11l-78,14c-40.53,7-65.87,10.94-84,15-2.07.46-9.69,2.19-20,4s-17.93,2.75-20,3c-8.13,1-14.08,1.45-22,2-8.19.57-14.23.9-22,1-4.73.06-6.21-.09-21,0-6.76,0-8,.09-11,0-8-.23-11.92-.92-22-2-12.46-1.34-11-.77-22-2-11.47-1.28-19.9-2.65-22-3-3.06-.51-3.42-.6-21-4-16.21-3.13-17.08-3.28-20-4-4.94-1.22-10-2.82-20-6s-15.19-4.82-21-7c-4.1-1.54-10.73-4.05-19-8-9.28-4.44-17-8.13-26-15a107.17,107.17,0,0,1-16-15,118.6,118.6,0,0,1-12-17,172.53,172.53,0,0,1-10-19c-7.14-15.68-11.82-29-16-41-13.54-38.86-12.51-36.44-16-46-9.37-25.65-10.66-26.25-15-40-4.86-15.41-3.43-15.25-11-48-4.4-19-9-36.91-17-68-.88-3.41-2.69-10.44-5-20-2.86-11.86-4.63-19.93-6-26-4-17.78-7.05-29.27-10-41-8.71-34.63-21.5-90.81-25-106-17.52-76.09-51-206.43-96-391-47.85-196.23-78.07-328-89-370-4.15-15.92-8.17-29.08-12-50-1.22-6.66-3.15-18.09-7-34-2.32-9.6-4.39-16.65-5-19-9.84-37.76-16.76-66.52-20-80-17.57-73.18-19.77-84.31-29-122-8.76-35.75-11.33-44.32-26-101-29.1-112.44-25-102.16-42-166-22.08-83.05-31.23-108.94-49-181-9.87-40-16-66-16-66-9.92-42-13.87-61-19-81-1-3.84-2.87-11-5-21-1.92-9-2-10.62-4-20-1.2-5.53-2.47-10.68-5-21-1.1-4.46-1.39-5.6-5-20-2.89-11.52-4.33-17.28-5-20-1.59-6.45-3.59-14.6-6-25-3.07-13.26-2.79-12.91-5-22-2.38-9.81-2.86-10.86-5-20-1.95-8.3-2.15-10-4-18q-2.33-10-5-20l-2-10-4-18-4-22-3-19-2-13-5-20-9-38-27-123" transform="translate(0 0)"/><path class="cls-5" d="M7681.5,5243.5q2,13.91,4,28c1.66,11.89,2.18,16.16,3,22,.69,4.92,2.51,17.41,7,41,4.16,21.86,12.53,63.38,24,117q15.49,70.5,31,141,2.51,9.49,5,19c3.33,15.18,8.45,38.49,15,68,.52,2.32,1.71,7.68,2,9,14.18,63.76,55.13,257.95,84,382,8,34.34,16,68,16,68,6.36,26.72,11.39,47.52,19,79,9.88,40.84,13.41,55.18,21,87,4.8,20.12,5.63,24.12,9,38,8.29,34.17,14.92,59.11,17,67,18.79,71.24,42,175.18,67,277,8.05,32.79,14.89,59.72,17,68,4.79,18.8,8.38,32.6,9,35,14.43,55.61,45.69,191.28,68,284,31.06,129.09,75.93,304.39,80,320,.46,1.76,2.49,9.49,5,20,2.7,11.28,4.49,19.62,5,22,5.35,24.74,12.63,49.33,23,93,4.3,18.09,7.58,32.93,14,62,1.75,7.91,2.8,12.72,9,41,.28,1.29,4.54,20.68,9,41l7.36,33.39" transform="translate(0 0)"/><polyline class="cls-5" points="7253.29 7338.79 7586.5 7258.5 8080.5 7136.5 8112.5 7128.5"/><path class="cls-5" d="M8040.5,7089.5" transform="translate(0 0)"/><polyline class="cls-5" points="6534.88 6603.86 6588.5 6589.5 6615.5 6582.5 6636.5 6576.5 6677.5 6565.5 6734.5 6550.5 6812.5 6530.5 6870.5 6516.5 6928.5 6501.5 6969.5 6491.5 7020.5 6479.5 7043.85 6474.39 7078.5 6465.5 7114.5 6457.5 7133.5 6452.5 7236.5 6428.5 7339.5 6404.5 7419.5 6385.5 7501.5 6366.5 7583.5 6347.5 7604.5 6342.5 7624.5 6337.5 7645.5 6332.5 7666.5 6327.5 7727.5 6313.5 7830.5 6289.5 7904.55 6271.38 7946.5 6261.5 7999.5 6248.5 8038.5 6239.5 8096.5 6225.5 8158.5 6210.5 8232.5 6192.5 8275.5 6182.5 8331.5 6169.5 8393.5 6155.5 8452.5 6141.5 8515.5 6127.5 8556.5 6117.5 8617.5 6103.5 8658.5 6093.5 8719.5 6078.5 8739.5 6075.5 8764.5 6070.5 8784.5 6066.5 8803.5 6062.5 8823.5 6060.5 8857.5 6059.5 8865.66 6059.5 8900.5 6060.5"/><path class="cls-5" d="M7068.75,6576.49l64.75-16,95-22,57-14,40-9,40-9,20-5,20-4,21-4,19-5,20-4,21-5,21-5,21-4,21-5,20-5,19-4,20-4,22-5,20-5,20-4,19-5,64-14,21-4,20-5,20-5,21-5,22-5,40-10,32.59-8.41,35.41-8.59,19-5,20-5,41-9,39-9,20-4,20-6,22-4,20-5,21-5,21-5,21-5,21-5,21-5,21-5,19-4,22-5,20-5,20-5,21-5,21-4,24-7,30-6,34-8,33-9,20-5,70-16,20-5,20-5,20-4,20-4,25-4,21-2,21-2,21-2,22-5,20-6,20-8,19-9,21-10,36,25a379.37,379.37,0,0,0,34,27c14.07,9.92,25.44,16.5,35,22,14.76,8.49,26.21,14.18,40,21,20,9.87,35.2,16.74,38,18,62.41,28.16,144,69.71,249,117,19.18,8.64,38,17,38,17,42.24,18.77,59.63,26.06,82,36,9,4,12.22,5.51,95,45,59.07,28.18,76.52,36.52,107,51,35.65,16.93,53.48,25.4,57,27,41.91,19,86,37.32,120,55,11.72,6.1,19,10,19,10,23.64,12.65,27.81,15.69,37,20,15.78,7.4,28.69,10.27,41,13,14.26,3.17,29.72,4.66,57,6,23.31,1.15,51,2.51,84-3,19.8-3.3,55.78-9.65,94-33,34.27-20.93,53.28-45.1,76-74,14.75-18.76,37.28-47.85,55-92,16.75-41.73,20.88-76.16,23-95a400.35,400.35,0,0,0-10-144c-13-50.56-32.86-85.79-51-118-10.26-18.22-19.71-34.83-36-55-11.81-14.63-36-44.06-73-67-19.68-12.18-58.69-32.23-66-36-13.5-7-14.58-7.22-72-36-21.38-10.72-26.17-13.14-38-19-22.5-11.14-31.6-15.43-57-28-20.85-10.32-23.63-11.87-38-19-34.55-17.13-61.61-29.5-89-42-36.94-16.85-32.12-14-76-34,0,0-34.92-15.92-74-35,0,0-16-7.82-39-20-3-1.58-9.55-5.07-18-10-10.15-5.91-15.35-9-22-14a152,152,0,0,1-16-14c-4.61-4.64-8.63-8.66-13-15a88,88,0,0,1-10-19c-.86-2.31-1.28-3.77-5-20-4-17.55-4-17.91-5-21a122.76,122.76,0,0,0-9-21c-3.33-6.15-4.58-6.8-11-18-5.47-9.54-6.23-11.82-10-17a95.13,95.13,0,0,0-15-16,146,146,0,0,0-16-12c-6.18-4.2-11-7-16-10-2-1.16-8.61-5.06-18-10-8.1-4.26-14.53-7.35-18-9-31.86-15.13-76-34-76-34-24.59-10.51-38.36-16.4-59-25-29.5-12.3-52.41-21.55-61-25-17.53-7-47.17-18.9-73.91-29.67-20.82-8.38-39.88-16.1-50.09-20.33-28.9-12-43.58-18.2-57-24-17.94-7.75-20.63-9.13-39-17-24.2-10.37-29.42-12.27-57-24-17.63-7.5-31.62-13.58-51-22-26.94-11.71-25.87-11.39-39-17-19-8.14-36.81-15.74-58-24-19.55-7.62-33.35-12.43-58-21-20.37-7.08-47.88-16.42-81-27l-42-14" transform="translate(0 0)"/><path class="cls-5" d="M7864.5,6106.5c12.6-3.46,31.61-8.51,55-14,16.7-3.92,18.83-4.13,50-11,28.44-6.27,50.58-11.37,75-17,12.55-2.89,32.85-7.19,43-10,.19-.05,5.21-1.45,12-3,6-1.38,8.78-1.82,10-2a95.87,95.87,0,0,1,11-1c1.93-.07,2.12,0,10,0,4.85,0,6.18,0,7,0,8.21.08,16,3.08,21,5a76,76,0,0,1,19,10c8.56,6.29,13.46,12.89,18,19a129,129,0,0,1,11,18c2.8,5.52,4.54,10,8,19a207.26,207.26,0,0,1,7,20,170.19,170.19,0,0,1,4,19c1.42,8.12,3.63,19.66,7,34" transform="translate(0 0)"/><polyline class="cls-5" points="7361.5 7312.71 7349.5 7258.5 7318.5 7132.5 7287.5 7008.5 7219.5 6742.5 7175.45 6550.78 7153.79 6447.77"/><path class="cls-5" d="M7763.4,5647.44l55.1-12.94,384-76c69.61-14.68,122.32-26,145-31,7.1-1.58,12.17-2.74,22-5,23.23-5.34,35-8.05,41-10,10.93-3.54,24.2-7.94,39-18a133.34,133.34,0,0,0,14-11c6.74-5.95,17.44-15.53,27-31,5.61-9.07,12.76-20.93,15-38a90.91,90.91,0,0,0,0-21,105.54,105.54,0,0,0-4-20c-5.48-18.53-12.8-43.3-15-65-1.29-12.7-4.4-43.35,12-68a145,145,0,0,1,12-15c8.85-9.84,16.89-16.39,30-27,4.45-3.6,10.56-8.43,18-14l32-28a347.23,347.23,0,0,0-11-56,284.72,284.72,0,0,0-14-39c-4-8.84-7.67-15.6-9-18-4.39-7.95-8.23-13.57-11-18-12.28-19.64-18.42-29.46-25-37-3-3.49-14.81-16.65-31-26a73.93,73.93,0,0,0-19-8,105.35,105.35,0,0,0-12-2,180.64,180.64,0,0,0-22-2,163.5,163.5,0,0,0-21,1c-6.14.67-6.06,1-19,3-7.9,1.22-9.16,1.29-21,3-4.18.6-8.72,1.27-20,3-30.87,4.72-46.3,7.08-63,10-2.64.46-10.06,1.77-22,4-33.73,6.31-61.43,12.17-103,21-68.58,14.57-61.9,13.22-80,17-37.82,7.89-41.58,8.47-62,13-34,7.56-36.87,8.91-62,14-27.2,5.51-40.8,8.31-53,10-10.21,1.42-23.7,3-42,8-8.32,2.28-14.39,4.4-19,6-25.62,8.88-44.05,18.52-62,28a416.47,416.47,0,0,0-36,21c-7.07,4.69-12.85,8.88-17,12" transform="translate(0 0)"/><path class="cls-5" d="M8014.23,6721.73c13.55-3.42,32.48-8.07,55.27-13.23,18.26-4.14,32-7,51-11,27.44-5.75,43.09-9,64-13,42.28-8,53.22-8.89,84-16,4.52-1,16.79-2.39,32-8a157,157,0,0,0,18-8c5.8-3,22-11.58,57-38,8.26-6.24,20.08-15.37,34-27,9.7-8.1,16.46-14.4,30-27,8.87-8.26,13-12.32,17-19,1.88-3.1,3-5.54,9-19,3.49-7.83,5.26-11.73,8-18,1.64-3.75,3.52-8,16-35,16.77-36.29,15.85-34,18-39,9.7-22.59,5.59-16.26,15-39a82,82,0,0,0,6-20,106,106,0,0,0,1-16c.11-7.37.2-13.8-1-21-1.44-8.59-4.07-14.38-6-19a223.92,223.92,0,0,1-12-39" transform="translate(0 0)"/><line class="cls-5" x1="8503.5" y1="6242.5" x2="8510.54" y2="6276.69"/><path class="cls-5" d="M9122.5,5366.5c-12.3,29.21-9.16,23.2-16,40-14.36,35.23-20.15,50.35-32,76-6.35,13.74-15.18,32.14-18,38-8.64,18-11.89,24.1-19,39-6.55,13.72-10.94,23.42-18,39-7.94,17.51-13.86,30.94-24,54-16.58,37.73-15.88,36.65-25,57-8,17.92-10.32,22.63-17,38-4.12,9.48-8.08,19-16,38-3,7.28-5.24,12.63-8,20-2.06,5.51-3.74,10.42-7,20-5,14.55-7.47,21.95-9,28-1.25,4.95-2.17,9.63-4,19-.81,4.13-2.31,11.92-4,22-1.62,9.7-2.43,14.55-3,20a192.62,192.62,0,0,0-1,21c0,7.3-.07,58.82,0,70,.09,12.92,0,31.78-1,55l-4,86" transform="translate(0 0)"/><polyline class="cls-5" points="8888.5 7481.5 8952.5 7339.5 9010.5 7218.5 9082.5 7068.5 9128.5 6973.5 9194.5 6830.5 9265.5 6682.5 9331.5 6551.5 9383.5 6439.5 9397.84 6407.34"/><path class="cls-5" d="M9507.5,7881.5l-266-136-88-43c-2.38-1.21-5.83-2.94-10-5-9.79-4.83-14.69-7.25-19-9-3.87-1.57-8.91-3.05-19-6-9.68-2.83-14.78-4.33-22-6-8.94-2.07-9-1.51-21-4-10.76-2.23-10.89-2.68-22-5-9.62-2-11.45-2.07-21-4-7.37-1.49-12.66-2.78-22-5-9.58-2.28-14.38-3.42-20-5-5.37-1.51-11.36-3.21-19-6a151.83,151.83,0,0,1-19-8,107.23,107.23,0,0,1-19-12,101.18,101.18,0,0,1-16-16" transform="translate(0 0)"/><path class="cls-5" d="M10077.5,5939.5l-320.85,634.87c-133.3,282.56-194.13,412-224.15,476.13-11.11,23.74-43.07,92.11-91,180-20.42,37.45-29.43,54.14-37,66-3,4.69-7.28,11.25-13,21-12.65,21.56-20.43,38.44-23,44-21.31,46-44.9,90.91-66,137-18.47,40.34-45.58,98.47-82,173l-27.79,50.16" transform="translate(0 0)"/></g><g id="城市道路路面"><path class="cls-6" d="M6132.5,5372.5l104-27s6,2,35-14,40-22,40-22l70-33s51-20,59-22,23-8,33-10,21-4,21-4,28-5,42-6,41-3,41-3,22-2,41-4,64-10,64-10l17-3,76-17,54-12,61-12,42-9c9.81-1.41,25.13-3.72,44-7,18.6-3.23,22.07-4.18,39-7,5.75-1,12.07-2,47-7,22.33-3.22,33.5-4.83,42-6,22-3,31.84-4.18,62-8s22.83-3,85-11c39.1-5,51.82-6.62,63-8,27.27-3.36,41.28-5.08,60-7,19.67-2,37.48-3.85,57-5a767,767,0,0,1,89,0l20,7,23,14,17,12,18,10" transform="translate(0 0)"/><path class="cls-6" d="M7295.5,7511.5l-35,9-162,39-.06,0c-1.15.32-17.11,4.76-21.94,6-5.74,1.45-6.21,1.47-21,5-14.4,3.44-14.87,3.63-21,5-7.19,1.61-7,1.44-19,4-11.77,2.51-12.57,2.8-23,5-9.55,2-14.32,3-20,4-9.35,1.6-16.48,2.46-21,3-9,1.07-16.39,1.67-21,2-3.77.27-11.33.76-21,1-9.39.23-16.32.12-23,0-11.42-.2-17.14-.3-23-1a94.14,94.14,0,0,1-20-4,87.17,87.17,0,0,1-19-9,102.85,102.85,0,0,1-17-13c-4.82-4.54-7.88-8.36-14-16-4-5-7.62-9.5-12-16a243.94,243.94,0,0,1-15-26c-2.15-4.14-3.85-7.61-5-10l-12-39-14-62-90-365-27-107-21-85-48-185-15-54-23-84-55-190-30-99-31-95-8-20s-3-6-7-9a54,54,0,0,1-8-8l-7-19-23-77-66-262-47-199-12-49-46-167" transform="translate(0 0)"/><path class="cls-6" d="M8779.5,7555.5a129.32,129.32,0,0,0-21,0,125.61,125.61,0,0,0-23,4,149,149,0,0,0-19,7,197.47,197.47,0,0,0-19,9c-3.86,2.1-4.08,2.41-18,11-6.77,4.18-11.65,7.19-18,11-2.75,1.65-7.54,4.46-17,10-15.35,9-16.78,9.8-19,11-7.76,4.19-14.15,7.23-18,9-5.06,2.33-9.79,4.2-19,8-18.74,7.73-23.62,9.28-26,10-2.58.79-8.38,2.19-20,5-11.38,2.75-12,2.8-21,5-13.76,3.38-13.32,3.55-20,5-8,1.74-10,1.78-22,4-11.11,2.06-11.38,2.46-20,4-11.69,2.08-18.31,2.82-41,6-10.08,1.41-15.12,2.12-21,3-16.78,2.51-19.44,3.26-42,7-17.5,2.9-39.29,6.33-50,9l-12,3-8,2c-9.82,2.45-22.68,5.07-33.64,7.39-11.34,2.39-21.57,4.58-34.36,7.61-8.58,2-11.21,2.8-20,5-33.37,8.36-56.53,12.59-121,25-23,4.43-41,7.92-62,12-50.91,9.88-60.34,11.79-83,16-6.63,1.23-24.84,4.5-61,11l-78,14c-40.53,7-65.87,10.94-84,15-2.07.46-9.69,2.19-20,4s-17.93,2.75-20,3c-8.13,1-14.08,1.45-22,2-8.19.57-14.23.9-22,1-4.73.06-6.21-.09-21,0-6.76,0-8,.09-11,0-8-.23-11.92-.92-22-2-12.46-1.34-11-.77-22-2-11.47-1.28-19.9-2.65-22-3-3.06-.51-3.42-.6-21-4-16.21-3.13-17.08-3.28-20-4-4.94-1.22-10-2.82-20-6s-15.19-4.82-21-7c-4.1-1.54-10.73-4.05-19-8-9.28-4.44-17-8.13-26-15a107.17,107.17,0,0,1-16-15,118.6,118.6,0,0,1-12-17,172.53,172.53,0,0,1-10-19c-7.14-15.68-11.82-29-16-41-13.54-38.86-12.51-36.44-16-46-9.37-25.65-10.66-26.25-15-40-4.86-15.41-3.43-15.25-11-48-4.4-19-9-36.91-17-68-.88-3.41-2.69-10.44-5-20-2.86-11.86-4.63-19.93-6-26-4-17.78-7.05-29.27-10-41-8.71-34.63-21.5-90.81-25-106-17.52-76.09-51-206.43-96-391-47.85-196.23-78.07-328-89-370-4.15-15.92-8.17-29.08-12-50-1.22-6.66-3.15-18.09-7-34-2.32-9.6-4.39-16.65-5-19-9.84-37.76-16.76-66.52-20-80-17.57-73.18-19.77-84.31-29-122-8.76-35.75-11.33-44.32-26-101-29.1-112.44-25-102.16-42-166-22.08-83.05-31.23-108.94-49-181-9.87-40-16-66-16-66-9.92-42-13.87-61-19-81-1-3.84-2.87-11-5-21-1.92-9-2-10.62-4-20-1.2-5.53-2.47-10.68-5-21-1.1-4.46-1.39-5.6-5-20-2.89-11.52-4.33-17.28-5-20-1.59-6.45-3.59-14.6-6-25-3.07-13.26-2.79-12.91-5-22-2.38-9.81-2.86-10.86-5-20-1.95-8.3-2.15-10-4-18q-2.33-10-5-20l-2-10-4-18-4-22-3-19-2-13-5-20-9-38-27-123" transform="translate(0 0)"/><path class="cls-6" d="M7681.5,5243.5q2,13.91,4,28c1.66,11.89,2.18,16.16,3,22,.69,4.92,2.51,17.41,7,41,4.16,21.86,12.53,63.38,24,117q15.49,70.5,31,141,2.51,9.49,5,19c3.33,15.18,8.45,38.49,15,68,.52,2.32,1.71,7.68,2,9,14.18,63.76,55.13,257.95,84,382,8,34.34,16,68,16,68,6.36,26.72,11.39,47.52,19,79,9.88,40.84,13.41,55.18,21,87,4.8,20.12,5.63,24.12,9,38,8.29,34.17,14.92,59.11,17,67,18.79,71.24,42,175.18,67,277,8.05,32.79,14.89,59.72,17,68,4.79,18.8,8.38,32.6,9,35,14.43,55.61,45.69,191.28,68,284,31.06,129.09,75.93,304.39,80,320,.46,1.76,2.49,9.49,5,20,2.7,11.28,4.49,19.62,5,22,5.35,24.74,12.63,49.33,23,93,4.3,18.09,7.58,32.93,14,62,1.75,7.91,2.8,12.72,9,41,.28,1.29,4.54,20.68,9,41l7.36,33.39" transform="translate(0 0)"/><polyline class="cls-6" points="7253.29 7338.79 7586.5 7258.5 8080.5 7136.5 8112.5 7128.5"/><path class="cls-6" d="M8040.5,7089.5" transform="translate(0 0)"/><polyline class="cls-6" points="6534.88 6603.86 6588.5 6589.5 6615.5 6582.5 6636.5 6576.5 6677.5 6565.5 6734.5 6550.5 6812.5 6530.5 6870.5 6516.5 6928.5 6501.5 6969.5 6491.5 7020.5 6479.5 7043.85 6474.39 7078.5 6465.5 7114.5 6457.5 7133.5 6452.5 7236.5 6428.5 7339.5 6404.5 7419.5 6385.5 7501.5 6366.5 7583.5 6347.5 7604.5 6342.5 7624.5 6337.5 7645.5 6332.5 7666.5 6327.5 7727.5 6313.5 7830.5 6289.5 7904.55 6271.38 7946.5 6261.5 7999.5 6248.5 8038.5 6239.5 8096.5 6225.5 8158.5 6210.5 8232.5 6192.5 8275.5 6182.5 8331.5 6169.5 8393.5 6155.5 8452.5 6141.5 8515.5 6127.5 8556.5 6117.5 8617.5 6103.5 8658.5 6093.5 8719.5 6078.5 8739.5 6075.5 8764.5 6070.5 8784.5 6066.5 8803.5 6062.5 8823.5 6060.5 8857.5 6059.5 8865.66 6059.5 8900.5 6060.5"/><path class="cls-6" d="M7068.75,6576.49l64.75-16,95-22,57-14,40-9,40-9,20-5,20-4,21-4,19-5,20-4,21-5,21-5,21-4,21-5,20-5,19-4,20-4,22-5,20-5,20-4,19-5,64-14,21-4,20-5,20-5,21-5,22-5,40-10,32.59-8.41,35.41-8.59,19-5,20-5,41-9,39-9,20-4,20-6,22-4,20-5,21-5,21-5,21-5,21-5,21-5,21-5,19-4,22-5,20-5,20-5,21-5,21-4,24-7,30-6,34-8,33-9,20-5,70-16,20-5,20-5,20-4,20-4,25-4,21-2,21-2,21-2,22-5,20-6,20-8,19-9,21-10,36,25a379.37,379.37,0,0,0,34,27c14.07,9.92,25.44,16.5,35,22,14.76,8.49,26.21,14.18,40,21,20,9.87,35.2,16.74,38,18,62.41,28.16,144,69.71,249,117,19.18,8.64,38,17,38,17,42.24,18.77,59.63,26.06,82,36,9,4,12.22,5.51,95,45,59.07,28.18,76.52,36.52,107,51,35.65,16.93,53.48,25.4,57,27,41.91,19,86,37.32,120,55,11.72,6.1,19,10,19,10,23.64,12.65,27.81,15.69,37,20,15.78,7.4,28.69,10.27,41,13,14.26,3.17,29.72,4.66,57,6,23.31,1.15,51,2.51,84-3,19.8-3.3,55.78-9.65,94-33,34.27-20.93,53.28-45.1,76-74,14.75-18.76,37.28-47.85,55-92,16.75-41.73,20.88-76.16,23-95a400.35,400.35,0,0,0-10-144c-13-50.56-32.86-85.79-51-118-10.26-18.22-19.71-34.83-36-55-11.81-14.63-36-44.06-73-67-19.68-12.18-58.69-32.23-66-36-13.5-7-14.58-7.22-72-36-21.38-10.72-26.17-13.14-38-19-22.5-11.14-31.6-15.43-57-28-20.85-10.32-23.63-11.87-38-19-34.55-17.13-61.61-29.5-89-42-36.94-16.85-32.12-14-76-34,0,0-34.92-15.92-74-35,0,0-16-7.82-39-20-3-1.58-9.55-5.07-18-10-10.15-5.91-15.35-9-22-14a152,152,0,0,1-16-14c-4.61-4.64-8.63-8.66-13-15a88,88,0,0,1-10-19c-.86-2.31-1.28-3.77-5-20-4-17.55-4-17.91-5-21a122.76,122.76,0,0,0-9-21c-3.33-6.15-4.58-6.8-11-18-5.47-9.54-6.23-11.82-10-17a95.13,95.13,0,0,0-15-16,146,146,0,0,0-16-12c-6.18-4.2-11-7-16-10-2-1.16-8.61-5.06-18-10-8.1-4.26-14.53-7.35-18-9-31.86-15.13-76-34-76-34-24.59-10.51-38.36-16.4-59-25-29.5-12.3-52.41-21.55-61-25-17.53-7-47.17-18.9-73.91-29.67-20.82-8.38-39.88-16.1-50.09-20.33-28.9-12-43.58-18.2-57-24-17.94-7.75-20.63-9.13-39-17-24.2-10.37-29.42-12.27-57-24-17.63-7.5-31.62-13.58-51-22-26.94-11.71-25.87-11.39-39-17-19-8.14-36.81-15.74-58-24-19.55-7.62-33.35-12.43-58-21-20.37-7.08-47.88-16.42-81-27l-42-14" transform="translate(0 0)"/><path class="cls-6" d="M7864.5,6106.5c12.6-3.46,31.61-8.51,55-14,16.7-3.92,18.83-4.13,50-11,28.44-6.27,50.58-11.37,75-17,12.55-2.89,32.85-7.19,43-10,.19-.05,5.21-1.45,12-3,6-1.38,8.78-1.82,10-2a95.87,95.87,0,0,1,11-1c1.93-.07,2.12,0,10,0,4.85,0,6.18,0,7,0,8.21.08,16,3.08,21,5a76,76,0,0,1,19,10c8.56,6.29,13.46,12.89,18,19a129,129,0,0,1,11,18c2.8,5.52,4.54,10,8,19a207.26,207.26,0,0,1,7,20,170.19,170.19,0,0,1,4,19c1.42,8.12,3.63,19.66,7,34" transform="translate(0 0)"/><polyline class="cls-6" points="7361.5 7312.71 7349.5 7258.5 7318.5 7132.5 7287.5 7008.5 7219.5 6742.5 7175.45 6550.78 7153.79 6447.77"/><path class="cls-6" d="M7763.4,5647.44l55.1-12.94,384-76c69.61-14.68,122.32-26,145-31,7.1-1.58,12.17-2.74,22-5,23.23-5.34,35-8.05,41-10,10.93-3.54,24.2-7.94,39-18a133.34,133.34,0,0,0,14-11c6.74-5.95,17.44-15.53,27-31,5.61-9.07,12.76-20.93,15-38a90.91,90.91,0,0,0,0-21,105.54,105.54,0,0,0-4-20c-5.48-18.53-12.8-43.3-15-65-1.29-12.7-4.4-43.35,12-68a145,145,0,0,1,12-15c8.85-9.84,16.89-16.39,30-27,4.45-3.6,10.56-8.43,18-14l32-28a347.23,347.23,0,0,0-11-56,284.72,284.72,0,0,0-14-39c-4-8.84-7.67-15.6-9-18-4.39-7.95-8.23-13.57-11-18-12.28-19.64-18.42-29.46-25-37-3-3.49-14.81-16.65-31-26a73.93,73.93,0,0,0-19-8,105.35,105.35,0,0,0-12-2,180.64,180.64,0,0,0-22-2,163.5,163.5,0,0,0-21,1c-6.14.67-6.06,1-19,3-7.9,1.22-9.16,1.29-21,3-4.18.6-8.72,1.27-20,3-30.87,4.72-46.3,7.08-63,10-2.64.46-10.06,1.77-22,4-33.73,6.31-61.43,12.17-103,21-68.58,14.57-61.9,13.22-80,17-37.82,7.89-41.58,8.47-62,13-34,7.56-36.87,8.91-62,14-27.2,5.51-40.8,8.31-53,10-10.21,1.42-23.7,3-42,8-8.32,2.28-14.39,4.4-19,6-25.62,8.88-44.05,18.52-62,28a416.47,416.47,0,0,0-36,21c-7.07,4.69-12.85,8.88-17,12" transform="translate(0 0)"/><path class="cls-6" d="M8014.23,6721.73c13.55-3.42,32.48-8.07,55.27-13.23,18.26-4.14,32-7,51-11,27.44-5.75,43.09-9,64-13,42.28-8,53.22-8.89,84-16,4.52-1,16.79-2.39,32-8a157,157,0,0,0,18-8c5.8-3,22-11.58,57-38,8.26-6.24,20.08-15.37,34-27,9.7-8.1,16.46-14.4,30-27,8.87-8.26,13-12.32,17-19,1.88-3.1,3-5.54,9-19,3.49-7.83,5.26-11.73,8-18,1.64-3.75,3.52-8,16-35,16.77-36.29,15.85-34,18-39,9.7-22.59,5.59-16.26,15-39a82,82,0,0,0,6-20,106,106,0,0,0,1-16c.11-7.37.2-13.8-1-21-1.44-8.59-4.07-14.38-6-19a223.92,223.92,0,0,1-12-39" transform="translate(0 0)"/><line class="cls-6" x1="8503.5" y1="6242.5" x2="8510.54" y2="6276.69"/><path class="cls-6" d="M9122.5,5366.5c-12.3,29.21-9.16,23.2-16,40-14.36,35.23-20.15,50.35-32,76-6.35,13.74-15.18,32.14-18,38-8.64,18-11.89,24.1-19,39-6.55,13.72-10.94,23.42-18,39-7.94,17.51-13.86,30.94-24,54-16.58,37.73-15.88,36.65-25,57-8,17.92-10.32,22.63-17,38-4.12,9.48-8.08,19-16,38-3,7.28-5.24,12.63-8,20-2.06,5.51-3.74,10.42-7,20-5,14.55-7.47,21.95-9,28-1.25,4.95-2.17,9.63-4,19-.81,4.13-2.31,11.92-4,22-1.62,9.7-2.43,14.55-3,20a192.62,192.62,0,0,0-1,21c0,7.3-.07,58.82,0,70,.09,12.92,0,31.78-1,55l-4,86" transform="translate(0 0)"/><polyline class="cls-6" points="8888.5 7481.5 8952.5 7339.5 9010.5 7218.5 9082.5 7068.5 9128.5 6973.5 9194.5 6830.5 9265.5 6682.5 9331.5 6551.5 9383.5 6439.5 9397.84 6407.34"/><path class="cls-6" d="M9507.5,7881.5l-266-136-88-43c-2.38-1.21-5.83-2.94-10-5-9.79-4.83-14.69-7.25-19-9-3.87-1.57-8.91-3.05-19-6-9.68-2.83-14.78-4.33-22-6-8.94-2.07-9-1.51-21-4-10.76-2.23-10.89-2.68-22-5-9.62-2-11.45-2.07-21-4-7.37-1.49-12.66-2.78-22-5-9.58-2.28-14.38-3.42-20-5-5.37-1.51-11.36-3.21-19-6a151.83,151.83,0,0,1-19-8,107.23,107.23,0,0,1-19-12,101.18,101.18,0,0,1-16-16" transform="translate(0 0)"/><path class="cls-6" d="M10077.5,5939.5l-320.85,634.87c-133.3,282.56-194.13,412-224.15,476.13-11.11,23.74-43.07,92.11-91,180-20.42,37.45-29.43,54.14-37,66-3,4.69-7.28,11.25-13,21-12.65,21.56-20.43,38.44-23,44-21.31,46-44.9,90.91-66,137-18.47,40.34-45.58,98.47-82,173l-27.79,50.16" transform="translate(0 0)"/></g><g id="转盘路1路面"><circle class="cls-7" cx="7672.25" cy="5168.75" r="58.75"/></g><g id="转盘路2路面"><circle class="cls-7" cx="8857.25" cy="7550.75" r="58.75"/></g></g><g id="山路右侧"><g id="山路中心线"><path class="cls-8" d="M10090,5897c8.73-32.1,35-84.79,45-118,27.41-91.53,33.83-110.21,39-123a710.24,710.24,0,0,1,54-107c14.83-24,30.91-50,57-79,8.23-9.14,41.06-44.76,115-91,36.84-23,68.06-38,129-67,84.74-40.32,98.76-43.07,176-81,63.07-31,93.89-48.85,126-72,41.93-30.22,64.65-54,73-63,9.14-9.88,32.55-36.1,59-81,8.83-15,41.28-71.58,73-185,12-42.78,19-78.19,33-149,12.88-65,17-95.92,34-175,4.93-22.94,7-31.45,11-52,9.52-48.51,15.78-90.87,20-125,2.37-19.16,4.61-44,9-93,6.75-75.26,7.89-95,13-151,3.82-41.89,6.7-73.38,11-111,8.43-73.71,15.35-109.8,26-181,11-73.36,17.87-122.82,25-191,4.52-43.24,10-95.95,13-166,1.4-32.25,1.79-54.84,2-135,.26-99.94,2.17-203.79,3-229,2.11-63.78,3.09-52.71,4-93,2.46-108.75-5.28-163.91-7-230-1.48-56.74,1.06-137.44,20-237" transform="translate(0 0)"/><path class="cls-8" d="M10475.86,4396" transform="translate(0 0)"/></g><g id="山路路肩"><path class="cls-9" d="M10090,5897c8.73-32.1,35-84.79,45-118,27.41-91.53,33.83-110.21,39-123a710.24,710.24,0,0,1,54-107c14.83-24,30.91-50,57-79,8.23-9.14,41.06-44.76,115-91,36.84-23,68.06-38,129-67,84.74-40.32,98.76-43.07,176-81,63.07-31,93.89-48.85,126-72,41.93-30.22,64.65-54,73-63,9.14-9.88,32.55-36.1,59-81,8.83-15,41.28-71.58,73-185,12-42.78,19-78.19,33-149,12.88-65,17-95.92,34-175,4.93-22.94,7-31.45,11-52,9.52-48.51,15.78-90.87,20-125,2.37-19.16,4.61-44,9-93,6.75-75.26,7.89-95,13-151,3.82-41.89,6.7-73.38,11-111,8.43-73.71,15.35-109.8,26-181,11-73.36,17.87-122.82,25-191,4.52-43.24,10-95.95,13-166,1.4-32.25,1.79-54.84,2-135,.26-99.94,2.17-203.79,3-229,2.11-63.78,3.09-52.71,4-93,2.46-108.75-5.28-163.91-7-230-1.48-56.74,1.06-137.44,20-237" transform="translate(0 0)"/><path class="cls-9" d="M10475.86,4396" transform="translate(0 0)"/></g><g id="山路路面"><path class="cls-10" d="M10090,5897c8.73-32.1,35-84.79,45-118,27.41-91.53,33.83-110.21,39-123a710.24,710.24,0,0,1,54-107c14.83-24,30.91-50,57-79,8.23-9.14,41.06-44.76,115-91,36.84-23,68.06-38,129-67,84.74-40.32,98.76-43.07,176-81,63.07-31,93.89-48.85,126-72,41.93-30.22,64.65-54,73-63,9.14-9.88,32.55-36.1,59-81,8.83-15,41.28-71.58,73-185,12-42.78,19-78.19,33-149,12.88-65,17-95.92,34-175,4.93-22.94,7-31.45,11-52,9.52-48.51,15.78-90.87,20-125,2.37-19.16,4.61-44,9-93,6.75-75.26,7.89-95,13-151,3.82-41.89,6.7-73.38,11-111,8.43-73.71,15.35-109.8,26-181,11-73.36,17.87-122.82,25-191,4.52-43.24,10-95.95,13-166,1.4-32.25,1.79-54.84,2-135,.26-99.94,2.17-203.79,3-229,2.11-63.78,3.09-52.71,4-93,2.46-108.75-5.28-163.91-7-230-1.48-56.74,1.06-137.44,20-237" transform="translate(0 0)"/><path class="cls-10" d="M10475.86,4396" transform="translate(0 0)"/></g></g><g id="山路左侧"><path class="cls-11" d="M1560.29,2533.6l-3,107v92.52l8,47.48,20,47,24,44c8,12.13,17.59,26,29,41,17.57,23.06,36.9,48.19,67,75a473.86,473.86,0,0,0,39,31c13.74,9.91,26.07,17.81,43,28,34.4,20.68,58.22,32.88,88,49,56.36,30.49,45.48,26.45,88,49,38.44,20.38,56.42,28.49,87,48,21.41,13.65,42,29,42,29s10.86,8,21,16c16.05,12.65,36.65,30.32,68,61,33.12,32.4,32.09,34.16,76,79,4.76,4.86,18.39,18.74,35,38,4.2,4.86,9.07,10.52,15,18,10.5,13.22,19.85,25,29,41a225.76,225.76,0,0,1,20,46c6,19.73,7.7,35.3,9,48a333.06,333.06,0,0,1,1,50,362.88,362.88,0,0,1-6,49c-3.59,19.64-7.7,34-12,49-6,20.81-11.51,36.27-15,46-6.6,18.4-12.17,31.91-18,46-3.35,8.11-10.15,24.32-20,46-13,28.65-24.88,54.92-43,88-9.93,18.13-18.74,32.83-25,43a885.8,885.8,0,0,1-56,81c-14.63,18.6-26.66,32.16-31,37a725,725,0,0,1-71,69c-21.93,18.59-44,37.33-77,57a474.69,474.69,0,0,1-86,40c-13.06,4.55-33,9.7-73,20-41.36,10.65-57.88,13.84-71,16-16.71,2.75-31,5.93-50,6-5.11,0-16.66-.75-30-2-12.69-1.2-16.62-1.76-18-2a125.18,125.18,0,0,1-29-9c-78.89-34-108-51-108-51a838.83,838.83,0,0,1-82-55c-29.49-22.31-62.06-47-96-84-53-57.85-85.74-120.25-97-142-10.81-20.9-24.21-42.93-51-87a195.24,195.24,0,0,0-30-39c-7.55-7.54-20-19.79-40-30a150.56,150.56,0,0,0-49-15,180.53,180.53,0,0,0-49,0,194.58,194.58,0,0,0-48,13,206.93,206.93,0,0,0-44,23c-11.41,7.92-44.07,31.22-64,75-9.29,20.42-12.25,37.46-14,48-6.57,39.56-.3,71.91,5,98,2.58,12.68,6.05,24.45,13,48,9,30.46,16.65,52.79,31,94,28.46,81.68,27,76,32,92s15.7,51,25,95a459.63,459.63,0,0,1,8,49c1.68,15.92,3.11,30,2,49a238.21,238.21,0,0,1-8,49c-5.64,20.52-12.68,35.11-18,46-2.5,5.11-7.33,14.64-25,43-11.72,18.8-17.28,26.95-27,42-25.83,40-39,60.58-51,87-10.88,23.94-15.36,39.87-17,46a243,243,0,0,0-8,48,213.54,213.54,0,0,0,3,50c2.56,13.6,6.74,25.25,15,48,8.65,23.82,16.12,41.55,18,46,19.46,46,37.79,81,42,89,11.33,21.49,26.78,50.61,51,87a849.49,849.49,0,0,0,61,81c21.19,24.72,37.46,40.48,70,72,54,52.33,97,88.36,111,100,25.6,21.26,46.76,38.83,78,61,34,24.1,61.48,40.57,84,54,23.57,14,51,30.29,89,49,46.86,23,83.46,36.81,92,40,36.38,13.55,63,20.9,96,30,20.13,5.55,33,8.63,49,11,18.84,2.78,34,3.39,50,4,12.28.46,29.4.77,52,0,17.68-.61,24.52-1.39,99-8,20.22-1.8,32.54-2.88,50-4,20.57-1.33,33.29-2.13,50-2,5.24,0,24.84.26,50,3,40.79,4.43,71.75,12.79,98,20,31.14,8.54,52.43,16.36,95,32,58.22,21.37,76.67,31.23,91,40,11.93,7.29,21.78,14.62,41,29,41.37,30.93,56.92,45.59,78,62,25.58,19.9,69.07,53.2,131,75,42.57,15,78.13,19,97,21,24.05,2.56,50.29,3.47,101,0a1487.79,1487.79,0,0,0,150-18c103.29-17.59,188.91-35.8,248-49,83.47-18.65,150.62-35.5,195-47,61.4-15.91,118-30.57,194-54,31.84-9.81,84.89-28.21,191-65,45.59-15.81,88.32-30.81,139-57,23.93-12.37,52.86-28.9,84-55a431.9,431.9,0,0,0,37-35c23.7-25.22,40.28-49,59-79,22-35.29,22.66-40.22,73-130,14.25-25.42,30.43-53.9,57-83a273.93,273.93,0,0,1,37-34c9.56-7.27,22.68-17.12,42-26,17.62-8.1,31.76-11.43,47-15a392.52,392.52,0,0,1,51-8c69.6-5.74,150,10,150,10,68.65,13.43,126.95,29.13,194,49,71.65,21.22,125.27,38.92,192,61,92,30.45,97.83,33.64,190,64,129.23,42.55,169.31,53.22,192,59,72.89,18.55,112.54,26.48,147,31,9.36,1.22,48.8,6.25,102,8,65.34,2.13,114.52-1.9,151-5a1724.86,1724.86,0,0,0,198-29c52.25-10.73-29.69,4.16,148-33,41.54-8.69,75.7-15,98-19" transform="translate(0 0)"/><path class="cls-10" d="M1560.29,2533.6l-3,107v92.52l8,47.48,20,47,24,44c8,12.13,17.59,26,29,41,17.57,23.06,36.9,48.19,67,75a473.86,473.86,0,0,0,39,31c13.74,9.91,26.07,17.81,43,28,34.4,20.68,58.22,32.88,88,49,56.36,30.49,45.48,26.45,88,49,38.44,20.38,56.42,28.49,87,48,21.41,13.65,42,29,42,29s10.86,8,21,16c16.05,12.65,36.65,30.32,68,61,33.12,32.4,32.09,34.16,76,79,4.76,4.86,18.39,18.74,35,38,4.2,4.86,9.07,10.52,15,18,10.5,13.22,19.85,25,29,41a225.76,225.76,0,0,1,20,46c6,19.73,7.7,35.3,9,48a333.06,333.06,0,0,1,1,50,362.88,362.88,0,0,1-6,49c-3.59,19.64-7.7,34-12,49-6,20.81-11.51,36.27-15,46-6.6,18.4-12.17,31.91-18,46-3.35,8.11-10.15,24.32-20,46-13,28.65-24.88,54.92-43,88-9.93,18.13-18.74,32.83-25,43a885.8,885.8,0,0,1-56,81c-14.63,18.6-26.66,32.16-31,37a725,725,0,0,1-71,69c-21.93,18.59-44,37.33-77,57a474.69,474.69,0,0,1-86,40c-13.06,4.55-33,9.7-73,20-41.36,10.65-57.88,13.84-71,16-16.71,2.75-31,5.93-50,6-5.11,0-16.66-.75-30-2-12.69-1.2-16.62-1.76-18-2a125.18,125.18,0,0,1-29-9c-78.89-34-108-51-108-51a838.83,838.83,0,0,1-82-55c-29.49-22.31-62.06-47-96-84-53-57.85-85.74-120.25-97-142-10.81-20.9-24.21-42.93-51-87a195.24,195.24,0,0,0-30-39c-7.55-7.54-20-19.79-40-30a150.56,150.56,0,0,0-49-15,180.53,180.53,0,0,0-49,0,194.58,194.58,0,0,0-48,13,206.93,206.93,0,0,0-44,23c-11.41,7.92-44.07,31.22-64,75-9.29,20.42-12.25,37.46-14,48-6.57,39.56-.3,71.91,5,98,2.58,12.68,6.05,24.45,13,48,9,30.46,16.65,52.79,31,94,28.46,81.68,27,76,32,92s15.7,51,25,95a459.63,459.63,0,0,1,8,49c1.68,15.92,3.11,30,2,49a238.21,238.21,0,0,1-8,49c-5.64,20.52-12.68,35.11-18,46-2.5,5.11-7.33,14.64-25,43-11.72,18.8-17.28,26.95-27,42-25.83,40-39,60.58-51,87-10.88,23.94-15.36,39.87-17,46a243,243,0,0,0-8,48,213.54,213.54,0,0,0,3,50c2.56,13.6,6.74,25.25,15,48,8.65,23.82,16.12,41.55,18,46,19.46,46,37.79,81,42,89,11.33,21.49,26.78,50.61,51,87a849.49,849.49,0,0,0,61,81c21.19,24.72,37.46,40.48,70,72,54,52.33,97,88.36,111,100,25.6,21.26,46.76,38.83,78,61,34,24.1,61.48,40.57,84,54,23.57,14,51,30.29,89,49,46.86,23,83.46,36.81,92,40,36.38,13.55,63,20.9,96,30,20.13,5.55,33,8.63,49,11,18.84,2.78,34,3.39,50,4,12.28.46,29.4.77,52,0,17.68-.61,24.52-1.39,99-8,20.22-1.8,32.54-2.88,50-4,20.57-1.33,33.29-2.13,50-2,5.24,0,24.84.26,50,3,40.79,4.43,71.75,12.79,98,20,31.14,8.54,52.43,16.36,95,32,58.22,21.37,76.67,31.23,91,40,11.93,7.29,21.78,14.62,41,29,41.37,30.93,56.92,45.59,78,62,25.58,19.9,69.07,53.2,131,75,42.57,15,78.13,19,97,21,24.05,2.56,50.29,3.47,101,0a1487.79,1487.79,0,0,0,150-18c103.29-17.59,188.91-35.8,248-49,83.47-18.65,150.62-35.5,195-47,61.4-15.91,118-30.57,194-54,31.84-9.81,84.89-28.21,191-65,45.59-15.81,88.32-30.81,139-57,23.93-12.37,52.86-28.9,84-55a431.9,431.9,0,0,0,37-35c23.7-25.22,40.28-49,59-79,22-35.29,22.66-40.22,73-130,14.25-25.42,30.43-53.9,57-83a273.93,273.93,0,0,1,37-34c9.56-7.27,22.68-17.12,42-26,17.62-8.1,31.76-11.43,47-15a392.52,392.52,0,0,1,51-8c69.6-5.74,150,10,150,10,68.65,13.43,126.95,29.13,194,49,71.65,21.22,125.27,38.92,192,61,92,30.45,97.83,33.64,190,64,129.23,42.55,169.31,53.22,192,59,72.89,18.55,112.54,26.48,147,31,9.36,1.22,48.8,6.25,102,8,65.34,2.13,114.52-1.9,151-5a1724.86,1724.86,0,0,0,198-29c52.25-10.73-29.69,4.16,148-33,41.54-8.69,75.7-15,98-19" transform="translate(0 0)"/></g><g id="环山公路"><g id="图层_24" data-name="图层 24"><path class="cls-12" d="M11052.5,4504.5c-41.49.59-76.68.62-103.5.5-43.13-.2-73.94-.34-116-2-26.06-1-57.55-2.31-99-6-38.5-3.42-66.79-7.32-101-12-46.88-6.41-83-12.45-98-15-59.27-10.09-103.82-19.56-148-29-9-1.92-47.4-10.14-98-22-29.2-6.84-58.91-13.82-98-24-37.84-9.85-62.55-16.29-97-27-49.66-15.44-84.28-28.81-95-33-16.87-6.59-30.38-12.28-46-19-101.6-43.72-122.71-58.23-184-82-42.2-16.37-75.23-26.18-95-32a1265.49,1265.49,0,0,0-146-34c-41.85-7-95.27-9.8-202-16-26.21-1.52-45.29-2.49-75-4-85.88-4.36-151.51-7.05-175-8-188.57-7.66-282.86-11.49-327-13-142.21-4.85-160.73-4.17-326-9-157.91-4.62-229.75-8.78-349-12-20.12-.54-65.84-1.73-128-4-29.33-1.07-28.68-1.15-101-4-82.43-3.24-89.66-3.39-126-5-47.44-2.11-71.16-3.16-100-5-40.62-2.59-55.61-4.25-100-7-25.33-1.57-47.12-2.9-76-4-25.15-1-26.42-.62-100-2-94.72-1.77-83-2.15-100-2-11.48.1-28.49.38-52-1-20.55-1.21-34.09-2.06-52-6a209.93,209.93,0,0,1-50-17c-18.29-9-30.51-18.53-40-26-11.26-8.87-31.34-24.68-49-49-20.72-28.54-27.68-54.91-37-92-7.61-30.26-11.64-56.85-16-100-3.75-37.11-6.21-71.4-10-149-.51-10.36-3.52-72.41-9-150-2.56-36.19-4.82-64-17-99a325.68,325.68,0,0,0-31-64c-14.19-22.75-26.35-42.25-50-61-25-19.84-49.93-28.56-60-32a212,212,0,0,0-31-8c-18.14-3.25-33.86-3.62-50-3-43.85,1.68-82.77,10.36-98,14-13.9,3.32-45.54,11.58-95,31-16.08,6.31-59.47,23.84-135,64-32.51,17.28-77.63,42.3-132,76-88.73,55-152.78,102.54-203,140-38.37,28.62-72.6,54.25-117,92-64.44,54.79-98.92,91.44-122,118-26.54,30.55-41,51.27-47,60-21.35,31.26-34.33,56.85-49,86-14.19,28.21-27,53.66-40,90-11.27,31.5-20.87,58.85-25,97-1.6,14.79-4.05,38.81,0,70,2.26,17.42,6,45.25,22,77,9.95,19.73,20.52,32.83,28,42,28.18,34.54,57.71,53.68,74,64,15.51,9.82,27.25,15.48,45,24a812.16,812.16,0,0,0,94,38c77,26,144.63,46.65,192,61,17.64,5.34,43.76,13.23,96,29,87,26.26,108.46,32.69,142,44,39,13.16,63.19,21.3,94,34,59.53,24.54,94.69,38.39,135,68,16.44,12.08,44.45,33,72,68,37.15,47.26,51.54,92.41,65,136,15.26,49.44,19.69,85.86,27,146,2,16.26,9.58,81.59,10,168,0,6.28,0,11.48,0,15" transform="translate(0 0)"/></g><g id="图层_24_复制_2" data-name="图层 24_复制 2"><path class="cls-13" d="M11052.5,4504.5c-41.49.59-76.68.62-103.5.5-43.13-.2-73.94-.34-116-2-26.06-1-57.55-2.31-99-6-38.5-3.42-66.79-7.32-101-12-46.88-6.41-83-12.45-98-15-59.27-10.09-103.82-19.56-148-29-9-1.92-47.4-10.14-98-22-29.2-6.84-58.91-13.82-98-24-37.84-9.85-62.55-16.29-97-27-49.66-15.44-84.28-28.81-95-33-16.87-6.59-30.38-12.28-46-19-101.6-43.72-122.71-58.23-184-82-42.2-16.37-75.23-26.18-95-32a1265.49,1265.49,0,0,0-146-34c-41.85-7-95.27-9.8-202-16-26.21-1.52-45.29-2.49-75-4-85.88-4.36-151.51-7.05-175-8-188.57-7.66-282.86-11.49-327-13-142.21-4.85-160.73-4.17-326-9-157.91-4.62-229.75-8.78-349-12-20.12-.54-65.84-1.73-128-4-29.33-1.07-28.68-1.15-101-4-82.43-3.24-89.66-3.39-126-5-47.44-2.11-71.16-3.16-100-5-40.62-2.59-55.61-4.25-100-7-25.33-1.57-47.12-2.9-76-4-25.15-1-26.42-.62-100-2-94.72-1.77-83-2.15-100-2-11.48.1-28.49.38-52-1-20.55-1.21-34.09-2.06-52-6a209.93,209.93,0,0,1-50-17c-18.29-9-30.51-18.53-40-26-11.26-8.87-31.34-24.68-49-49-20.72-28.54-27.68-54.91-37-92-7.61-30.26-11.64-56.85-16-100-3.75-37.11-6.21-71.4-10-149-.51-10.36-3.52-72.41-9-150-2.56-36.19-4.82-64-17-99a325.68,325.68,0,0,0-31-64c-14.19-22.75-26.35-42.25-50-61-25-19.84-49.93-28.56-60-32a212,212,0,0,0-31-8c-18.14-3.25-33.86-3.62-50-3-43.85,1.68-82.77,10.36-98,14-13.9,3.32-45.54,11.58-95,31-16.08,6.31-59.47,23.84-135,64-32.51,17.28-77.63,42.3-132,76-88.73,55-152.78,102.54-203,140-38.37,28.62-72.6,54.25-117,92-64.44,54.79-98.92,91.44-122,118-26.54,30.55-41,51.27-47,60-21.35,31.26-34.33,56.85-49,86-14.19,28.21-27,53.66-40,90-11.27,31.5-20.87,58.85-25,97-1.6,14.79-4.05,38.81,0,70,2.26,17.42,6,45.25,22,77,9.95,19.73,20.52,32.83,28,42,28.18,34.54,57.71,53.68,74,64,15.51,9.82,27.25,15.48,45,24a812.16,812.16,0,0,0,94,38c77,26,144.63,46.65,192,61,17.64,5.34,43.76,13.23,96,29,87,26.26,108.46,32.69,142,44,39,13.16,63.19,21.3,94,34,59.53,24.54,94.69,38.39,135,68,16.44,12.08,44.45,33,72,68,37.15,47.26,51.54,92.41,65,136,15.26,49.44,19.69,85.86,27,146,2,16.26,9.58,81.59,10,168,0,6.28,0,11.48,0,15" transform="translate(0 0)"/></g><g id="图层_24_复制" data-name="图层 24_复制"><path class="cls-14" d="M11052.5,4504.5c-41.49.59-76.68.62-103.5.5-43.13-.2-73.94-.34-116-2-26.06-1-57.55-2.31-99-6-38.5-3.42-66.79-7.32-101-12-46.88-6.41-83-12.45-98-15-59.27-10.09-103.82-19.56-148-29-9-1.92-47.4-10.14-98-22-29.2-6.84-58.91-13.82-98-24-37.84-9.85-62.55-16.29-97-27-49.66-15.44-84.28-28.81-95-33-16.87-6.59-30.38-12.28-46-19-101.6-43.72-122.71-58.23-184-82-42.2-16.37-75.23-26.18-95-32a1265.49,1265.49,0,0,0-146-34c-41.85-7-95.27-9.8-202-16-26.21-1.52-45.29-2.49-75-4-85.88-4.36-151.51-7.05-175-8-188.57-7.66-282.86-11.49-327-13-142.21-4.85-160.73-4.17-326-9-157.91-4.62-229.75-8.78-349-12-20.12-.54-65.84-1.73-128-4-29.33-1.07-28.68-1.15-101-4-82.43-3.24-89.66-3.39-126-5-47.44-2.11-71.16-3.16-100-5-40.62-2.59-55.61-4.25-100-7-25.33-1.57-47.12-2.9-76-4-25.15-1-26.42-.62-100-2-94.72-1.77-83-2.15-100-2-11.48.1-28.49.38-52-1-20.55-1.21-34.09-2.06-52-6a209.93,209.93,0,0,1-50-17c-18.29-9-30.51-18.53-40-26-11.26-8.87-31.34-24.68-49-49-20.72-28.54-27.68-54.91-37-92-7.61-30.26-11.64-56.85-16-100-3.75-37.11-6.21-71.4-10-149-.51-10.36-3.52-72.41-9-150-2.56-36.19-4.82-64-17-99a325.68,325.68,0,0,0-31-64c-14.19-22.75-26.35-42.25-50-61-25-19.84-49.93-28.56-60-32a212,212,0,0,0-31-8c-18.14-3.25-33.86-3.62-50-3-43.85,1.68-82.77,10.36-98,14-13.9,3.32-45.54,11.58-95,31-16.08,6.31-59.47,23.84-135,64-32.51,17.28-77.63,42.3-132,76-88.73,55-152.78,102.54-203,140-38.37,28.62-72.6,54.25-117,92-64.44,54.79-98.92,91.44-122,118-26.54,30.55-41,51.27-47,60-21.35,31.26-34.33,56.85-49,86-14.19,28.21-27,53.66-40,90-11.27,31.5-20.87,58.85-25,97-1.6,14.79-4.05,38.81,0,70,2.26,17.42,6,45.25,22,77,9.95,19.73,20.52,32.83,28,42,28.18,34.54,57.71,53.68,74,64,15.51,9.82,27.25,15.48,45,24a812.16,812.16,0,0,0,94,38c77,26,144.63,46.65,192,61,17.64,5.34,43.76,13.23,96,29,87,26.26,108.46,32.69,142,44,39,13.16,63.19,21.3,94,34,59.53,24.54,94.69,38.39,135,68,16.44,12.08,44.45,33,72,68,37.15,47.26,51.54,92.41,65,136,15.26,49.44,19.69,85.86,27,146,2,16.26,9.58,81.59,10,168,0,6.28,0,11.48,0,15" transform="translate(0 0)"/></g></g><g id="大路"><g id="大路露肩"><path class="cls-15" d="M11884.5,2409.5c-6,1-513-3-513-3l-212-9-185-13-238-20-154-15-182-15-111-11-99-13-96-15-75-16-101-22-163-38-127-28-123-24-97-18-93-16-60-11-83-14-79-13-122-20-135-21-74-12-121-19-88-14-158-23-96-15-115-15-165-21-112-14-90-12-154-21-93-11-101-12-139-11-119-5-73-1-128,4-92,8-102,11-115,15-130,18-229,31-139,14-122,7h-88l-101-6-107-12-121-19-99-18-249-52-102-20-66-9-76-12-88-14-141-22-102-8-123,2-108,10-142,20-216,39-165,32-222,42-109,18-98,12-167,11-82,8-91,17-141,45-135,52-289,124-188,73-183,71-190,73-161,58-130,41-103,22-49,4-104-9-104-3L1187,2506" transform="translate(0 0)"/></g><g id="大路路面"><path class="cls-16" d="M11884.5,2409.5c-6,1-513-3-513-3l-212-9-185-13-238-20-154-15-182-15-111-11-99-13-96-15-75-16-101-22-163-38-127-28-123-24-97-18-93-16-60-11-83-14-79-13-122-20-135-21-74-12-121-19-88-14-158-23-96-15-115-15-165-21-112-14-90-12-154-21-93-11-101-12-139-11-119-5-73-1-128,4-92,8-102,11-115,15-130,18-229,31-139,14-122,7h-88l-101-6-107-12-121-19-99-18-249-52-102-20-66-9-76-12-88-14-141-22-102-8-123,2-108,10-142,20-216,39-165,32-222,42-109,18-98,12-167,11-82,8-91,17-141,45-135,52-289,124-188,73-183,71-190,73-161,58-130,41-103,22-49,4-104-9-104-3L1187,2506" transform="translate(0 0)"/></g></g><g id="草坪"><path class="cls-17" d="M1762,2753c-.13,1.49-.26,3-.37,4.62-1.91,27.05-.26,67.88,22.37,106.38,25.11,42.73,63.2,60.72,100,79,205,101.81,192.19,124.24,293,150,83.69,21.39,146.18,37.36,183,4,31-28.08,16.58-66.44,39-219,16.13-109.75,29.57-130.59,47-143,35.66-25.38,65.53.55,150,0,16.58-.11,136.93-2.28,240-71,70.23-46.83,64.95-79.55,128-104,19.36-7.51,95.33-33.69,161,0,35.36,18.14,56,47.63,122,222,44.82,118.44,67.23,177.66,72,204,24.72,136.63-18.32,170.31,7,315,14.1,80.58,24.68,141.07,75,182,77.42,63,218.7,55.09,286-14,21.86-22.44,37.15-52.61,36-337-.61-151.21-.92-226.81-7-268-22.85-154.76-65.62-208.38-40-315,7.76-32.3,22.36-93.08,72-139,75-69.36,153.81-34.5,354-57,89.94-10.11,227.82-26.79,372-101,118.7-61.1,103.88-90.27,179-114,156-49.28,233.1,72.42,476,118,228.92,43,240.37-50.14,497,0,45.87,9,3.09,3.65,365,125,143.26,48,205,67.32,254,132,37.29,49.22,28.6,73.76,86,176,57.53,102.48,86.3,153.71,129,161,95.65,16.32,152.45-187,254-179,100.95,7.94,107.25,213.78,239,243,76.14,16.88,168.63-30.88,208-96,51.47-85.12-20.64-145.63,14-287,5.23-21.34,40.3-156.31,154-221,69.81-39.72,140.18-36.4,222-29,221.9,20.06,332.84,30.09,458,72,272.8,91.35,293.38,23.83,1227,182,676.87,114.67,487.56,119.93,851,168,359.91,47.61,506.73,37.32,619,165,135.17,153.72,142,418.44,147,611,3.68,142.23-12.08,252.23,43,415,38.74,114.5,114.66,243.25,157,233,23.54-5.7,28.1-52.32,47-227,34.51-319,33-290.7,35-321,5.35-83.06,1.63-71.08,4-429,.79-118.7-9.78-237.3-9-356,.75-113.78,4.53-144.58-22-173-50.89-54.51-147-30.26-355-50-137-13-135.57-29.53-347-57-55.56-7.22-139.23-16.89-243-24l-508-100L8602,2209l-636-86-564-95-320-4-554,32-647,67-622.46-99L4680,1929l-945,134-444,70-546,197-396,175-592,214Z" transform="translate(0 0)"/><path class="cls-17" d="M1617,3040c55,4.59,94.8,47,115,73l166,96a1753.42,1753.42,0,0,1,185,137c109.63,92.88,164.82,140.68,183,207,23.06,84.12-9.32,160.52-57,273-36.69,86.56-81.35,147.43-110,186-34.47,46.4-54.63,73.13-91,102-65.48,52-131.81,69.86-171,80-36,9.31-82.94,21-145,16-24.42-2-90-7.95-151-45-65.37-39.67-60.38-75.41-147-194-44.43-60.83-90.36-112.51-169-201-79-88.85-96.29-101.58-102-137-6.62-41.05,8.6-73.87,102-209,123.86-179.19,174.58-233.57,209-268C1547.54,3042.43,1591.77,3037.89,1617,3040Z" transform="translate(0 0)"/><path class="cls-17" d="M1093,3880c76.73,18.65,75.71,132.05,156,266,24.59,41,93.83,156.53,223,217,86.2,40.35,163.14,39.37,271,38,153.13-1.95,256.88-39.85,281-49,101-38.31,151.49-57.47,180-110,25.17-46.37,21.12-96.21,73-158,26.33-31.37,40-33.59,48-32,23.44,4.66,35.6,49.71,35,83-.25,13.56-2.91,41.88-35,91-22.41,34.31-40.22,49.74-134,134-61,54.83-65.94,59.49-81,65-41.89,15.33-56.37-1.5-131,11-75.21,12.59-91.45,34.86-97,45-8.83,16.14-2.63,23.59-8,38-15.94,42.77-95.88,45-223,61-31.73,4-111.18,14-201,30-113.39,20.17-142.58,31.93-190,16-65.41-22-100.88-74.9-108-86-33.12-51.65-33.77-104.31-35-204-1.23-99.36,13.32-120.33-8-169-14.77-33.71-26.21-33.83-56-94-15.76-31.84-29.26-65.55-35-107-4.48-32.4-7.76-58.69,8-75C1046.92,3869.34,1088.28,3878.85,1093,3880Z" transform="translate(0 0)"/><path class="cls-17" d="M761,3961c40.4,39.32-1.74,92.23,29,214,15.6,61.81,28,54.4,40,113,18.86,92.37-.16,168.85-8,199-9.94,38.2-21.8,83.81-56,131-19,26.19-35.66,40.21-56,78-11.39,21.16-24.28,45.13-30,78-7,40.57.85,71.59,16,131,8.56,33.56,14.77,57.93,30,89,19.8,40.38,31,43.48,51,86,17.8,37.85,14.24,46.69,29,80,19.15,43.2,43.87,70.6,65,94,47.11,52.19,65.59,49.2,142,121,28.59,26.86,28.43,29.56,53,51,12.32,10.75,45.84,39.29,102,75,65.94,41.93,71.57,35.56,132,75,49.67,32.42,51.91,40.67,86,59,40.47,21.77,69.15,26.4,120,40,77,20.58,146.6,44.52,161,51,84,37.84,86.19,65.6,180,105,39.83,16.73,71.87,25.34,97,32,121.67,32.23,148.35,10.84,215,46,35.53,18.74,33.77,27.89,96,64,29,16.83,55.75,32.35,91,46,67.43,26.11,127.29,29.08,247,35a423.84,423.84,0,0,0,46,0,416.8,416.8,0,0,0,75-11c59.12-13.85,106.61-6.28,180-14,99.25-10.44,78.73-31.27,217-56,24.94-4.46,100.95-17.26,180-29,16.4-2.44,35.63-5.23,62-11,43.78-9.59,77-20.77,110-32,48.08-16.35,46.78-18.4,91-33,52.12-17.21,48.42-12.54,86-26,45.25-16.21,53.65-24.06,104-41,38.48-12.94,33.68-8.4,51-16,38.63-17,50.8-34.46,94-51,11-4.2,7.27-2,32-10,55.42-18,83.13-27,110-46,18.78-13.25,31.2-26.64,51-48,14.89-16.06,16-19.3,41-49,31.33-37.19,34.61-38,53-61,23.84-29.78,20.9-31.57,46-65,42-55.87,46.47-45.92,67-80,24.13-40.06,23.86-63.73,51-78,6.12-3.22,16.74-5.81,38-11,15.35-3.75,35.86-8.68,61-11,20-1.85,37.5-1.55,59,0,101.9,7.33,188,35,188,35,13.16,4.23,3.77,1.61,75,27,36.31,12.95,60,21.38,91,32,36.74,12.57,70.42,24.1,116,38,36.85,11.24,66.12,19.34,83,24,31.69,8.75,33.27,8.72,83,22,62.87,16.79,68.17,18.94,97,26,36.85,9,53.38,11.7,88,19,114.1,24.06,105.06,30.94,156,38,72.42,10,143.29,3.43,180,0,62.41-5.82,84.54-14,112,2,27.08,15.73,38.37,42.7,59,92,9.93,23.71,25,60.61,30,112,5,51.93-3.07,90.13-13,137-10.77,50.84-16.16,76.27-35,105-5.71,8.7-31.52,46.58-81,72-13.54,7-24.83,10.91-126,27-100.95,16.06-112.48,15.74-126,14-29.69-3.83-40.43-10.86-89-17-31.55-4-31.95-1.64-67-5-63.79-6.12-77.41-15.35-136-21-40.5-3.91-30.47.86-78-3-52-4.23-94.45-7.68-143-27-28.48-11.34-30.34-16.7-56-24-39.15-11.13-70.67-8.84-88-8-65.08,3.17-54.91-7.94-164-11-79.94-2.24-127.93-3.59-191,8-32.46,6-39.36,9.93-128,35-128.53,36.36-127.33,39.75-148,40-59.65.71-64.31-22.41-172-40-36.57-6-30.55-2.41-99-11-128.94-16.17-124.15-25.53-156-21-49.72,7.07-48.13,28-166,88-53,27-48.86,20.46-105,49-98.57,50.1-96.41,62.7-158,88-68.43,28.11-76.5,14.77-145,46-58.48,26.66-52,36.09-107,59-15.16,6.31-71.71,28.93-150,37-31.27,3.22-22.39-.37-92,3-79.63,3.85-88.27,8.41-139,8-56.59-.46-93.33-6.52-102-8-43.89-7.5-40-12.31-78-19-70.31-12.4-88.95,3.15-156-13a430.19,430.19,0,0,1-51-16c-40.5-15-54.32-25.63-107-48-23.14-9.83-34.71-14.74-48-19-40.77-13.06-59.44-11.49-102-22-30.22-7.46-26.61-9.68-65-21-98-28.88-120.27-14.05-161-43-10.26-7.29-24.45-19.32-51-35-8.71-5.14-22.83-13.08-40-21-44.38-20.46-63-19.45-104-35-23.67-9-15.65-8.6-67-33-45.73-21.73-53.51-22.69-121-53-33.28-14.95-57.78-26.57-65-30-36.61-17.41-65.08-31.84-91-45-20.88-10.6-35.3-18.09-64-33-64.65-33.58-57.09-30.23-86-45-74.93-38.27-80.76-37.84-115-59-13.44-8.31-19.85-12.89-33-19-27.54-12.79-46.22-14.41-80-21,0,0-37.65-7.34-89-22-17.9-5.11-47.21-13.48-80-27-41.19-17-88.66-36.57-132-78-31.16-29.79-21.36-33.76-69-85-29.71-31.95-49.17-52.54-81-70-13.09-7.18-13-5.47-86-30-67.07-22.55-68.84-24.57-96-32-48.44-13.25-50.81-9-81-19a339.17,339.17,0,0,1-99-53c-40.17-31-85.13-65.71-86-113-.35-18.83,6.34-37.22,19-72,5.92-16.28,9.63-23.41,21-49,12.72-28.65,24.38-54.89,35-83,15.75-41.7,25.82-68.35,30-105,2.61-22.89,1.71-39,0-67-6-99-24-109-19-161,2-20.15,6.64-68.33,40-110,31.24-39,63.86-42.62,81-86,5.34-13.52,2.61-14.27,8-61,6.35-55,10.62-58.21,21-129,6-41,13.66-101.91,13-102-.41-.06-5.21,22.89-2,24,5.5,1.9,13.64-67.62,59-102,28.39-21.52,46.29-10.27,177-24,69.07-7.26,85.69-12.67,99-27,29-31.26,8.23-68.24,35-94C658.1,3927,727.1,3928,761,3961Z" transform="translate(0 0)"/><path class="cls-17" d="M1818,1747c109.48,33.4,172.39,104.48,241,182,0,0,95.68,108.11,110,215,1.24,9.26,2.62,24.67-5,40-17.65,35.52-66.37,35.94-121,49-127.81,30.56-139.86,94.94-225,86-13.73-1.44-63.75-6.7-91-43-15.87-21.14-11.9-36.67-25-100-10.52-50.87-15.78-76.31-29-104-26.67-55.87-49.85-48.17-81-105-22.44-40.94-10.33-44.81-40-121-25.46-65.4-40.14-77.33-32-94,14.48-29.68,78.15-27,150-24C1730.45,1730.53,1769.36,1732.16,1818,1747Z" transform="translate(0 0)"/><path class="cls-17" d="M10957,907c23,28.65,60.65,76.36,86,142,11,28.47,15.44,49.35,29,164,18.59,157.15,18.34,186.35,32,284,11.58,82.78,14.28,79.8,22,145,10.14,85.61,17,143.86,13,218-5.4,99.27-9.52,174.85-64,241-39.33,47.75-86.79,68.61-115,81-64.21,28.21-121.68,28.19-234,27-138.39-1.47-208.63-3-260-41-37.55-27.79-37.93-47.57-97-91-43.76-32.17-81.4-49.15-121-67-44.23-19.94-96.91-43.7-169-56-9.19-1.57-40.13-4.71-102-11-61.46-6.24-107.36-10.56-112-11-221.74-20.82-204-18.26-226-21a2402.38,2402.38,0,0,1-241-43c-60.62-14.1-85.65-22.54-161-38-49-10-86.62-16.37-132-24-89.57-15.06-157.57-24.17-179-27-50.75-6.69-87.65-10.71-167-19-200.7-21-211.49-21.07-311-32-131.81-14.48-198.8-21.93-252-32-73.75-14-91.78-21.62-150-27-52.2-4.82-81.69-2.73-196,0-27.46.66-98.48,2.35-167,3-59.93.57-155.2,1.36-276-3-118.47-4.27-119.95-8.55-199-11-119.93-3.72-144.25,5.37-332,14-293.14,13.47-296.8-5.8-400,21-79.38,20.61-113.77,41.5-218,59a1178,1178,0,0,1-206,16c-60.86-.66-107.41-6-142-10-75.54-8.81-122.28-19.64-175-30-96-18.86-78.95-10.06-273-40-241.87-37.32-277.45-52.4-301-64-18.72-9.22-51.85-27.09-102-41-58.23-16.15-104.29-17.22-134-18-247-6.5-221.1-15.65-322-11-91.9,4.24-57.23,9.24-258,27-54.25,4.8-101.26,8.37-166,24-65.05,15.71-62.6,23-121,37-75,18-136.18,19.77-214,22-79.31,2.27-88.05-2.83-148,2-65.47,5.28-113.33,16.12-140,22-288.48,63.65-345,53-501,110-63.21,23.11-48.34,22.83-212,97-227,102.89-291.76,76.07-373,158-29.6,29.85-59.35,70.18-94,64-29.93-5.34-56.88-44.2-56-80,1.2-48.7,53.67-83.22,155-148,57.72-36.9,103.82-60.74,116-67,74.79-38.44,155.4-79.87,268-121,141.09-51.54,179.53-46.77,284-96,5.76-2.71,41.69-19.71,91-40,90.26-37.13,124.62-43.82,137-46,49-8.61,84.81-4.61,110-3,122.28,7.81,166.33-29.75,357-59,102.39-15.71,92.12-5.25,228-21,168.88-19.58,269.75-45.59,341-59,283.84-53.41,547.35,8.6,770,61,163.68,38.52,238,73.17,438,102,0,0,138.14,19.91,281,25,399.9,14.25,897.4-97.7,953-110,183.21-40.52,761.47,1.32,1918,85,255.89,18.51,519.55-13,768,51,96.58,24.88,259.76,75.42,453,25,74.23-19.37,127.49-48.91,234-108,232.83-129.16,363.93-201.89,391-330,22.39-106-47.82-148.56-5-236,46.23-94.4,182.12-155.18,266-118C10899.55,835.33,10918.7,859.22,10957,907Z" transform="translate(0 0)"/><path class="cls-17" d="M11432,2839c9.18,22.32-38.38,52.79-65,89-56.87,77.35-30.14,197.09-21,198,6.12.61,16.44-50.87,16-51s-38,72.52-40,161c-1.52,65.72,18,76,35,209,5.09,39.73,7.64,59.59,10,89,2.76,34.43,2.37,45.76,6,70,5.69,38,12,45.6,19,78,12.77,58.76,8.29,107.94,5,144a575.47,575.47,0,0,1-14,84c-7.92,32.5-13.12,53.83-26,80-18.08,36.71-29.75,39.21-54,86-7.06,13.63-15,29.12-22,51-11.31,35.36-22.37,69.93-5,94,10,13.89,28.85,23.35,46,21,12.22-1.68,20.37-8.92,40-32,28.94-34,44.7-52.55,64-86a524,524,0,0,0,30-61c8.93-21.13,19.63-46.81,27-81,5.12-23.76,3.92-29.75,8-59,6.84-48.95,13.79-57.82,21-97,8.87-48.21,7.72-85.79,6-142-1.1-35.9-2.66-27.9-6-91-4.67-88.31-2.25-116,0-134,5-39.92,7.5-59.87,19-81,14.73-27.06,29.89-34.08,86-88,26.52-25.49,39.78-38.23,46-46,35.61-44.5,46.24-90.62,61-158,10.84-49.49,16.15-74.88,11-107-6.44-40.13-23.79-68.23-35-86-28.51-45.17-62.26-69.5-97-94-58.85-41.52-90.94-64.15-126-54-37.42,10.84-67.91,56.06-59,78C11421.48,2831.57,11428.77,2831.14,11432,2839Z" transform="translate(0 0)"/><path class="cls-17" d="M1056,4750c-13.78,8.7-25.52,34.14-49,85-15.43,33.42-23.14,50.13-26,67-7,41.48,4.54,75.53,16,108,6.29,17.81,11.31,27.64,51,99,32.19,57.89,48.38,87,53,94,26,39.59,50.15,76.29,92,110,30.49,24.55,34.15,18.34,96,59,52.76,34.69,48.66,38.27,86,62,43.15,27.42,81.36,42.65,156,72,43.37,17.05,72.68,28.57,110,40,104.14,31.89,159.62,48.89,230,41,64.49-7.23,80.43-28.5,143-22,31.81,3.3,46.1,10.71,94,22,76.83,18.1,91.38,11.29,131,21,93.9,23,87,76.09,231,153,51.7,27.6,93.14,42.42,121,51,30.57,9.42,69,21.25,115,24,71.44,4.27,102.8-16.87,188-35,71.82-15.28,71.8-5,177-18,101.07-12.49,112.09-23.34,346-73,121.34-25.76,124.82-24.21,169-37,23-6.65,118-34.85,233-94,45.08-23.18,67.62-34.78,86-51,43.05-38,47-67.2,100-172,56.79-112.22,91.28-155.78,102-169,50.63-62.43,86.47-83.58,96-89,50.12-28.52,96.72-34,124-37,64-6.94,113.81,3.86,153,13,129.48,30.2,231.45,62.89,279,78,73.55,23.37-13.69-5,263,81,193.24,60.09,202,63.44,236,72,111.29,28,204.12,36.61,308,48,86.76,9.51,130.14,14.27,175,14,109.6-.66,190.83-19.52,292-43,81.95-19,142.78-33.14,223-65,112.33-44.61,120.66-67.6,190-75,76.72-8.19,137.83,12.35,159-21,8.41-13.25,7.13-29.66,5-57-1.8-23.08-4.32-55.47-24-75-23.2-23-61-19-89-16-44.27,4.71-124.15,2.1-209,22-115,27-201.15,40.6-330,61-109.11,17.27-163.67,25.91-223,27-105.59,1.94-147.45-14.47-351-51-263.91-47.36-249.11-29.74-346-59-141.9-42.85-140.53-70.63-312-129-121.42-41.33-204-69.44-319-72-159.23-3.55-281,44.08-338,67-130.28,52.42-134.82,88.14-250,142-133.14,62.26-243.71,69.08-437,81-236.13,14.56-226.25-20.25-499-8-209.8,9.43-243.6,31.28-338,0-65.1-21.57-95.12-47.24-290-145-56.44-28.31-84.22-51.11-137-67-77.79-23.43-124.85-14.47-212-14-252.26,1.37-284-71.34-397-24-81,33.91-123.44,95.8-166,75-28.3-13.83-23.44-48-75-99a280.55,280.55,0,0,0-65-48C1176.89,4760.11,1102.58,4720.59,1056,4750Z" transform="translate(0 0)"/><polygon class="cls-17" points="6638.5 4623.41 6702.5 4739.38 6774.5 5135.5 7525 5037 7598.5 5079.56 7731 5055.41 7795.98 5021.5 8471.5 4899.78 8443.5 4862.22 7917 4782 7501 4806 7338.5 4757.57 7190.5 4781.72 6914.5 4669.02 6733.5 4669.02 6638.5 4623.41"/><path class="cls-17" d="M8568,4943l1.42,3L8646,5109l880,371,60,138,457,233q41.51-133.5,83-267l130-201,222-124,60-33-61-47-76-48-89-16-37,38-117-51-111-127-124-11-45-9-61.5-102.84L9686,4856l-104,118-79,206-47,44-263.29-194.08L8854,4970Z" transform="translate(0 0)"/><polygon class="cls-17" points="11056 4577 10993 4657 10919 4699 10864 4725 10781 4695 10301 4631 10294 4594 10329 4517 10487 4540 10882 4601 10961 4570 11056 4577"/><polygon class="cls-17" points="10207 4696 10708 4718 10739 4822 10855 4848 10839 4917 10574 4925 10464 4817 10299 4765 10201 4701 10207 4696"/><path class="cls-17" d="M10790,5253c-2,7-63,196-63,196l-157,176-144,22-145,97-92,151,45,61,54-65,12-52,209-138,190-12,218-251,45-91Z" transform="translate(0 0)"/><path class="cls-17" d="M10124,6029a453.91,453.91,0,0,1,53,61c18.92,26.17,49.77,69.35,66,133,23,90.26,3.35,162.85-1,178-3.22,11.21-17.07,57.07-53,106-20.32,27.67-42,57.14-82,76-24.84,11.7-45.83,14.05-70,17-21.33,2.6-63.86,7.35-115-8a260.09,260.09,0,0,1-81-41l263-531Z" transform="translate(0 0)"/><path class="cls-17" d="M7372.27,1019.83" transform="translate(0 0)"/></g></svg>