<?xml version="1.0" encoding="utf-8"?>
<!-- Generator: Adobe Illustrator 25.0.1, SVG Export Plug-In . SVG Version: 6.00 Build 0)  -->
<svg version="1.1" id="导航" xmlns="http://www.w3.org/2000/svg" xmlns:xlink="http://www.w3.org/1999/xlink" x="0px" y="0px"
	 viewBox="0 0 12000 8000" style="enable-background:new 0 0 12000 8000;" xml:space="preserve">
<style type="text/css">
	.st0{fill:none;stroke:#486CD3;stroke-width:48;stroke-miterlimit:10;}
	.st1{fill:none;stroke:#5A95F7;stroke-width:37;stroke-miterlimit:10;}
</style>
<path id="描边" class="st0" d="M7079,6552.5c19.1,15.07,45.62,10.2,55,8l95-22l57-14l40-9l40-9l20-5l20-4l21-4l19-5l20-4l21-5
	l21-5l21-4l21-5l20-5l19-4l20-4l22-5l20-5l20-4l19-5l64-14l21-4l20-5l20-5l21-5l22-5l40-10l32.59-8.41l35.41-8.59l19-5l20-5l41-9
	l39-9l20-4l20-6l22-4l20-5l21-5l21-5l21-5l21-5l21-5l21-5l19-4l22-5l20-5l20-5l21-5l21-4l24-7l30-6l34-8l33-9l20-5l70-16l20-5l20-5
	l20-4l20-4l25-4l21-2l21-2l21-2l22-5l20-6l20-8l19-9l21-10l36,25c8.51,7.59,19.88,17.05,34,27c14.07,9.92,25.44,16.5,35,22
	c14.76,8.49,26.21,14.18,40,21c19.96,9.87,35.2,16.74,38,18c62.41,28.16,143.96,69.71,249,117c19.18,8.64,38,17,38,17
	c42.24,18.77,59.63,26.06,82,36c9,4,12.22,5.51,95,45c59.07,28.18,76.52,36.52,107,51c35.65,16.93,50.98,23.9,54.5,25.5
	c41.91,19.04-3.96-2.68,30,15l21.65,10.37L10078,5939.5l0.5,0.5c13.44-26.08,22.04-47.89,28.71-63.14c6.88-15.74,10.28-24.61,20-46
	c9.85-21.67,14.92-32.75,22-45c11.75-20.31,22.94-34.72,28-41c13.77-17.08,26.01-28.61,35-37c12.6-11.77,22.62-19.68,37-31
	c14.05-11.05,22.79-17.36,40-30c40.15-29.49,60.32-44.1,80-60c8.61-6.96,27.57-22.47,38-31c15.61-12.77,30.31-24.8,39-32
	c36.13-29.95,54.2-44.92,75-66c5.69-5.76,25.12-29.17,64-76c10.09-12.16,19.76-23.94,29-42c5.81-11.35,13.17-26.05,16-47
	c3.33-24.67-1.55-43.77-3-49c-4.46-16.11-11.07-26.42-23-45c-5.46-8.51-14.17-21.27-29-39c-20.9-24.99-39.94-48.41-71-69
	c-17.29-11.46-32.53-18.61-44-24c-36.3-17.04-48.85-16.6-94-36c-21.45-9.21-32.17-13.82-45-22c-26.85-17.12-43.21-35.83-58-53
	c-20.12-23.37-31.17-36.19-38-58c-3.69-11.77-8.96-29.41-3-50c5.84-20.16,19.27-32.19,28-40c15.12-13.53,30.05-19.42,42-24
	c18.83-7.22,34.29-9.21,49-11c22.57-2.75,39.7-2.25,49-2c51.2,1.36-25.72-2.26,99,1c109,2.85,132.52,4.71,147,6
	c3.08,0.27,18.72,1.85,50,5c56.59,5.7,72.54,7.44,98,9c25.32,1.55,37.97,2.32,50,2c18.67-0.5,53.92-1.62,96-16
	c43.31-14.8,71.91-35.75,87-47c14.42-10.75,42.7-33.59,70-70c18.89-25.2,37.41-49.91,45-87c1.98-9.67,2.32-23.44,3-51
	c1.19-47.98-2.46-58.35,0-100c1.47-24.82,4.04-42.63,5-49c3.08-20.38,6.72-36.01,10-50c5.16-21.99,10.07-38.43,13-49
	c4.02-14.49,10.78-38.25,29-96c31.83-100.88,31.85-93.76,47-144c2.17-7.2,7.34-24.5,16-47c4.74-12.33,10.6-27.43,20-46
	c8.6-16.99,10.21-17.22,25-44c12.19-22.09,18.36-33.35,22-44c6.97-20.43,8.23-37.49,9-49c1.35-20.17-0.41-35.29-2-49
	c-2.36-20.31-5.97-35.44-9-48c-2.83-11.7-5.9-22.69-14-48c-13.31-41.6-17.42-50.77-31-93c-8.3-25.83-11.82-38.13-14-46
	c-5.82-21.02-9.58-37.47-12-48c-4.92-21.38-7.55-32.82-10-49c-2.23-14.68-3.15-26.45-5-50c-1.92-24.45-2.72-42.99-3-50
	c-0.65-16.22-0.94-31.55-1-50c-0.09-30.28,0.5-57.68,2-101c1.44-41.53,1.78-41.99,4-100c1.74-45.49,2.62-68.73,3-93
	c0.3-19.04,0.56-48.32,0-84c-0.8-51.58-2.33-54.26-3-100c-0.33-22.55-0.78-56.88,1-101c1.46-36.17,3.78-62.91,7-100
	c3.16-36.39,4.66-47.01,9-92c2.64-27.33,5.76-61.54,8.94-101.15l-102.15-4.21l-185-13l-238-20l-154-15l-182-15l-111-11l-99-13
	l-96-15l-75-16l-101-22l-163-38l-127-28l-123-24l-97-18l-93-16l-60-11l-83-14l-79-13l-122-20l-135-21l-74-12l-121-19l-88-14l-158-23
	l-96-15l-115-15l-165-21l-112-14l-90-12l-154-21l-93-11l-101-12l-139-11l-119-5l-73-1l-128,4l-92,8l-102,11l-115,15l-130,18l-229,31
	l-139,14l-122,7h-88l-101-6l-107-12l-121-19l-99-18l-249-52l-102-20l-66-9l-76-12l-88-14l-141-22l-102-8l-123,2l-108,10l-142,20
	l-216,39l-165,32l-222,42l-109,18l-98,12l-167,11l-82,8l-91,17l-141,45l-135,52l-289,124l-188,73l-183,71l-190,73l-161,58l-130,41
	l-103,22l-49,4l-43.5,0.5l-46-5l-3,107v92.52l8,47.48l20,47l24,44c7.96,12.14,17.59,26.01,29,41c17.56,23.07,36.9,48.19,67,75
	c16.59,14.77,31.15,25.33,39,31c13.73,9.91,26.07,17.82,43,28c34.4,20.69,58.22,32.89,88,49c56.36,30.49,45.48,26.46,88,49
	c38.44,20.38,56.42,28.49,87,48c21.41,13.66,42,29,42,29s10.86,8,21,16c16.05,12.66,36.65,30.33,68,61c33.12,32.4,32.09,34.16,76,79
	c4.76,4.86,18.38,18.74,35,38c4.2,4.86,9.07,10.52,15,18c10.5,13.23,19.85,25.02,29,41c11.91,20.79,17.79,38.76,20,46
	c6.01,19.73,7.69,35.3,9,48c0.44,4.26,2.36,23.84,1,50c-1.15,22.14-4.12,38.69-6,49c-3.59,19.65-7.7,34.05-12,49
	c-5.98,20.82-11.51,36.28-15,46c-6.6,18.4-12.17,31.92-18,46c-3.36,8.11-10.15,24.32-20,46c-13.02,28.66-24.88,54.93-43,88
	c-9.93,18.13-18.74,32.84-25,43c-27.23,44.18-50.56,74.09-56,81c-14.63,18.6-26.67,32.16-31,37c-14.76,16.47-38.6,41.52-71,69
	c-21.93,18.6-44.03,37.33-77,57c-16.15,9.63-46.14,26.1-86,40c-13.06,4.56-33.04,9.7-73,20c-41.36,10.66-57.88,13.84-71,16
	c-16.72,2.75-30.99,5.93-50,6c-5.11,0.02-16.66-0.74-30-2c-12.69-1.2-16.62-1.76-18-2c-13.34-2.34-23.11-6.46-29-9
	c-78.9-34.02-108-51-108-51c-11.05-6.44-42.71-25.28-82-55c-29.49-22.31-62.06-46.95-96-84c-52.98-57.84-85.74-120.25-97-142
	c-10.81-20.89-24.21-42.93-51-87c-5.33-8.76-14.32-23.35-30-39c-7.55-7.54-20.02-19.78-40-30c-21.08-10.78-39.36-13.6-49-15
	c-5.25-0.76-24.29-3.28-49,0c-22.08,2.93-38.02,9.08-48,13c-8.75,3.44-25.45,10.11-44,23c-11.42,7.93-44.08,31.22-64,75
	c-9.3,20.42-12.25,37.47-14,48c-6.58,39.56-0.3,71.91,5,98c2.58,12.68,6.05,24.45,13,48c8.99,30.47,16.64,52.8,31,94
	c28.46,81.69,27,76.05,32,92c4.98,15.88,15.7,51,25,95c3.24,15.31,6.04,30.46,8,49c1.68,15.93,3.11,30.05,2,49
	c-1.33,22.78-5.62,40.34-8,49c-5.64,20.52-12.68,35.11-18,46c-2.5,5.11-7.33,14.65-25,43c-11.72,18.8-17.29,26.95-27,42
	c-25.83,40.03-39,60.58-51,87c-10.88,23.95-15.37,39.87-17,46c-6.62,24.84-7.78,43.95-8,48c-1.39,25.43,2,44.69,3,50
	c2.56,13.6,6.74,25.25,15,48c8.65,23.82,16.12,41.55,18,46c19.46,45.99,37.79,81.01,42,89c11.33,21.49,26.78,50.62,51,87
	c27.78,41.73,52.46,71.03,61,81c21.19,24.73,37.46,40.48,70,72c54.04,52.33,96.99,88.36,111,100c25.59,21.26,46.76,38.84,78,61
	c33.98,24.1,61.47,40.57,84,54c23.57,14.05,50.96,30.3,89,49c46.85,23.04,83.46,36.82,92,40c36.38,13.56,63.04,20.91,96,30
	c20.13,5.55,33.03,8.64,49,11c18.84,2.79,33.98,3.4,50,4c12.28,0.46,29.4,0.77,52,0c17.68-0.6,24.52-1.39,99-8
	c20.22-1.79,32.54-2.88,50-4c20.56-1.32,33.29-2.12,50-2c5.24,0.04,24.84,0.27,50,3c40.78,4.43,71.75,12.79,98,20
	c31.14,8.55,52.43,16.36,95,32c58.22,21.38,76.67,31.24,91,40c11.93,7.29,21.78,14.63,41,29c41.37,30.93,56.92,45.6,78,62
	c25.57,19.9,69.07,53.21,131,75c42.57,14.98,78.13,18.99,97,21c24.05,2.57,50.29,3.47,101,0c72.43-4.96,128.09-14.27,150-18
	c103.28-17.59,188.91-35.79,248-49c83.46-18.65,150.62-35.5,195-47c61.39-15.91,117.96-30.57,194-54c31.83-9.81,84.89-28.21,191-65
	c45.59-15.81,88.32-30.81,139-57c23.93-12.37,52.86-28.9,84-55c7.88-6.6,21.56-18.57,37-35c23.69-25.22,40.28-48.99,59-79
	c22.01-35.29,22.66-40.21,73-130c14.25-25.42,30.43-53.9,57-83c12.35-13.52,24.47-24.48,37-34c9.56-7.27,22.68-17.12,42-26
	c17.62-8.1,31.76-11.42,47-15c1.68-0.4,25.64-5.91,51-8c69.59-5.74,150,10,150,10c68.65,13.44,126.95,29.13,194,49
	c71.65,21.23,125.27,38.92,192,61c92.04,30.45,97.83,33.65,190,64c129.23,42.56,169.3,53.22,192,59c72.89,18.55,112.54,26.48,147,31
	c9.36,1.23,48.79,6.26,102,8c65.33,2.14,114.51-1.89,151-5c29.65-2.52,103.87-9.68,198-29c52.25-10.73-29.7,4.17,148-33
	c41.54-8.69,33.2-7.46,55.5-11.5l42-7l104-27c0,0,6,2,35-14s40-22,40-22l70-33c0,0,51-20,59-22s23-8,33-10s21-4,21-4s28-5,42-6
	s41-3,41-3s22-2,41-4s64-10,64-10l17-3l37.5-8.5l15.5,69.5l9,38l5,20l2,13l3,19l4,22l4,18l2,10c1.79,6.64,3.45,13.3,5,20
	c1.85,8.02,2.05,9.7,4,18c2.14,9.14,2.62,10.19,5,20c2.21,9.09,1.93,8.74,5,22c2.41,10.4,4.41,18.55,6,25c0.67,2.72,2.11,8.48,5,20
	c3.61,14.4,3.9,15.54,5,20c2.53,10.32,3.8,15.47,5,21c2.03,9.38,2.08,10.99,4,20c2.13,10.02,4.01,17.16,5,21
	c5.13,19.97,9.08,38.96,19,81c0,0,6.13,25.97,16,66c17.77,72.06,26.92,97.95,49,181c16.98,63.84,12.9,53.56,42,166
	c14.67,56.68,17.24,65.25,26,101c9.23,37.69,11.43,48.82,29,122c3.24,13.48,10.16,42.24,20,80c0.61,2.35,2.68,9.4,5,19
	c1.06,4.36,1.97,8.39,2.76,12.07c2.4,11.15,3.79,19.41,4.24,21.93c3.67,20.71,12.28,41.29,13,43
	C7065.32,6535.16,7069.48,6544.99,7079,6552.5z"/>
<path id="核心" class="st1" d="M7078.5,6552.5c19.1,15.07,45.62,10.2,55,8l95-22l57-14l40-9l40-9l20-5l20-4l21-4l19-5l20-4l21-5
	l21-5l21-4l21-5l20-5l19-4l20-4l22-5l20-5l20-4l19-5l64-14l21-4l20-5l20-5l21-5l22-5l40-10l32.59-8.41l35.41-8.59l19-5l20-5l41-9
	l39-9l20-4l20-6l22-4l20-5l21-5l21-5l21-5l21-5l21-5l21-5l19-4l22-5l20-5l20-5l21-5l21-4l24-7l30-6l34-8l33-9l20-5l70-16l20-5l20-5
	l20-4l20-4l25-4l21-2l21-2l21-2l22-5l20-6l20-8l19-9l21-10l36,25c8.51,7.59,19.88,17.05,34,27c14.07,9.92,25.44,16.5,35,22
	c14.76,8.49,26.21,14.18,40,21c19.96,9.87,35.2,16.74,38,18c62.41,28.16,143.96,69.71,249,117c19.18,8.64,38,17,38,17
	c42.24,18.77,59.63,26.06,82,36c9,4,12.22,5.51,95,45c59.07,28.18,76.52,36.52,107,51c35.65,16.93,50.98,23.9,54.5,25.5
	c41.91,19.04-3.96-2.68,30,15l21.65,10.37l320.85-636.87l0.5,0.5c13.44-26.08,22.04-47.89,28.71-63.14c6.88-15.74,10.28-24.61,20-46
	c9.85-21.67,14.92-32.75,22-45c11.75-20.31,22.94-34.72,28-41c13.77-17.08,26.01-28.61,35-37c12.6-11.77,22.62-19.68,37-31
	c14.05-11.05,22.79-17.36,40-30c40.15-29.49,60.32-44.1,80-60c8.61-6.96,27.57-22.47,38-31c15.61-12.77,30.31-24.8,39-32
	c36.13-29.95,54.2-44.92,75-66c5.69-5.76,25.12-29.17,64-76c10.09-12.16,19.76-23.94,29-42c5.81-11.35,13.17-26.05,16-47
	c3.33-24.67-1.55-43.77-3-49c-4.46-16.11-11.07-26.42-23-45c-5.46-8.51-14.17-21.27-29-39c-20.9-24.99-39.94-48.41-71-69
	c-17.29-11.46-32.53-18.61-44-24c-36.3-17.04-48.85-16.6-94-36c-21.45-9.21-32.17-13.82-45-22c-26.85-17.12-43.21-35.83-58-53
	c-20.12-23.37-31.17-36.19-38-58c-3.69-11.77-8.96-29.41-3-50c5.84-20.16,19.27-32.19,28-40c15.12-13.53,30.05-19.42,42-24
	c18.83-7.22,34.29-9.21,49-11c22.57-2.75,39.7-2.25,49-2c51.2,1.36-25.72-2.26,99,1c109,2.85,132.52,4.71,147,6
	c3.08,0.27,18.72,1.85,50,5c56.59,5.7,72.54,7.44,98,9c25.32,1.55,37.97,2.32,50,2c18.67-0.5,53.92-1.62,96-16
	c43.31-14.8,71.91-35.75,87-47c14.42-10.75,42.7-33.59,70-70c18.89-25.2,37.41-49.91,45-87c1.98-9.67,2.32-23.44,3-51
	c1.19-47.98-2.46-58.35,0-100c1.47-24.82,4.04-42.63,5-49c3.08-20.38,6.72-36.01,10-50c5.16-21.99,10.07-38.43,13-49
	c4.02-14.49,10.78-38.25,29-96c31.83-100.88,31.85-93.76,47-144c2.17-7.2,7.34-24.5,16-47c4.74-12.33,10.6-27.43,20-46
	c8.6-16.99,10.21-17.22,25-44c12.19-22.09,18.36-33.35,22-44c6.97-20.43,8.23-37.49,9-49c1.35-20.17-0.41-35.29-2-49
	c-2.36-20.31-5.97-35.44-9-48c-2.83-11.7-5.9-22.69-14-48c-13.31-41.6-17.42-50.77-31-93c-8.3-25.83-11.82-38.13-14-46
	c-5.82-21.02-9.58-37.47-12-48c-4.92-21.38-7.55-32.82-10-49c-2.23-14.68-3.15-26.45-5-50c-1.92-24.45-2.72-42.99-3-50
	c-0.65-16.22-0.94-31.55-1-50c-0.09-30.28,0.5-57.68,2-101c1.44-41.53,1.78-41.99,4-100c1.74-45.49,2.62-68.73,3-93
	c0.3-19.04,0.56-48.32,0-84c-0.8-51.58-2.33-54.26-3-100c-0.33-22.55-0.78-56.88,1-101c1.46-36.17,3.78-62.91,7-100
	c3.16-36.39,4.66-47.01,9-92c2.64-27.33,5.76-61.54,8.94-101.15l-102.15-4.21l-185-13l-238-20l-154-15l-182-15l-111-11l-99-13
	l-96-15l-75-16l-101-22l-163-38l-127-28l-123-24l-97-18l-93-16l-60-11l-83-14l-79-13l-122-20l-135-21l-74-12l-121-19l-88-14l-158-23
	l-96-15l-115-15l-165-21l-112-14l-90-12l-154-21l-93-11l-101-12l-139-11l-119-5l-73-1l-128,4l-92,8l-102,11l-115,15l-130,18l-229,31
	l-139,14l-122,7h-88l-101-6l-107-12l-121-19l-99-18l-249-52l-102-20l-66-9l-76-12l-88-14l-141-22l-102-8l-123,2l-108,10l-142,20
	l-216,39l-165,32l-222,42l-109,18l-98,12l-167,11l-82,8l-91,17l-141,45l-135,52l-289,124l-188,73l-183,71l-190,73l-161,58l-130,41
	l-103,22l-49,4l-43.5,0.5l-46-5l-3,107v92.52l8,47.48l20,47l24,44c7.96,12.14,17.59,26.01,29,41c17.56,23.07,36.9,48.19,67,75
	c16.59,14.77,31.15,25.33,39,31c13.73,9.91,26.07,17.82,43,28c34.4,20.69,58.22,32.89,88,49c56.36,30.49,45.48,26.46,88,49
	c38.44,20.38,56.42,28.49,87,48c21.41,13.66,42,29,42,29s10.86,8,21,16c16.05,12.66,36.65,30.33,68,61c33.12,32.4,32.09,34.16,76,79
	c4.76,4.86,18.38,18.74,35,38c4.2,4.86,9.07,10.52,15,18c10.5,13.23,19.85,25.02,29,41c11.91,20.79,17.79,38.76,20,46
	c6.01,19.73,7.69,35.3,9,48c0.44,4.26,2.36,23.84,1,50c-1.15,22.14-4.12,38.69-6,49c-3.59,19.65-7.7,34.05-12,49
	c-5.98,20.82-11.51,36.28-15,46c-6.6,18.4-12.17,31.92-18,46c-3.36,8.11-10.15,24.32-20,46c-13.02,28.66-24.88,54.93-43,88
	c-9.93,18.13-18.74,32.84-25,43c-27.23,44.18-50.56,74.09-56,81c-14.63,18.6-26.67,32.16-31,37c-14.76,16.47-38.6,41.52-71,69
	c-21.93,18.6-44.03,37.33-77,57c-16.15,9.63-46.14,26.1-86,40c-13.06,4.56-33.04,9.7-73,20c-41.36,10.66-57.88,13.84-71,16
	c-16.72,2.75-30.99,5.93-50,6c-5.11,0.02-16.66-0.74-30-2c-12.69-1.2-16.62-1.76-18-2c-13.34-2.34-23.11-6.46-29-9
	c-78.9-34.02-108-51-108-51c-11.05-6.44-42.71-25.28-82-55c-29.49-22.31-62.06-46.95-96-84c-52.98-57.84-85.74-120.25-97-142
	c-10.81-20.89-24.21-42.93-51-87c-5.33-8.76-14.32-23.35-30-39c-7.55-7.54-20.02-19.78-40-30c-21.08-10.78-39.36-13.6-49-15
	c-5.25-0.76-24.29-3.28-49,0c-22.08,2.93-38.02,9.08-48,13c-8.75,3.44-25.45,10.11-44,23c-11.42,7.93-44.08,31.22-64,75
	c-9.3,20.42-12.25,37.47-14,48c-6.58,39.56-0.3,71.91,5,98c2.58,12.68,6.05,24.45,13,48c8.99,30.47,16.64,52.8,31,94
	c28.46,81.69,27,76.05,32,92c4.98,15.88,15.7,51,25,95c3.24,15.31,6.04,30.46,8,49c1.68,15.93,3.11,30.05,2,49
	c-1.33,22.78-5.62,40.34-8,49c-5.64,20.52-12.68,35.11-18,46c-2.5,5.11-7.33,14.65-25,43c-11.72,18.8-17.29,26.95-27,42
	c-25.83,40.03-39,60.58-51,87c-10.88,23.95-15.37,39.87-17,46c-6.62,24.84-7.78,43.95-8,48c-1.39,25.43,2,44.69,3,50
	c2.56,13.6,6.74,25.25,15,48c8.65,23.82,16.12,41.55,18,46c19.46,45.99,37.79,81.01,42,89c11.33,21.49,26.78,50.62,51,87
	c27.78,41.73,52.46,71.03,61,81c21.19,24.73,37.46,40.48,70,72c54.04,52.33,96.99,88.36,111,100c25.59,21.26,46.76,38.84,78,61
	c33.98,24.1,61.47,40.57,84,54c23.57,14.05,50.96,30.3,89,49c46.85,23.04,83.46,36.82,92,40c36.38,13.56,63.04,20.91,96,30
	c20.13,5.55,33.03,8.64,49,11c18.84,2.79,33.98,3.4,50,4c12.28,0.46,29.4,0.77,52,0c17.68-0.6,24.52-1.39,99-8
	c20.22-1.79,32.54-2.88,50-4c20.56-1.32,33.29-2.12,50-2c5.24,0.04,24.84,0.27,50,3c40.78,4.43,71.75,12.79,98,20
	c31.14,8.55,52.43,16.36,95,32c58.22,21.38,76.67,31.24,91,40c11.93,7.29,21.78,14.63,41,29c41.37,30.93,56.92,45.6,78,62
	c25.57,19.9,69.07,53.21,131,75c42.57,14.98,78.13,18.99,97,21c24.05,2.57,50.29,3.47,101,0c72.43-4.96,128.09-14.27,150-18
	c103.28-17.59,188.91-35.79,248-49c83.46-18.65,150.62-35.5,195-47c61.39-15.91,117.96-30.57,194-54c31.83-9.81,84.89-28.21,191-65
	c45.59-15.81,88.32-30.81,139-57c23.93-12.37,52.86-28.9,84-55c7.88-6.6,21.56-18.57,37-35c23.69-25.22,40.28-48.99,59-79
	c22.01-35.29,22.66-40.21,73-130c14.25-25.42,30.43-53.9,57-83c12.35-13.52,24.47-24.48,37-34c9.56-7.27,22.68-17.12,42-26
	c17.62-8.1,31.76-11.42,47-15c1.68-0.4,25.64-5.91,51-8c69.59-5.74,150,10,150,10c68.65,13.44,126.95,29.13,194,49
	c71.65,21.23,125.27,38.92,192,61c92.04,30.45,97.83,33.65,190,64c129.23,42.56,169.3,53.22,192,59c72.89,18.55,112.54,26.48,147,31
	c9.36,1.23,48.79,6.26,102,8c65.33,2.14,114.51-1.89,151-5c29.65-2.52,103.87-9.68,198-29c52.25-10.73-29.7,4.17,148-33
	c41.54-8.69,33.2-7.46,55.5-11.5l42-7l104-27c0,0,6,2,35-14s40-22,40-22l70-33c0,0,51-20,59-22s23-8,33-10s21-4,21-4s28-5,42-6
	s41-3,41-3s22-2,41-4s64-10,64-10l17-3l37.5-8.5l15.5,69.5l9,38l5,20l2,13l3,19l4,22l4,18l2,10c1.79,6.64,3.45,13.3,5,20
	c1.85,8.02,2.05,9.7,4,18c2.14,9.14,2.62,10.19,5,20c2.21,9.09,1.93,8.74,5,22c2.41,10.4,4.41,18.55,6,25c0.67,2.72,2.11,8.48,5,20
	c3.61,14.4,3.9,15.54,5,20c2.53,10.32,3.8,15.47,5,21c2.03,9.38,2.08,10.99,4,20c2.13,10.02,4.01,17.16,5,21
	c5.13,19.97,9.08,38.96,19,81c0,0,6.13,25.97,16,66c17.77,72.06,26.92,97.95,49,181c16.98,63.84,12.9,53.56,42,166
	c14.67,56.68,17.24,65.25,26,101c9.23,37.69,11.43,48.82,29,122c3.24,13.48,10.16,42.24,20,80c0.61,2.35,2.68,9.4,5,19
	c1.06,4.36,1.97,8.39,2.76,12.07c2.4,11.15,3.79,19.41,4.24,21.93c3.67,20.71,12.28,41.29,13,43
	C7064.82,6535.16,7068.98,6544.99,7078.5,6552.5z"/>
</svg>
