<?xml version="1.0" encoding="utf-8"?>
<!-- Generator: Adobe Illustrator 25.0.1, SVG Export Plug-In . SVG Version: 6.00 Build 0)  -->
<svg version="1.1" id="图层_1" xmlns="http://www.w3.org/2000/svg" xmlns:xlink="http://www.w3.org/1999/xlink" x="0px" y="0px"
	 viewBox="0 0 500 500" style="enable-background:new 0 0 500 500;" xml:space="preserve">
<style type="text/css">
	.st0{opacity:0.7;}
	.st1{fill:#FFFFFF;}
	.st2{fill:#666666;}
	.st3{fill:#5383EC;}
</style>
<g class="st0">
	<path class="st1" d="M250,499c-66.51,0-129.04-25.9-176.07-72.93C26.9,379.04,1,316.51,1,250c0-66.51,25.9-129.04,72.93-176.07
		C120.96,26.9,183.49,1,250,1c66.51,0,129.04,25.9,176.07,72.93C473.1,120.96,499,183.49,499,250c0,66.51-25.9,129.04-72.93,176.07
		C379.04,473.1,316.51,499,250,499z"/>
	<path class="st2" d="M250,2c33.48,0,65.96,6.56,96.53,19.49c29.53,12.49,56.05,30.37,78.83,53.15
		c22.78,22.78,40.66,49.3,53.15,78.83C491.44,184.04,498,216.52,498,250s-6.56,65.96-19.49,96.53
		c-12.49,29.53-30.37,56.05-53.15,78.83c-22.78,22.78-49.3,40.66-78.83,53.15C315.96,491.44,283.48,498,250,498
		s-65.96-6.56-96.53-19.49c-29.53-12.49-56.05-30.37-78.83-53.15c-22.78-22.78-40.66-49.3-53.15-78.83C8.56,315.96,2,283.48,2,250
		s6.56-65.96,19.49-96.53c12.49-29.53,30.37-56.05,53.15-78.83s49.3-40.66,78.83-53.15C184.04,8.56,216.52,2,250,2 M250,0
		C111.93,0,0,111.93,0,250s111.93,250,250,250s250-111.93,250-250S388.07,0,250,0L250,0z"/>
</g>
<polygon class="st3" points="250.51,92.38 130,385 250,330 380,385 "/>
</svg>
